{"glyphs":{"0":{"ha":785,"x_min":66,"x_max":718,"o":"m 392 81 q 213 206 266 81 q 184 368 184 275 q 302 629 184 570 q 395 650 345 650 q 583 498 538 651 q 600 365 600 439 q 500 115 600 189 q 392 81 452 81 m 396 747 q 122 598 209 747 q 66 365 66 502 q 201 42 66 141 q 391 -15 281 -15 q 651 122 560 -15 q 718 368 718 222 q 566 705 718 616 q 396 747 492 747 z "},"1":{"ha":538,"x_min":39,"x_max":476,"o":"m 75 544 l 248 616 l 248 87 l 99 87 l 99 0 l 476 0 l 476 87 l 362 87 l 362 732 l 260 732 l 39 637 l 75 544 z "},"2":{"ha":594,"x_min":35,"x_max":528,"o":"m 528 1 l 528 98 l 214 98 l 316 213 q 355 256 328 228 q 490 434 460 373 q 511 525 511 481 q 407 711 511 648 q 270 747 345 747 q 57 648 138 747 q 35 618 45 633 l 119 568 q 247 648 164 640 q 262 650 255 650 q 376 589 339 650 q 395 517 395 556 q 311 354 395 450 q 237 274 294 335 l 41 62 l 41 1 l 528 1 z "},"3":{"ha":594,"x_min":12,"x_max":547,"o":"m 255 -198 q 480 -103 397 -198 q 547 83 547 -27 q 454 269 547 202 q 368 309 415 297 q 500 448 468 345 q 513 522 513 484 q 407 711 513 647 q 269 747 345 747 q 58 646 137 747 q 38 616 47 631 l 123 566 q 262 650 178 648 q 376 586 339 650 q 396 506 396 551 q 320 368 396 411 q 220 343 277 343 l 168 343 l 168 252 l 247 252 q 410 163 363 252 q 430 80 430 125 q 340 -77 430 -31 q 252 -98 300 -98 q 76 -28 157 -96 l 12 -109 q 255 -198 121 -198 z "},"4":{"ha":677,"x_min":28,"x_max":656,"o":"m 533 -183 l 533 38 l 656 38 l 656 134 l 533 134 l 533 732 l 429 732 l 28 119 l 45 37 l 419 38 l 419 -183 l 533 -183 m 419 134 l 144 134 l 419 557 l 419 134 z "},"5":{"ha":608,"x_min":41,"x_max":560,"o":"m 256 -198 q 514 -61 433 -198 q 560 114 560 18 q 467 334 560 251 q 269 403 388 403 q 209 397 232 403 l 209 636 l 505 636 l 505 732 l 95 732 l 95 294 q 217 312 155 312 q 418 205 365 312 q 439 111 439 161 q 358 -64 439 -5 q 248 -98 311 -98 q 94 -47 171 -96 l 41 -133 q 256 -198 146 -198 z "},"6":{"ha":699,"x_min":61,"x_max":637,"o":"m 637 298 q 528 543 637 458 q 378 594 460 594 q 190 496 262 594 q 178 480 183 488 q 307 812 186 742 q 392 834 345 834 q 538 762 479 833 l 614 821 q 419 929 543 918 q 393 930 406 930 q 114 720 201 930 q 61 415 61 591 q 202 30 61 130 q 350 -15 264 -15 q 586 114 505 -15 q 637 298 637 197 m 187 292 q 281 481 187 431 q 357 500 317 500 q 494 414 449 500 q 519 288 519 361 q 433 104 519 157 q 353 83 395 83 q 220 161 267 83 q 187 292 187 217 z "},"7":{"ha":559,"x_min":16,"x_max":540,"o":"m 540 655 l 540 732 l 16 732 l 16 623 l 407 623 q 117 -179 213 178 l 237 -186 q 540 655 345 212 z "},"8":{"ha":670,"x_min":42,"x_max":628,"o":"m 628 244 q 532 449 628 376 q 457 487 498 475 q 589 636 560 530 q 595 697 595 666 q 492 892 595 829 q 342 930 429 930 q 122 831 195 930 q 77 690 77 770 q 171 507 77 574 q 205 487 189 495 q 58 336 99 442 q 42 241 42 290 q 146 37 42 110 q 330 -15 224 -15 q 574 88 488 -15 q 628 244 628 157 m 156 254 q 240 415 156 368 q 334 438 282 438 q 488 350 442 438 q 511 252 511 307 q 431 107 511 153 q 335 83 389 83 q 179 165 227 83 q 156 254 156 205 m 190 684 q 274 823 190 788 q 340 836 304 836 q 475 749 444 836 q 486 686 486 720 q 408 541 486 581 q 338 526 376 526 q 208 605 245 526 q 190 684 190 640 z "},"9":{"ha":699,"x_min":60,"x_max":635,"o":"m 60 433 q 165 193 60 275 q 316 140 232 140 q 502 233 429 140 q 517 255 510 244 q 305 -100 498 -92 q 160 -35 220 -100 q 152 -26 155 -30 l 81 -81 q 273 -195 151 -180 q 305 -198 289 -198 q 582 9 496 -198 q 635 320 635 140 q 468 720 635 636 q 346 747 414 747 q 107 616 186 747 q 60 433 60 534 m 345 650 q 480 568 435 650 q 509 444 509 515 q 414 251 509 301 q 340 233 380 233 q 203 319 248 233 q 178 444 178 372 q 277 636 178 591 q 345 650 309 650 z "},"A":{"ha":724,"x_min":5,"x_max":719,"o":"m 122 0 l 187 216 l 533 216 l 597 0 l 719 0 l 437 916 l 290 916 l 5 0 l 122 0 m 308 614 q 338 726 316 640 q 362 817 355 789 q 381 743 368 795 q 414 618 406 647 l 506 305 l 214 305 l 308 614 z "},"Æ":{"ha":1112,"x_min":5,"x_max":1047,"o":"m 127 0 l 248 222 l 582 224 l 582 0 l 1047 0 l 1047 96 l 697 96 l 697 427 l 996 427 l 996 524 l 697 524 l 697 819 l 1035 819 l 1035 916 l 511 916 l 5 0 l 127 0 m 473 636 q 582 842 521 724 l 582 312 l 297 312 l 473 636 z "},"Á":{"ha":724,"x_min":5,"x_max":719,"o":"m 122 0 l 187 216 l 533 216 l 597 0 l 719 0 l 437 916 l 290 916 l 5 0 l 122 0 m 308 614 q 338 726 316 640 q 362 817 355 789 q 381 743 368 795 q 414 618 406 647 l 506 305 l 214 305 l 308 614 m 555 1120 l 492 1206 l 273 1044 l 320 975 l 555 1120 z "},"Ă":{"ha":724,"x_min":5,"x_max":719,"o":"m 122 0 l 187 216 l 533 216 l 597 0 l 719 0 l 437 916 l 290 916 l 5 0 l 122 0 m 308 614 q 338 726 316 640 q 362 817 355 789 q 381 743 368 795 q 414 618 406 647 l 506 305 l 214 305 l 308 614 m 191 1168 q 283 1012 191 1057 q 368 993 323 993 q 513 1063 461 993 q 545 1168 544 1108 l 469 1172 q 401 1084 461 1103 q 369 1078 385 1078 q 283 1130 311 1078 q 270 1176 273 1152 l 191 1168 z "},"Â":{"ha":724,"x_min":5,"x_max":719,"o":"m 122 0 l 187 216 l 533 216 l 597 0 l 719 0 l 437 916 l 290 916 l 5 0 l 122 0 m 308 614 q 338 726 316 640 q 362 817 355 789 q 381 743 368 795 q 414 618 406 647 l 506 305 l 214 305 l 308 614 m 374 1190 l 180 1035 l 228 975 l 370 1080 l 515 972 l 567 1036 l 374 1190 z "},"Ä":{"ha":724,"x_min":5,"x_max":719,"o":"m 122 0 l 187 216 l 533 216 l 597 0 l 719 0 l 437 916 l 290 916 l 5 0 l 122 0 m 308 614 q 338 726 316 640 q 362 817 355 789 q 381 743 368 795 q 414 618 406 647 l 506 305 l 214 305 l 308 614 m 308 1081 q 262 1150 308 1137 q 243 1153 252 1153 q 178 1105 191 1153 q 175 1081 175 1093 q 222 1009 175 1023 q 241 1006 232 1006 q 302 1051 288 1006 q 308 1081 308 1066 m 560 1081 q 513 1150 560 1137 q 492 1153 502 1153 q 431 1107 445 1153 q 427 1081 427 1095 q 472 1009 427 1024 q 492 1006 483 1006 q 555 1051 540 1006 q 560 1081 560 1066 z "},"À":{"ha":724,"x_min":5,"x_max":719,"o":"m 122 0 l 187 216 l 533 216 l 597 0 l 719 0 l 437 916 l 290 916 l 5 0 l 122 0 m 308 614 q 338 726 316 640 q 362 817 355 789 q 381 743 368 795 q 414 618 406 647 l 506 305 l 214 305 l 308 614 m 216 1120 l 278 1206 l 498 1044 l 450 975 l 216 1120 z "},"Ā":{"ha":724,"x_min":5,"x_max":719,"o":"m 122 0 l 187 216 l 533 216 l 597 0 l 719 0 l 437 916 l 290 916 l 5 0 l 122 0 m 308 614 q 338 726 316 640 q 362 817 355 789 q 381 743 368 795 q 414 618 406 647 l 506 305 l 214 305 l 308 614 m 191 1124 l 191 1035 l 545 1035 l 545 1124 l 191 1124 z "},"Ą":{"ha":724,"x_min":5,"x_max":738,"o":"m 308 614 q 338 726 316 640 q 362 817 355 789 q 381 743 368 795 q 414 618 406 647 l 506 305 l 214 305 l 308 614 m 738 -264 l 732 -189 q 686 -195 708 -195 q 605 -146 620 -195 q 602 -126 602 -136 q 719 0 605 -52 l 437 916 l 290 916 l 5 0 l 122 0 l 187 216 l 533 216 l 597 0 l 604 0 q 505 -151 506 -68 q 595 -267 505 -241 q 656 -275 624 -275 q 738 -264 697 -275 z "},"Å":{"ha":724,"x_min":5,"x_max":719,"o":"m 122 0 l 187 216 l 533 216 l 597 0 l 719 0 l 438 911 q 510 1040 509 954 q 431 1173 510 1137 q 370 1185 401 1185 q 248 1122 289 1185 q 225 1039 225 1086 q 289 913 227 954 l 5 0 l 122 0 m 308 614 q 338 726 316 640 q 362 817 355 789 q 381 743 368 795 q 414 618 406 647 l 506 305 l 214 305 l 308 614 m 298 1039 q 346 1116 298 1100 q 368 1119 358 1119 q 431 1077 412 1119 q 438 1039 438 1059 q 389 963 438 979 q 368 960 378 960 q 305 1004 323 960 q 298 1039 298 1020 z "},"Ã":{"ha":724,"x_min":5,"x_max":719,"o":"m 122 0 l 187 216 l 533 216 l 597 0 l 719 0 l 437 916 l 290 916 l 5 0 l 122 0 m 308 614 q 338 726 316 640 q 362 817 355 789 q 381 743 368 795 q 414 618 406 647 l 506 305 l 214 305 l 308 614 m 452 1097 q 368 1127 426 1097 q 289 1149 321 1149 q 155 1081 224 1147 l 203 1025 q 289 1062 247 1062 q 378 1032 316 1062 q 460 1010 426 1010 q 583 1082 529 1012 l 534 1135 q 452 1097 498 1099 z "},"B":{"ha":704,"x_min":99,"x_max":651,"o":"m 651 266 q 562 441 651 377 q 460 483 517 472 q 600 600 556 509 q 623 696 623 644 q 487 894 623 840 q 330 920 420 920 q 99 916 205 920 l 99 0 q 271 -5 183 -5 q 651 266 650 -4 m 323 823 q 505 699 490 823 q 506 677 506 688 q 415 537 506 575 q 321 519 374 519 l 214 519 l 214 821 q 323 823 290 823 m 312 91 q 214 96 262 91 l 214 429 l 336 429 q 529 308 500 429 q 533 264 533 288 q 312 91 522 95 z "},"C":{"ha":711,"x_min":47,"x_max":700,"o":"m 420 90 q 201 258 260 90 q 171 456 171 342 q 296 798 171 713 q 406 829 345 829 q 589 686 537 826 l 700 716 q 481 924 644 888 q 408 930 446 930 q 137 788 236 930 q 47 456 47 661 q 189 65 47 191 q 404 -15 278 -15 q 681 79 537 -14 l 636 161 q 420 90 519 90 z "},"Ć":{"ha":711,"x_min":47,"x_max":700,"o":"m 420 90 q 201 258 260 90 q 171 456 171 342 q 296 798 171 713 q 406 829 345 829 q 589 686 537 826 l 700 716 q 481 924 644 888 q 408 930 446 930 q 137 788 236 930 q 47 456 47 661 q 189 65 47 191 q 404 -15 278 -15 q 681 79 537 -14 l 636 161 q 420 90 519 90 m 594 1120 l 532 1206 l 312 1044 l 359 975 l 594 1120 z "},"Č":{"ha":711,"x_min":47,"x_max":700,"o":"m 420 90 q 201 258 260 90 q 171 456 171 342 q 296 798 171 713 q 406 829 345 829 q 589 686 537 826 l 700 716 q 481 924 644 888 q 408 930 446 930 q 137 788 236 930 q 47 456 47 661 q 189 65 47 191 q 404 -15 278 -15 q 681 79 537 -14 l 636 161 q 420 90 519 90 m 404 971 l 601 1131 l 553 1190 l 410 1082 l 263 1192 l 212 1130 l 404 971 z "},"Ç":{"ha":711,"x_min":47,"x_max":700,"o":"m 368 -275 q 525 -201 480 -275 q 543 -138 543 -171 q 463 -16 543 -58 q 454 -12 457 -14 q 681 79 564 3 l 636 161 q 420 90 519 90 q 201 258 260 90 q 171 456 171 342 q 296 798 171 713 q 406 829 345 829 q 589 686 537 826 l 700 716 q 481 924 644 888 q 408 930 446 930 q 137 788 236 930 q 47 456 47 661 q 189 65 47 191 q 370 -14 266 -3 q 456 -115 449 -58 q 385 -189 456 -175 q 353 -191 369 -191 q 309 -187 331 -191 l 307 -269 q 368 -275 332 -275 z "},"D":{"ha":773,"x_min":99,"x_max":727,"o":"m 99 916 l 99 0 q 334 -4 224 -4 q 674 195 576 -7 q 727 456 727 304 q 556 864 727 753 q 336 920 467 921 q 186 917 290 920 q 99 916 127 916 m 334 95 q 214 96 256 95 l 214 819 q 336 821 259 821 q 587 605 534 821 q 604 456 604 538 q 419 106 604 161 q 334 95 380 95 z "},"Ď":{"ha":773,"x_min":99,"x_max":727,"o":"m 99 916 l 99 0 q 334 -4 224 -4 q 674 195 576 -7 q 727 456 727 304 q 556 864 727 753 q 336 920 467 921 q 186 917 290 920 q 99 916 127 916 m 334 95 q 214 96 256 95 l 214 819 q 336 821 259 821 q 587 605 534 821 q 604 456 604 538 q 419 106 604 161 q 334 95 380 95 m 355 971 l 552 1131 l 505 1190 l 361 1082 l 214 1192 l 163 1130 l 355 971 z "},"Đ":{"ha":781,"x_min":7,"x_max":735,"o":"m 7 519 l 7 431 l 107 431 l 107 0 q 342 -4 232 -4 q 682 195 585 -7 q 735 456 735 304 q 564 864 735 753 q 345 920 475 921 q 194 917 298 920 q 107 916 136 916 l 107 519 l 7 519 m 342 95 q 222 96 264 95 l 222 431 l 408 431 l 408 519 l 222 519 l 222 819 q 345 821 267 821 q 595 605 543 821 q 612 456 612 538 q 427 106 612 161 q 342 95 388 95 z "},"E":{"ha":629,"x_min":99,"x_max":564,"o":"m 564 96 l 214 96 l 214 427 l 513 427 l 513 524 l 214 524 l 214 819 l 552 819 l 552 916 l 99 916 l 99 0 l 564 0 l 564 96 z "},"É":{"ha":629,"x_min":99,"x_max":564,"o":"m 564 96 l 214 96 l 214 427 l 513 427 l 513 524 l 214 524 l 214 819 l 552 819 l 552 916 l 99 916 l 99 0 l 564 0 l 564 96 m 511 1120 l 449 1206 l 229 1044 l 277 975 l 511 1120 z "},"Ě":{"ha":629,"x_min":99,"x_max":564,"o":"m 564 96 l 214 96 l 214 427 l 513 427 l 513 524 l 214 524 l 214 819 l 552 819 l 552 916 l 99 916 l 99 0 l 564 0 l 564 96 m 321 971 l 518 1131 l 471 1190 l 327 1082 l 180 1192 l 129 1130 l 321 971 z "},"Ê":{"ha":629,"x_min":99,"x_max":564,"o":"m 564 96 l 214 96 l 214 427 l 513 427 l 513 524 l 214 524 l 214 819 l 552 819 l 552 916 l 99 916 l 99 0 l 564 0 l 564 96 m 330 1190 l 136 1035 l 183 975 l 326 1080 l 471 972 l 522 1036 l 330 1190 z "},"Ë":{"ha":629,"x_min":99,"x_max":564,"o":"m 564 96 l 214 96 l 214 427 l 513 427 l 513 524 l 214 524 l 214 819 l 552 819 l 552 916 l 99 916 l 99 0 l 564 0 l 564 96 m 264 1081 q 218 1150 264 1137 q 199 1153 209 1153 q 134 1105 148 1153 q 132 1081 132 1093 q 179 1009 132 1023 q 198 1006 189 1006 q 259 1051 244 1006 q 264 1081 264 1066 m 517 1081 q 469 1150 517 1137 q 449 1153 458 1153 q 388 1107 401 1153 q 384 1081 384 1095 q 429 1009 384 1024 q 449 1006 439 1006 q 511 1051 496 1006 q 517 1081 517 1066 z "},"Ė":{"ha":629,"x_min":99,"x_max":564,"o":"m 564 96 l 214 96 l 214 427 l 513 427 l 513 524 l 214 524 l 214 819 l 552 819 l 552 916 l 99 916 l 99 0 l 564 0 l 564 96 m 347 1028 q 380 1093 388 1050 q 376 1109 378 1101 q 313 1141 355 1153 q 301 1137 307 1139 q 270 1062 255 1111 q 273 1055 271 1058 q 332 1021 293 1010 q 347 1028 340 1024 z "},"È":{"ha":629,"x_min":99,"x_max":564,"o":"m 564 96 l 214 96 l 214 427 l 513 427 l 513 524 l 214 524 l 214 819 l 552 819 l 552 916 l 99 916 l 99 0 l 564 0 l 564 96 m 172 1120 l 235 1206 l 454 1044 l 407 975 l 172 1120 z "},"Ē":{"ha":629,"x_min":99,"x_max":564,"o":"m 564 96 l 214 96 l 214 427 l 513 427 l 513 524 l 214 524 l 214 819 l 552 819 l 552 916 l 99 916 l 99 0 l 564 0 l 564 96 m 148 1124 l 148 1035 l 502 1035 l 502 1124 l 148 1124 z "},"Ę":{"ha":629,"x_min":99,"x_max":583,"o":"m 583 -264 l 578 -189 q 532 -195 553 -195 q 450 -146 465 -195 q 448 -126 448 -136 q 564 0 450 -52 l 564 96 l 214 96 l 214 427 l 513 427 l 513 524 l 214 524 l 214 819 l 552 819 l 552 916 l 99 916 l 99 0 l 449 0 q 350 -151 351 -68 q 441 -267 350 -241 q 502 -275 469 -275 q 583 -264 543 -275 z "},"Ð":{"ha":781,"x_min":7,"x_max":735,"o":"m 7 519 l 7 431 l 107 431 l 107 0 q 342 -4 232 -4 q 682 195 585 -7 q 735 456 735 304 q 564 864 735 753 q 345 920 475 921 q 194 917 298 920 q 107 916 136 916 l 107 519 l 7 519 m 342 95 q 222 96 264 95 l 222 431 l 408 431 l 408 519 l 222 519 l 222 819 q 345 821 267 821 q 595 605 543 821 q 612 456 612 538 q 427 106 612 161 q 342 95 388 95 z "},"€":{"ha":766,"x_min":30,"x_max":715,"o":"m 715 66 l 665 152 q 472 91 568 91 q 266 262 321 91 q 251 327 256 293 l 551 327 l 567 410 l 241 410 q 240 457 240 426 q 241 496 240 484 l 594 496 l 612 579 l 250 579 q 406 819 281 780 q 463 827 434 827 q 624 736 560 827 q 631 726 628 731 l 715 793 q 517 926 646 903 q 465 930 490 930 q 187 754 283 930 q 129 579 146 677 l 30 579 l 30 496 l 119 496 q 118 452 118 480 q 119 410 118 423 l 30 410 l 30 327 l 127 327 q 301 28 164 113 q 456 -14 372 -14 q 715 66 587 -12 z "},"F":{"ha":595,"x_min":99,"x_max":553,"o":"m 553 916 l 99 916 l 99 0 l 214 0 l 214 427 l 514 427 l 514 524 l 214 524 l 214 819 l 553 819 l 553 916 z "},"G":{"ha":774,"x_min":47,"x_max":708,"o":"m 708 61 l 708 452 l 403 452 l 403 354 l 594 354 l 594 125 q 431 85 502 85 q 203 248 267 85 q 170 456 170 335 q 286 787 170 694 q 412 830 342 830 q 600 685 540 827 l 708 716 q 499 920 651 880 q 415 930 458 930 q 137 787 239 930 q 47 456 47 659 q 210 47 47 165 q 418 -15 297 -15 q 708 61 559 -14 z "},"Ğ":{"ha":774,"x_min":47,"x_max":708,"o":"m 708 61 l 708 452 l 403 452 l 403 354 l 594 354 l 594 125 q 431 85 502 85 q 203 248 267 85 q 170 456 170 335 q 286 787 170 694 q 412 830 342 830 q 600 685 540 827 l 708 716 q 499 920 651 880 q 415 930 458 930 q 137 787 239 930 q 47 456 47 659 q 210 47 47 165 q 418 -15 297 -15 q 708 61 559 -14 m 235 1168 q 327 1012 235 1057 q 411 993 366 993 q 556 1063 505 993 q 589 1168 587 1108 l 513 1172 q 445 1084 505 1103 q 412 1078 429 1078 q 327 1130 354 1078 q 313 1176 316 1152 l 235 1168 z "},"H":{"ha":818,"x_min":99,"x_max":719,"o":"m 604 0 l 719 0 l 719 916 l 604 916 l 604 522 l 214 522 l 214 916 l 99 916 l 99 0 l 214 0 l 214 427 l 604 427 l 604 0 z "},"I":{"ha":320,"x_min":103,"x_max":217,"o":"m 103 916 l 103 0 l 217 0 l 217 916 l 103 916 z "},"Í":{"ha":320,"x_min":65,"x_max":347,"o":"m 103 916 l 103 0 l 217 0 l 217 916 l 103 916 m 347 1120 l 285 1206 l 65 1044 l 113 975 l 347 1120 z "},"Î":{"ha":311,"x_min":-18,"x_max":335,"o":"m 160 1191 l -18 1035 l 31 975 l 156 1078 l 283 972 l 335 1036 l 160 1191 m 103 916 l 103 0 l 217 0 l 217 916 l 103 916 z "},"Ï":{"ha":311,"x_min":-24,"x_max":334,"o":"m 109 1081 q 62 1150 109 1137 q 43 1153 53 1153 q -20 1109 -4 1153 q -24 1081 -24 1096 q 23 1009 -24 1023 q 42 1006 33 1006 q 104 1053 90 1006 q 109 1081 109 1066 m 334 1081 q 288 1150 334 1137 q 267 1153 277 1153 q 205 1109 221 1153 q 201 1081 201 1096 q 245 1009 201 1024 q 266 1006 256 1006 q 328 1051 313 1006 q 334 1081 334 1066 m 103 916 l 103 0 l 217 0 l 217 916 l 103 916 z "},"İ":{"ha":311,"x_min":87,"x_max":220,"o":"m 103 916 l 103 0 l 217 0 l 217 916 l 103 916 m 179 1006 q 212 1072 220 1028 q 208 1088 210 1081 q 145 1119 187 1131 q 133 1115 138 1118 q 102 1040 87 1089 q 104 1034 103 1038 q 164 1000 125 989 q 179 1006 172 1002 z "},"Ì":{"ha":320,"x_min":8,"x_max":290,"o":"m 103 916 l 103 0 l 217 0 l 217 916 l 103 916 m 8 1120 l 71 1206 l 290 1044 l 243 975 l 8 1120 z "},"Ī":{"ha":311,"x_min":1,"x_max":309,"o":"m 1 1124 l 1 1036 l 309 1036 l 309 1124 l 1 1124 m 103 916 l 103 0 l 217 0 l 217 916 l 103 916 z "},"Į":{"ha":320,"x_min":3,"x_max":236,"o":"m 236 -264 l 231 -189 q 184 -195 206 -195 q 103 -146 118 -195 q 100 -126 100 -136 q 217 0 103 -52 l 217 916 l 103 916 l 103 1 q 3 -151 4 -68 q 94 -267 3 -241 q 155 -275 122 -275 q 236 -264 195 -275 z "},"J":{"ha":401,"x_min":-4,"x_max":312,"o":"m 132 -15 q 288 76 241 -15 q 312 184 312 122 l 312 916 l 197 916 l 197 201 q 115 83 195 84 q 24 111 76 84 l -4 20 q 132 -15 65 -15 z "},"K":{"ha":726,"x_min":99,"x_max":722,"o":"m 716 76 q 651 117 675 73 l 449 487 l 697 916 l 581 916 l 361 529 l 214 529 l 214 916 l 99 916 l 99 0 l 214 0 l 214 434 l 358 434 l 555 71 q 671 -15 597 -14 q 722 -8 694 -15 l 716 76 z "},"L":{"ha":549,"x_min":96,"x_max":536,"o":"m 536 0 l 536 96 l 210 96 l 210 916 l 96 916 l 96 0 l 536 0 z "},"Ĺ":{"ha":549,"x_min":77,"x_max":536,"o":"m 536 0 l 536 96 l 210 96 l 210 916 l 96 916 l 96 0 l 536 0 m 359 1120 l 297 1206 l 77 1044 l 125 975 l 359 1120 z "},"Ľ":{"ha":549,"x_min":96,"x_max":536,"o":"m 536 0 l 536 96 l 210 96 l 210 916 l 96 916 l 96 0 l 536 0 m 524 846 q 473 926 524 910 q 450 929 461 929 q 387 888 404 929 q 380 853 380 872 q 425 785 380 803 q 431 784 429 784 q 373 656 423 732 l 412 628 q 518 808 496 711 q 524 846 522 829 z "},"Ł":{"ha":563,"x_min":-31,"x_max":536,"o":"m 536 0 l 536 96 l 210 96 l 210 423 l 393 499 l 362 576 l 210 514 l 210 916 l 96 916 l 96 467 l -31 414 l 0 335 l 96 376 l 96 0 l 536 0 z "},"M":{"ha":972,"x_min":33,"x_max":939,"o":"m 138 0 l 202 551 q 213 637 205 578 q 225 745 221 711 q 247 662 233 718 q 277 552 266 587 l 427 31 l 532 35 l 692 549 q 724 663 704 586 q 747 746 739 720 q 766 552 755 647 l 823 0 l 939 0 l 829 916 l 704 916 l 525 323 q 487 171 519 302 q 473 233 481 191 q 453 319 461 293 l 282 916 l 153 916 l 33 0 l 138 0 z "},"N":{"ha":829,"x_min":99,"x_max":730,"o":"m 730 0 l 730 916 l 623 916 l 623 218 l 201 926 l 99 916 l 99 0 l 206 0 l 206 708 l 633 -11 l 730 0 z "},"Ń":{"ha":829,"x_min":99,"x_max":730,"o":"m 730 0 l 730 916 l 623 916 l 623 218 l 201 926 l 99 916 l 99 0 l 206 0 l 206 708 l 633 -11 l 730 0 m 595 1120 l 533 1206 l 313 1044 l 361 975 l 595 1120 z "},"Ň":{"ha":829,"x_min":99,"x_max":730,"o":"m 730 0 l 730 916 l 623 916 l 623 218 l 201 926 l 99 916 l 99 0 l 206 0 l 206 708 l 633 -11 l 730 0 m 406 971 l 602 1131 l 555 1190 l 411 1082 l 264 1192 l 213 1130 l 406 971 z "},"Ñ":{"ha":829,"x_min":99,"x_max":730,"o":"m 730 0 l 730 916 l 623 916 l 623 218 l 201 926 l 99 916 l 99 0 l 206 0 l 206 708 l 633 -11 l 730 0 m 492 1097 q 408 1127 467 1097 q 330 1149 362 1149 q 195 1081 264 1147 l 244 1025 q 330 1062 288 1062 q 419 1032 357 1062 q 500 1010 467 1010 q 624 1082 570 1012 l 575 1135 q 492 1097 538 1099 z "},"O":{"ha":817,"x_min":49,"x_max":768,"o":"m 768 456 q 629 853 768 730 q 411 930 541 930 q 121 760 220 930 q 49 456 49 635 q 194 57 49 176 q 408 -15 281 -15 q 703 163 606 -15 q 768 456 768 283 m 171 456 q 270 770 171 671 q 411 829 330 829 q 616 655 559 829 q 644 456 644 570 q 541 138 644 233 q 408 87 486 87 q 198 262 255 87 q 171 456 171 346 z "},"Œ":{"ha":1072,"x_min":49,"x_max":1005,"o":"m 439 -11 q 533 -5 468 -11 q 613 0 589 0 l 1005 0 l 1005 96 l 655 96 l 655 427 l 954 427 l 954 524 l 655 524 l 655 819 l 993 819 l 993 916 l 576 916 q 530 920 562 917 q 439 925 469 925 q 96 715 190 925 q 49 456 49 608 q 439 -11 52 -9 m 441 91 q 171 456 175 102 q 357 812 171 758 q 438 823 395 823 q 540 814 484 823 l 540 100 q 441 91 490 91 z "},"Ó":{"ha":817,"x_min":49,"x_max":768,"o":"m 768 456 q 629 853 768 730 q 411 930 541 930 q 121 760 220 930 q 49 456 49 635 q 194 57 49 176 q 408 -15 281 -15 q 703 163 606 -15 q 768 456 768 283 m 171 456 q 270 770 171 671 q 411 829 330 829 q 616 655 559 829 q 644 456 644 570 q 541 138 644 233 q 408 87 486 87 q 198 262 255 87 q 171 456 171 346 m 600 1109 l 537 1195 l 317 1034 l 365 964 l 600 1109 z "},"Ô":{"ha":817,"x_min":49,"x_max":768,"o":"m 768 456 q 629 853 768 730 q 411 930 541 930 q 121 760 220 930 q 49 456 49 635 q 194 57 49 176 q 408 -15 281 -15 q 703 163 606 -15 q 768 456 768 283 m 171 456 q 270 770 171 671 q 411 829 330 829 q 616 655 559 829 q 644 456 644 570 q 541 138 644 233 q 408 87 486 87 q 198 262 255 87 q 171 456 171 346 m 418 1179 l 224 1024 l 271 964 l 414 1069 l 559 962 l 610 1025 l 418 1179 z "},"Ö":{"ha":817,"x_min":49,"x_max":768,"o":"m 768 456 q 629 853 768 730 q 411 930 541 930 q 121 760 220 930 q 49 456 49 635 q 194 57 49 176 q 408 -15 281 -15 q 703 163 606 -15 q 768 456 768 283 m 171 456 q 270 770 171 671 q 411 829 330 829 q 616 655 559 829 q 644 456 644 570 q 541 138 644 233 q 408 87 486 87 q 198 262 255 87 q 171 456 171 346 m 353 1070 q 307 1139 353 1126 q 288 1142 297 1142 q 222 1095 236 1142 q 220 1070 220 1082 q 267 998 220 1012 q 286 996 277 996 q 347 1040 332 996 q 353 1070 353 1055 m 605 1070 q 557 1139 605 1126 q 537 1142 547 1142 q 476 1096 490 1142 q 472 1070 472 1084 q 517 998 472 1013 q 537 996 528 996 q 600 1040 585 996 q 605 1070 605 1055 z "},"Ò":{"ha":817,"x_min":49,"x_max":768,"o":"m 768 456 q 629 853 768 730 q 411 930 541 930 q 121 760 220 930 q 49 456 49 635 q 194 57 49 176 q 408 -15 281 -15 q 703 163 606 -15 q 768 456 768 283 m 171 456 q 270 770 171 671 q 411 829 330 829 q 616 655 559 829 q 644 456 644 570 q 541 138 644 233 q 408 87 486 87 q 198 262 255 87 q 171 456 171 346 m 260 1109 l 323 1195 l 543 1034 l 495 964 l 260 1109 z "},"Ő":{"ha":817,"x_min":49,"x_max":768,"o":"m 768 456 q 629 853 768 730 q 411 930 541 930 q 121 760 220 930 q 49 456 49 635 q 194 57 49 176 q 408 -15 281 -15 q 703 163 606 -15 q 768 456 768 283 m 171 456 q 270 770 171 671 q 411 829 330 829 q 616 655 559 829 q 644 456 644 570 q 541 138 644 233 q 408 87 486 87 q 198 262 255 87 q 171 456 171 346 m 487 1123 l 422 1198 l 222 1024 l 273 964 l 487 1123 m 742 1123 l 675 1198 l 476 1024 l 528 964 l 742 1123 z "},"Ō":{"ha":817,"x_min":49,"x_max":768,"o":"m 768 456 q 629 853 768 730 q 411 930 541 930 q 121 760 220 930 q 49 456 49 635 q 194 57 49 176 q 408 -15 281 -15 q 703 163 606 -15 q 768 456 768 283 m 171 456 q 270 770 171 671 q 411 829 330 829 q 616 655 559 829 q 644 456 644 570 q 541 138 644 233 q 408 87 486 87 q 198 262 255 87 q 171 456 171 346 m 235 1114 l 235 1024 l 589 1024 l 589 1114 l 235 1114 z "},"Ø":{"ha":817,"x_min":49,"x_max":768,"o":"m 568 1023 l 528 911 q 411 930 475 930 q 121 760 220 930 q 49 456 49 635 q 193 58 49 179 q 214 41 203 49 l 170 -81 l 248 -106 l 288 4 q 408 -15 346 -15 q 703 163 606 -15 q 768 456 768 283 q 629 852 768 728 q 600 876 614 865 l 644 1000 l 568 1023 m 171 456 q 270 770 171 671 q 411 829 330 829 q 492 812 456 829 l 255 156 q 171 456 171 254 m 408 87 q 323 104 359 87 l 559 762 q 644 456 644 662 q 541 138 644 233 q 408 87 486 87 z "},"Õ":{"ha":817,"x_min":49,"x_max":768,"o":"m 768 456 q 629 853 768 730 q 411 930 541 930 q 121 760 220 930 q 49 456 49 635 q 194 57 49 176 q 408 -15 281 -15 q 703 163 606 -15 q 768 456 768 283 m 171 456 q 270 770 171 671 q 411 829 330 829 q 616 655 559 829 q 644 456 644 570 q 541 138 644 233 q 408 87 486 87 q 198 262 255 87 q 171 456 171 346 m 495 1086 q 411 1116 469 1086 q 332 1138 365 1138 q 198 1070 267 1137 l 247 1015 q 332 1051 290 1051 q 422 1021 359 1051 q 503 1000 469 1000 q 627 1072 572 1001 l 578 1124 q 495 1086 541 1088 z "},"P":{"ha":667,"x_min":103,"x_max":643,"o":"m 217 0 l 217 369 l 336 369 q 600 498 519 369 q 643 658 643 568 q 488 894 643 833 q 330 920 420 920 q 103 916 206 920 l 103 0 l 217 0 m 326 823 q 522 673 507 823 q 524 642 524 658 q 397 473 524 506 q 323 465 363 465 l 217 465 l 217 821 q 326 823 285 823 z "},"Q":{"ha":811,"x_min":49,"x_max":768,"o":"m 768 456 q 629 853 768 730 q 411 930 541 930 q 121 760 220 930 q 49 456 49 635 q 194 57 49 176 q 407 -15 281 -15 l 415 -15 q 544 -172 422 -146 q 746 -152 631 -191 l 723 -60 q 537 -46 581 -109 q 522 4 524 -26 q 738 250 678 58 q 768 456 768 345 m 171 456 q 270 770 171 671 q 411 829 330 829 q 616 655 559 829 q 644 456 644 570 q 541 138 644 233 q 408 87 486 87 q 198 262 255 87 q 171 456 171 346 z "},"R":{"ha":703,"x_min":103,"x_max":680,"o":"m 217 0 l 217 381 l 330 381 q 358 382 349 381 l 510 71 q 628 -14 557 -9 q 680 -8 658 -14 l 674 76 l 662 76 q 609 114 627 79 l 465 401 q 639 590 606 449 q 647 665 647 625 q 328 920 644 918 q 103 916 206 920 l 103 0 l 217 0 m 326 823 q 518 724 486 823 q 528 651 528 693 q 393 483 528 511 q 330 477 365 477 l 217 477 l 217 821 q 326 823 285 823 z "},"Ŕ":{"ha":703,"x_min":103,"x_max":680,"o":"m 217 0 l 217 381 l 330 381 q 358 382 349 381 l 510 71 q 628 -14 557 -9 q 680 -8 658 -14 l 674 76 l 662 76 q 609 114 627 79 l 465 401 q 639 590 606 449 q 647 665 647 625 q 328 920 644 918 q 103 916 206 920 l 103 0 l 217 0 m 326 823 q 518 724 486 823 q 528 651 528 693 q 393 483 528 511 q 330 477 365 477 l 217 477 l 217 821 q 326 823 285 823 m 524 1120 l 461 1206 l 241 1044 l 289 975 l 524 1120 z "},"Ř":{"ha":703,"x_min":103,"x_max":680,"o":"m 217 0 l 217 381 l 330 381 q 358 382 349 381 l 510 71 q 628 -14 557 -9 q 680 -8 658 -14 l 674 76 l 662 76 q 609 114 627 79 l 465 401 q 639 590 606 449 q 647 665 647 625 q 328 920 644 918 q 103 916 206 920 l 103 0 l 217 0 m 326 823 q 518 724 486 823 q 528 651 528 693 q 393 483 528 511 q 330 477 365 477 l 217 477 l 217 821 q 326 823 285 823 m 334 971 l 530 1131 l 483 1190 l 339 1082 l 193 1192 l 141 1130 l 334 971 z "},"S":{"ha":637,"x_min":54,"x_max":583,"o":"m 583 247 q 458 464 583 385 q 323 530 437 476 q 199 629 224 578 q 187 685 187 655 q 267 817 187 779 q 339 833 301 833 q 484 758 431 833 q 495 739 490 749 l 582 785 q 411 924 538 897 q 345 930 378 930 q 138 849 218 930 q 72 681 72 780 q 194 467 72 543 q 327 400 214 454 q 453 298 427 353 q 467 237 467 270 q 384 100 467 137 q 312 85 351 85 q 102 155 205 87 l 54 71 q 308 -15 174 -15 q 532 83 454 -15 q 583 247 583 151 z "},"Ś":{"ha":637,"x_min":54,"x_max":583,"o":"m 583 247 q 458 464 583 385 q 323 530 437 476 q 199 629 224 578 q 187 685 187 655 q 267 817 187 779 q 339 833 301 833 q 484 758 431 833 q 495 739 490 749 l 582 785 q 411 924 538 897 q 345 930 378 930 q 138 849 218 930 q 72 681 72 780 q 194 467 72 543 q 327 400 214 454 q 453 298 427 353 q 467 237 467 270 q 384 100 467 137 q 312 85 351 85 q 102 155 205 87 l 54 71 q 308 -15 174 -15 q 532 83 454 -15 q 583 247 583 151 m 519 1120 l 457 1206 l 237 1044 l 285 975 l 519 1120 z "},"Š":{"ha":637,"x_min":54,"x_max":583,"o":"m 583 247 q 458 464 583 385 q 323 530 437 476 q 199 629 224 578 q 187 685 187 655 q 267 817 187 779 q 339 833 301 833 q 484 758 431 833 q 495 739 490 749 l 582 785 q 411 924 538 897 q 345 930 378 930 q 138 849 218 930 q 72 681 72 780 q 194 467 72 543 q 327 400 214 454 q 453 298 427 353 q 467 237 467 270 q 384 100 467 137 q 312 85 351 85 q 102 155 205 87 l 54 71 q 308 -15 174 -15 q 532 83 454 -15 q 583 247 583 151 m 328 971 l 525 1131 l 477 1190 l 334 1082 l 187 1192 l 136 1130 l 328 971 z "},"T":{"ha":563,"x_min":9,"x_max":552,"o":"m 9 917 l 9 819 l 222 819 l 222 0 l 336 0 l 336 819 l 552 819 l 552 917 l 9 917 z "},"Ť":{"ha":563,"x_min":9,"x_max":552,"o":"m 9 917 l 9 819 l 222 819 l 222 0 l 336 0 l 336 819 l 552 819 l 552 917 l 9 917 m 279 971 l 476 1131 l 429 1190 l 285 1082 l 138 1192 l 87 1130 l 279 971 z "},"Þ":{"ha":674,"x_min":103,"x_max":643,"o":"m 336 197 q 600 326 519 197 q 643 484 643 395 q 487 722 643 662 q 330 747 419 747 l 217 746 l 217 916 l 103 916 l 103 0 l 217 0 l 217 197 l 336 197 m 326 650 q 522 498 509 651 q 524 469 524 484 q 397 301 524 334 q 323 293 363 293 l 217 293 l 217 650 l 326 650 z "},"U":{"ha":803,"x_min":90,"x_max":713,"o":"m 713 334 l 713 916 l 600 916 l 600 338 q 399 85 598 87 q 205 339 206 88 l 205 916 l 90 916 l 90 343 q 334 -11 90 27 q 397 -15 365 -15 q 670 134 593 -15 q 713 334 713 217 z "},"Ú":{"ha":803,"x_min":90,"x_max":713,"o":"m 713 334 l 713 916 l 600 916 l 600 338 q 399 85 598 87 q 205 339 206 88 l 205 916 l 90 916 l 90 343 q 334 -11 90 27 q 397 -15 365 -15 q 670 134 593 -15 q 713 334 713 217 m 590 1120 l 528 1206 l 308 1044 l 355 975 l 590 1120 z "},"Û":{"ha":803,"x_min":90,"x_max":713,"o":"m 713 334 l 713 916 l 600 916 l 600 338 q 399 85 598 87 q 205 339 206 88 l 205 916 l 90 916 l 90 343 q 334 -11 90 27 q 397 -15 365 -15 q 670 134 593 -15 q 713 334 713 217 m 408 1190 l 214 1035 l 262 975 l 404 1080 l 549 972 l 601 1036 l 408 1190 z "},"Ü":{"ha":803,"x_min":90,"x_max":713,"o":"m 713 334 l 713 916 l 600 916 l 600 338 q 399 85 598 87 q 205 339 206 88 l 205 916 l 90 916 l 90 343 q 334 -11 90 27 q 397 -15 365 -15 q 670 134 593 -15 q 713 334 713 217 m 342 1081 q 296 1150 342 1137 q 277 1153 286 1153 q 212 1105 225 1153 q 209 1081 209 1093 q 256 1009 209 1023 q 275 1006 266 1006 q 336 1051 321 1006 q 342 1081 342 1066 m 594 1081 q 547 1150 594 1137 q 526 1153 536 1153 q 465 1107 479 1153 q 461 1081 461 1095 q 506 1009 461 1024 q 526 1006 517 1006 q 589 1051 574 1006 q 594 1081 594 1066 z "},"Ù":{"ha":803,"x_min":90,"x_max":713,"o":"m 713 334 l 713 916 l 600 916 l 600 338 q 399 85 598 87 q 205 339 206 88 l 205 916 l 90 916 l 90 343 q 334 -11 90 27 q 397 -15 365 -15 q 670 134 593 -15 q 713 334 713 217 m 250 1120 l 312 1206 l 532 1044 l 484 975 l 250 1120 z "},"Ű":{"ha":803,"x_min":90,"x_max":732,"o":"m 713 334 l 713 916 l 600 916 l 600 338 q 399 85 598 87 q 205 339 206 88 l 205 916 l 90 916 l 90 343 q 334 -11 90 27 q 397 -15 365 -15 q 670 134 593 -15 q 713 334 713 217 m 477 1134 l 412 1208 l 213 1035 l 263 975 l 477 1134 m 732 1134 l 666 1208 l 467 1035 l 518 975 l 732 1134 z "},"Ū":{"ha":803,"x_min":90,"x_max":713,"o":"m 713 334 l 713 916 l 600 916 l 600 338 q 399 85 598 87 q 205 339 206 88 l 205 916 l 90 916 l 90 343 q 334 -11 90 27 q 397 -15 365 -15 q 670 134 593 -15 q 713 334 713 217 m 225 1124 l 225 1035 l 579 1035 l 579 1124 l 225 1124 z "},"Ų":{"ha":803,"x_min":90,"x_max":713,"o":"m 713 334 l 713 916 l 600 916 l 600 338 q 399 85 598 87 q 205 339 206 88 l 205 916 l 90 916 l 90 343 q 331 -9 90 30 q 368 -14 349 -12 q 288 -151 289 -77 q 378 -267 288 -241 q 439 -275 407 -275 q 521 -264 480 -275 l 515 -189 q 469 -195 491 -195 q 388 -146 403 -195 q 385 -126 385 -136 q 495 -3 388 -53 q 701 217 659 41 q 713 334 713 270 z "},"Ů":{"ha":803,"x_min":90,"x_max":713,"o":"m 713 334 l 713 916 l 600 916 l 600 338 q 399 85 598 87 q 205 339 206 88 l 205 916 l 90 916 l 90 343 q 334 -11 90 27 q 397 -15 365 -15 q 670 134 593 -15 q 713 334 713 217 m 547 1088 q 468 1221 547 1184 q 407 1233 438 1233 q 285 1169 326 1233 q 262 1086 262 1134 q 340 952 262 989 q 401 940 370 940 q 522 1002 480 940 q 547 1088 547 1039 m 335 1086 q 382 1164 335 1147 q 404 1166 395 1166 q 468 1124 449 1166 q 475 1086 475 1107 q 426 1010 475 1027 q 404 1008 415 1008 q 342 1051 359 1008 q 335 1086 335 1067 z "},"V":{"ha":724,"x_min":8,"x_max":716,"o":"m 434 0 l 716 916 l 597 916 l 425 342 q 365 104 404 275 q 302 340 324 266 l 133 916 l 8 916 l 286 0 l 434 0 z "},"W":{"ha":1069,"x_min":23,"x_max":1046,"o":"m 345 0 l 499 549 q 536 709 517 616 q 570 552 549 632 l 716 0 l 821 0 l 1046 916 l 933 916 l 804 342 q 772 156 803 332 q 735 339 749 290 l 591 886 l 486 882 l 338 342 q 298 152 328 307 q 269 339 282 271 l 142 916 l 23 916 l 236 0 l 345 0 z "},"X":{"ha":736,"x_min":8,"x_max":732,"o":"m 727 80 q 671 109 693 79 q 663 119 667 114 l 438 464 l 708 916 l 593 916 l 377 559 l 153 916 l 22 916 l 305 476 l 8 0 l 134 0 l 365 381 l 566 69 q 686 -14 623 -11 q 732 -8 712 -14 l 727 80 z "},"Y":{"ha":671,"x_min":1,"x_max":671,"o":"m 389 0 l 389 345 l 671 916 l 549 916 l 408 613 q 335 444 388 571 q 264 614 305 525 l 125 916 l 1 916 l 275 346 l 275 0 l 389 0 z "},"Ý":{"ha":671,"x_min":1,"x_max":671,"o":"m 389 0 l 389 345 l 671 916 l 549 916 l 408 613 q 335 444 388 571 q 264 614 305 525 l 125 916 l 1 916 l 275 346 l 275 0 l 389 0 m 525 1120 l 463 1206 l 243 1044 l 290 975 l 525 1120 z "},"Ÿ":{"ha":671,"x_min":1,"x_max":671,"o":"m 389 0 l 389 345 l 671 916 l 549 916 l 408 613 q 335 444 388 571 q 264 614 305 525 l 125 916 l 1 916 l 275 346 l 275 0 l 389 0 m 278 1081 q 232 1150 278 1137 q 213 1153 222 1153 q 148 1105 161 1153 q 145 1081 145 1093 q 193 1009 145 1023 q 212 1006 202 1006 q 273 1051 258 1006 q 278 1081 278 1066 m 530 1081 q 483 1150 530 1137 q 463 1153 472 1153 q 401 1107 415 1153 q 397 1081 397 1095 q 442 1009 397 1024 q 463 1006 453 1006 q 525 1051 510 1006 q 530 1081 530 1066 z "},"Z":{"ha":643,"x_min":39,"x_max":604,"o":"m 170 103 l 602 819 l 604 917 l 52 917 l 52 815 l 475 815 l 39 95 l 39 0 l 601 0 l 601 103 l 170 103 z "},"Ź":{"ha":643,"x_min":39,"x_max":604,"o":"m 170 103 l 602 819 l 604 917 l 52 917 l 52 815 l 475 815 l 39 95 l 39 0 l 601 0 l 601 103 l 170 103 m 515 1120 l 453 1206 l 233 1044 l 281 975 l 515 1120 z "},"Ž":{"ha":643,"x_min":39,"x_max":604,"o":"m 170 103 l 602 819 l 604 917 l 52 917 l 52 815 l 475 815 l 39 95 l 39 0 l 601 0 l 601 103 l 170 103 m 324 971 l 521 1131 l 473 1190 l 330 1082 l 183 1192 l 132 1130 l 324 971 z "},"Ż":{"ha":643,"x_min":39,"x_max":604,"o":"m 170 103 l 602 819 l 604 917 l 52 917 l 52 815 l 475 815 l 39 95 l 39 0 l 601 0 l 601 103 l 170 103 m 350 1028 q 382 1093 391 1050 q 378 1109 381 1101 q 316 1141 358 1153 q 304 1137 309 1139 q 273 1062 258 1111 q 275 1055 274 1058 q 335 1021 296 1010 q 350 1028 343 1024 z "},"a":{"ha":595,"x_min":26,"x_max":582,"o":"m 528 -15 q 582 -8 553 -15 l 578 75 q 557 73 570 73 q 502 122 510 73 q 499 159 499 138 l 499 476 q 377 677 499 631 q 285 692 335 692 q 50 624 163 690 l 91 541 q 264 598 187 598 q 385 492 374 598 q 387 471 387 481 l 387 396 q 312 399 335 399 q 58 297 129 399 q 26 191 26 250 q 126 8 26 61 q 227 -15 171 -15 q 385 57 323 -15 q 404 84 396 71 q 528 -15 426 -14 m 251 77 q 145 157 161 77 q 141 191 141 174 q 316 320 144 319 q 387 317 345 320 l 387 237 q 302 87 387 122 q 251 77 278 77 z "},"á":{"ha":595,"x_min":26,"x_max":582,"o":"m 528 -15 q 582 -8 553 -15 l 578 75 q 557 73 570 73 q 502 122 510 73 q 499 159 499 138 l 499 476 q 377 677 499 631 q 285 692 335 692 q 50 624 163 690 l 91 541 q 264 598 187 598 q 385 492 374 598 q 387 471 387 481 l 387 396 q 312 399 335 399 q 58 297 129 399 q 26 191 26 250 q 126 8 26 61 q 227 -15 171 -15 q 385 57 323 -15 q 404 84 396 71 q 528 -15 426 -14 m 251 77 q 145 157 161 77 q 141 191 141 174 q 316 320 144 319 q 387 317 345 320 l 387 237 q 302 87 387 122 q 251 77 278 77 m 472 914 l 410 1000 l 190 838 l 237 769 l 472 914 z "},"ă":{"ha":595,"x_min":26,"x_max":582,"o":"m 528 -15 q 582 -8 553 -15 l 578 75 q 557 73 570 73 q 502 122 510 73 q 499 159 499 138 l 499 476 q 377 677 499 631 q 285 692 335 692 q 50 624 163 690 l 91 541 q 264 598 187 598 q 385 492 374 598 q 387 471 387 481 l 387 396 q 312 399 335 399 q 58 297 129 399 q 26 191 26 250 q 126 8 26 61 q 227 -15 171 -15 q 385 57 323 -15 q 404 84 396 71 q 528 -15 426 -14 m 251 77 q 145 157 161 77 q 141 191 141 174 q 316 320 144 319 q 387 317 345 320 l 387 237 q 302 87 387 122 q 251 77 278 77 m 107 962 q 199 806 107 850 q 283 787 239 787 q 429 857 377 787 q 461 962 460 902 l 385 966 q 317 878 377 897 q 285 872 301 872 q 199 924 227 872 q 186 970 189 945 l 107 962 z "},"â":{"ha":595,"x_min":26,"x_max":582,"o":"m 528 -15 q 582 -8 553 -15 l 578 75 q 557 73 570 73 q 502 122 510 73 q 499 159 499 138 l 499 476 q 377 677 499 631 q 285 692 335 692 q 50 624 163 690 l 91 541 q 264 598 187 598 q 385 492 374 598 q 387 471 387 481 l 387 396 q 312 399 335 399 q 58 297 129 399 q 26 191 26 250 q 126 8 26 61 q 227 -15 171 -15 q 385 57 323 -15 q 404 84 396 71 q 528 -15 426 -14 m 251 77 q 145 157 161 77 q 141 191 141 174 q 316 320 144 319 q 387 317 345 320 l 387 237 q 302 87 387 122 q 251 77 278 77 m 290 983 l 96 829 l 144 769 l 286 873 l 431 766 l 483 830 l 290 983 z "},"´":{"ha":445,"x_min":99,"x_max":381,"o":"m 381 914 l 319 1000 l 99 838 l 146 769 l 381 914 z "},"ä":{"ha":595,"x_min":26,"x_max":582,"o":"m 528 -15 q 582 -8 553 -15 l 578 75 q 557 73 570 73 q 502 122 510 73 q 499 159 499 138 l 499 476 q 377 677 499 631 q 285 692 335 692 q 50 624 163 690 l 91 541 q 264 598 187 598 q 385 492 374 598 q 387 471 387 481 l 387 396 q 312 399 335 399 q 58 297 129 399 q 26 191 26 250 q 126 8 26 61 q 227 -15 171 -15 q 385 57 323 -15 q 404 84 396 71 q 528 -15 426 -14 m 251 77 q 145 157 161 77 q 141 191 141 174 q 316 320 144 319 q 387 317 345 320 l 387 237 q 302 87 387 122 q 251 77 278 77 m 224 875 q 178 944 224 930 q 159 947 168 947 q 94 899 107 947 q 91 875 91 887 q 138 803 91 817 q 157 800 148 800 q 218 845 203 800 q 224 875 224 860 m 476 875 q 429 944 476 930 q 408 947 418 947 q 347 901 361 947 q 343 875 343 888 q 388 803 343 818 q 408 800 399 800 q 471 845 456 800 q 476 875 476 860 z "},"æ":{"ha":954,"x_min":28,"x_max":917,"o":"m 662 604 q 798 477 770 604 q 804 403 804 442 l 503 401 q 617 595 522 562 q 662 604 639 604 m 903 47 l 869 125 q 697 79 779 79 q 522 203 570 79 q 500 317 503 254 l 917 317 l 917 354 q 666 693 914 692 q 468 590 543 692 q 288 692 411 686 q 53 624 163 690 l 94 541 q 267 598 189 598 q 388 492 377 598 q 389 471 389 481 l 389 396 q 313 399 338 399 q 61 297 133 399 q 28 191 28 251 q 129 8 28 58 q 229 -15 175 -15 q 389 53 323 -15 q 437 132 422 87 q 669 -15 509 -7 q 685 -15 677 -15 q 903 47 795 -14 m 254 77 q 146 157 163 77 q 142 191 142 174 q 317 320 145 319 q 389 317 345 320 l 389 237 q 307 88 389 123 q 254 77 281 77 z "},"à":{"ha":595,"x_min":26,"x_max":582,"o":"m 528 -15 q 582 -8 553 -15 l 578 75 q 557 73 570 73 q 502 122 510 73 q 499 159 499 138 l 499 476 q 377 677 499 631 q 285 692 335 692 q 50 624 163 690 l 91 541 q 264 598 187 598 q 385 492 374 598 q 387 471 387 481 l 387 396 q 312 399 335 399 q 58 297 129 399 q 26 191 26 250 q 126 8 26 61 q 227 -15 171 -15 q 385 57 323 -15 q 404 84 396 71 q 528 -15 426 -14 m 251 77 q 145 157 161 77 q 141 191 141 174 q 316 320 144 319 q 387 317 345 320 l 387 237 q 302 87 387 122 q 251 77 278 77 m 132 914 l 194 1000 l 414 838 l 366 769 l 132 914 z "},"ā":{"ha":595,"x_min":26,"x_max":582,"o":"m 528 -15 q 582 -8 553 -15 l 578 75 q 557 73 570 73 q 502 122 510 73 q 499 159 499 138 l 499 476 q 377 677 499 631 q 285 692 335 692 q 50 624 163 690 l 91 541 q 264 598 187 598 q 385 492 374 598 q 387 471 387 481 l 387 396 q 312 399 335 399 q 58 297 129 399 q 26 191 26 250 q 126 8 26 61 q 227 -15 171 -15 q 385 57 323 -15 q 404 84 396 71 q 528 -15 426 -14 m 251 77 q 145 157 161 77 q 141 191 141 174 q 316 320 144 319 q 387 317 345 320 l 387 237 q 302 87 387 122 q 251 77 278 77 m 107 918 l 107 829 l 461 829 l 461 918 l 107 918 z "},"&":{"ha":894,"x_min":65,"x_max":838,"o":"m 256 812 q 321 907 256 888 q 357 913 339 913 q 446 848 429 913 q 450 812 450 830 q 338 618 449 719 q 256 812 256 739 m 377 76 q 210 157 263 76 q 179 266 179 203 q 290 453 179 351 q 308 469 298 461 q 579 175 406 346 q 377 76 500 77 m 777 492 l 666 492 q 633 274 666 368 q 393 543 486 427 q 548 728 517 647 q 564 812 564 770 q 461 977 564 929 q 357 998 414 998 q 176 920 235 998 q 142 810 142 872 q 252 544 144 703 q 99 382 137 446 q 65 263 65 323 q 186 35 65 113 q 370 -15 264 -15 q 650 104 537 -14 q 707 49 669 85 q 764 -7 746 11 l 838 68 l 712 194 q 777 492 777 319 z "},"ං":{"ha":414,"x_min":33,"x_max":382,"o":"m 121 361 q 208 216 122 217 q 293 361 290 224 q 218 505 293 495 q 208 506 213 506 q 121 361 125 495 m 33 361 q 119 571 33 514 q 208 597 159 597 q 361 484 317 597 q 382 361 382 430 q 243 126 382 151 q 208 123 225 123 q 35 305 57 123 q 33 361 33 332 z "},"ą":{"ha":600,"x_min":26,"x_max":595,"o":"m 595 -260 l 590 -184 q 543 -191 568 -191 q 458 -142 473 -191 q 456 -122 456 -132 q 582 -9 456 -49 q 585 -8 583 -8 l 582 -8 l 578 75 q 557 73 570 73 q 502 122 510 73 q 499 159 499 138 l 499 476 q 377 677 499 631 q 285 692 335 692 q 50 624 163 690 l 91 541 q 264 598 187 598 q 385 492 374 598 q 387 471 387 481 l 387 396 q 312 399 335 399 q 58 297 129 399 q 26 191 26 250 q 126 8 26 61 q 227 -15 171 -15 q 385 57 323 -15 q 404 84 396 71 q 475 -7 420 12 q 361 -133 376 -56 q 358 -155 358 -145 q 430 -256 358 -225 q 515 -273 468 -273 q 595 -260 555 -273 m 251 77 q 145 157 161 77 q 141 191 141 174 q 316 320 144 319 q 387 317 345 320 l 387 237 q 302 87 387 122 q 251 77 278 77 z "},"≈":{"ha":707,"x_min":50,"x_max":655,"o":"m 484 473 q 357 511 444 473 q 224 547 275 547 q 50 458 134 545 l 107 396 q 224 445 167 445 q 354 407 267 445 q 484 372 434 372 q 654 464 578 373 l 597 524 q 484 473 545 473 m 486 263 q 358 301 445 263 q 225 336 277 336 q 52 248 136 335 l 109 186 q 225 233 167 233 q 355 195 269 233 q 486 161 435 161 q 655 252 578 163 l 598 313 q 486 263 547 263 z "},"å":{"ha":595,"x_min":26,"x_max":582,"o":"m 528 -15 q 582 -8 553 -15 l 578 75 q 557 73 570 73 q 502 122 510 73 q 499 159 499 138 l 499 476 q 377 677 499 631 q 285 692 335 692 q 50 624 163 690 l 91 541 q 264 598 187 598 q 385 492 374 598 q 387 471 387 481 l 387 396 q 312 399 335 399 q 58 297 129 399 q 26 191 26 250 q 126 8 26 61 q 227 -15 171 -15 q 385 57 323 -15 q 404 84 396 71 q 528 -15 426 -14 m 251 77 q 145 157 161 77 q 141 191 141 174 q 316 320 144 319 q 387 317 345 320 l 387 237 q 302 87 387 122 q 251 77 278 77 m 429 882 q 350 1015 429 978 q 289 1027 320 1027 q 167 963 208 1027 q 144 880 144 928 q 222 746 144 783 q 283 734 252 734 q 404 796 362 734 q 429 882 429 833 m 217 880 q 264 958 217 941 q 286 960 277 960 q 350 918 331 960 q 357 880 357 901 q 308 804 357 821 q 286 802 297 802 q 224 845 241 802 q 217 880 217 861 z "},"^":{"ha":701,"x_min":69,"x_max":632,"o":"m 351 930 l 69 526 l 138 481 l 350 791 l 560 483 l 632 530 l 351 930 z "},"~":{"ha":707,"x_min":52,"x_max":655,"o":"m 655 363 l 598 426 q 486 376 547 376 q 358 414 445 376 q 225 449 277 449 q 52 361 136 448 l 109 296 q 225 345 168 345 q 355 307 269 345 q 486 271 435 271 q 655 363 579 273 z "},"*":{"ha":496,"x_min":38,"x_max":452,"o":"m 266 810 l 289 914 q 263 981 301 968 q 197 970 235 989 l 228 810 l 266 810 m 220 802 l 126 856 q 53 852 77 888 q 43 787 38 827 l 208 768 l 220 802 m 213 758 l 132 686 q 114 616 87 650 q 172 587 132 594 l 241 735 l 213 758 m 254 734 l 297 635 q 355 594 316 585 q 404 643 384 604 l 282 755 l 254 734 m 286 766 l 392 777 q 449 819 446 781 q 418 880 450 848 l 275 802 l 286 766 z "},"@":{"ha":1051,"x_min":68,"x_max":989,"o":"m 774 -35 l 745 39 q 533 -1 640 -1 q 220 178 313 -1 q 167 425 167 281 q 289 743 168 624 q 547 845 392 845 q 818 719 723 845 q 891 475 891 621 q 777 217 891 236 q 754 216 765 216 q 705 262 709 216 q 704 281 704 271 l 704 533 q 597 697 704 663 q 528 708 564 708 q 336 655 419 707 l 369 583 q 511 628 448 628 q 608 530 606 625 l 608 473 q 545 476 564 476 q 331 377 381 476 q 315 305 315 345 q 401 156 315 197 q 479 140 438 140 q 618 210 567 140 q 624 218 621 214 q 746 140 644 141 q 954 281 891 140 q 989 476 989 362 q 830 836 989 712 q 547 926 715 926 q 184 766 320 928 q 68 426 68 625 q 222 20 68 157 q 524 -83 340 -83 q 774 -35 646 -84 m 498 217 q 420 270 439 217 q 415 307 415 288 q 549 408 418 407 q 608 407 589 408 l 608 343 q 533 222 608 245 q 498 217 515 217 z "},"ã":{"ha":595,"x_min":26,"x_max":582,"o":"m 528 -15 q 582 -8 553 -15 l 578 75 q 557 73 570 73 q 502 122 510 73 q 499 159 499 138 l 499 476 q 377 677 499 631 q 285 692 335 692 q 50 624 163 690 l 91 541 q 264 598 187 598 q 385 492 374 598 q 387 471 387 481 l 387 396 q 312 399 335 399 q 58 297 129 399 q 26 191 26 250 q 126 8 26 61 q 227 -15 171 -15 q 385 57 323 -15 q 404 84 396 71 q 528 -15 426 -14 m 251 77 q 145 157 161 77 q 141 191 141 174 q 316 320 144 319 q 387 317 345 320 l 387 237 q 302 87 387 122 q 251 77 278 77 m 368 891 q 283 921 342 891 q 205 943 237 943 q 71 875 140 941 l 119 819 q 205 856 163 856 q 294 826 232 856 q 376 804 342 804 q 499 876 445 806 l 450 929 q 368 891 414 892 z "},"b":{"ha":675,"x_min":99,"x_max":627,"o":"m 627 372 q 518 648 627 563 q 385 693 460 693 q 213 598 278 692 l 210 983 l 99 983 l 99 43 q 327 -15 212 -15 q 567 123 486 -15 q 627 372 627 225 m 210 107 l 210 392 q 296 585 210 536 q 361 602 326 602 q 484 514 442 602 q 511 370 511 454 q 412 103 511 170 q 327 77 374 77 q 210 107 270 79 z "},"\\":{"ha":540,"x_min":20,"x_max":518,"o":"m 415 -95 l 518 -94 l 121 983 l 20 983 l 415 -95 z "},"|":{"ha":395,"x_min":152,"x_max":243,"o":"m 155 983 l 152 -95 l 243 -95 l 243 983 l 155 983 z "},"{":{"ha":416,"x_min":57,"x_max":387,"o":"m 387 -248 l 382 -161 q 347 -163 370 -163 q 271 -110 282 -163 q 267 -68 267 -92 l 267 266 q 172 401 266 373 q 266 538 264 431 l 266 864 q 315 955 266 941 q 349 959 330 959 q 381 958 372 959 l 385 1046 q 308 1053 342 1053 q 168 956 191 1053 q 161 886 161 926 l 161 549 q 57 444 159 446 l 57 361 q 163 255 163 358 l 163 -90 q 254 -250 163 -227 q 308 -256 278 -256 q 387 -248 347 -256 z "},"}":{"ha":411,"x_min":24,"x_max":354,"o":"m 24 1043 l 28 956 q 64 958 41 958 q 140 905 129 958 q 144 863 144 887 l 144 529 q 239 393 145 422 q 145 256 146 363 l 145 -69 q 96 -160 145 -146 q 62 -164 81 -164 q 30 -163 39 -164 l 26 -251 q 103 -258 69 -258 q 243 -161 220 -258 q 250 -91 250 -130 l 250 245 q 354 351 252 349 l 354 434 q 248 540 248 437 l 248 884 q 157 1044 248 1021 q 103 1051 134 1051 q 24 1043 64 1051 z "},"[":{"ha":400,"x_min":113,"x_max":362,"o":"m 362 -241 l 362 -141 l 217 -141 l 217 937 l 362 937 l 362 1038 l 113 1038 l 113 -241 l 362 -241 z "},"]":{"ha":393,"x_min":31,"x_max":281,"o":"m 31 1044 l 31 944 l 176 944 l 176 -134 l 31 -134 l 31 -235 l 281 -235 l 281 1044 l 31 1044 z "},"˘":{"ha":532,"x_min":88,"x_max":442,"o":"m 88 962 q 180 806 88 850 q 264 787 220 787 q 410 857 358 787 q 442 962 441 902 l 366 966 q 298 878 358 897 q 266 872 282 872 q 180 924 208 872 q 167 970 170 945 l 88 962 z "},"¦":{"ha":395,"x_min":152,"x_max":243,"o":"m 155 316 l 152 -95 l 243 -95 l 243 316 l 155 316 m 155 983 l 152 574 l 243 574 l 243 983 l 155 983 z "},"•":{"ha":465,"x_min":94,"x_max":372,"o":"m 372 399 q 307 521 372 480 q 232 543 273 543 q 115 476 155 543 q 94 399 94 441 q 157 278 94 319 q 232 256 191 256 q 353 324 313 256 q 372 399 372 359 z "},"c":{"ha":541,"x_min":43,"x_max":538,"o":"m 526 49 l 494 127 q 335 80 403 80 q 171 232 205 80 q 160 339 160 279 q 263 589 160 545 q 315 600 288 600 q 448 492 401 598 l 538 529 q 316 692 475 690 q 92 560 167 692 q 43 340 43 469 q 174 24 43 110 q 312 -15 235 -15 q 526 49 415 -14 z "},"ć":{"ha":541,"x_min":43,"x_max":538,"o":"m 526 49 l 494 127 q 335 80 403 80 q 171 232 205 80 q 160 339 160 279 q 263 589 160 545 q 315 600 288 600 q 448 492 401 598 l 538 529 q 316 692 475 690 q 92 560 167 692 q 43 340 43 469 q 174 24 43 110 q 312 -15 235 -15 q 526 49 415 -14 m 507 914 l 445 1000 l 225 838 l 273 769 l 507 914 z "},"ˇ":{"ha":609,"x_min":110,"x_max":499,"o":"m 302 765 l 499 925 l 452 983 l 308 876 l 161 986 l 110 924 l 302 765 z "},"č":{"ha":541,"x_min":43,"x_max":538,"o":"m 526 49 l 494 127 q 335 80 403 80 q 171 232 205 80 q 160 339 160 279 q 263 589 160 545 q 315 600 288 600 q 448 492 401 598 l 538 529 q 316 692 475 690 q 92 560 167 692 q 43 340 43 469 q 174 24 43 110 q 312 -15 235 -15 q 526 49 415 -14 m 317 765 l 514 925 l 467 983 l 323 876 l 176 986 l 125 924 l 317 765 z "},"ç":{"ha":541,"x_min":43,"x_max":538,"o":"m 267 -275 q 425 -201 380 -275 q 442 -138 442 -171 q 363 -18 442 -61 q 354 -12 358 -15 q 526 49 437 -1 l 494 127 q 335 80 403 80 q 171 232 205 80 q 160 339 160 279 q 263 589 160 545 q 315 600 288 600 q 448 492 401 598 l 538 529 q 316 692 475 690 q 92 560 167 692 q 43 340 43 469 q 175 23 43 109 q 264 -11 216 -3 q 355 -115 349 -57 q 285 -189 355 -175 q 252 -191 269 -191 q 209 -187 231 -191 l 206 -269 q 267 -275 232 -275 z "},"¸":{"ha":522,"x_min":149,"x_max":385,"o":"m 210 -275 q 368 -201 323 -275 q 385 -138 385 -171 q 307 -16 385 -61 q 243 7 277 -1 l 161 5 q 294 -90 270 -24 q 298 -115 298 -103 q 228 -189 298 -175 q 195 -191 212 -191 q 152 -187 174 -191 l 149 -269 q 210 -275 175 -275 z "},"¢":{"ha":586,"x_min":46,"x_max":540,"o":"m 528 76 l 495 155 q 338 107 406 107 q 175 240 214 107 q 161 353 161 289 q 252 583 161 532 q 316 600 282 600 q 449 492 403 598 l 540 533 q 350 690 479 673 l 350 792 l 271 792 l 271 688 q 80 532 138 666 q 46 354 46 454 q 171 53 46 138 q 271 15 216 23 l 271 -94 l 350 -94 l 350 14 q 528 76 438 24 z "},"ˆ":{"ha":609,"x_min":111,"x_max":498,"o":"m 305 983 l 111 829 l 159 769 l 301 873 l 446 766 l 498 830 l 305 983 z "},":":{"ha":309,"x_min":79,"x_max":229,"o":"m 229 467 q 178 545 229 529 q 153 548 165 548 q 83 498 99 548 q 79 467 79 483 q 132 384 79 400 q 153 381 142 381 q 224 431 206 381 q 229 467 229 448 m 229 72 q 178 151 229 134 q 153 153 165 153 q 83 103 99 153 q 79 72 79 88 q 132 -11 79 5 q 153 -14 142 -14 q 224 37 206 -14 q 229 72 229 53 z "},",":{"ha":270,"x_min":39,"x_max":209,"o":"m 209 60 q 153 151 209 132 q 126 155 140 155 q 54 110 76 155 q 46 68 46 90 q 95 -8 46 12 q 104 -11 100 -9 q 39 -156 95 -71 l 84 -187 q 202 11 176 -96 q 209 60 209 38 z "},"©":{"ha":1038,"x_min":56,"x_max":989,"o":"m 989 465 q 841 818 989 684 q 525 936 709 936 q 197 808 330 936 q 56 463 56 673 q 208 106 56 240 q 521 -9 338 -9 q 848 117 713 -11 q 989 465 989 252 m 716 218 l 681 285 q 536 240 601 240 q 389 358 423 240 q 377 456 377 401 q 475 674 377 636 q 524 684 496 684 q 648 589 605 682 l 728 618 q 549 761 677 747 q 525 762 537 762 q 328 652 396 762 q 278 456 278 572 q 391 201 278 278 q 526 160 450 160 q 716 218 620 161 m 153 465 q 285 773 153 662 q 522 857 385 857 q 792 739 686 859 q 891 464 890 629 q 761 153 891 264 q 525 69 661 69 q 248 190 355 69 q 153 465 153 300 z "},"¤":{"ha":718,"x_min":46,"x_max":666,"o":"m 643 338 q 578 551 642 465 l 666 661 l 602 711 l 521 606 q 359 652 449 652 q 194 604 263 651 l 110 711 l 46 662 l 136 549 q 66 338 66 460 q 130 126 68 210 l 46 20 l 110 -28 l 189 72 q 350 26 255 26 q 521 77 450 27 l 604 -28 l 666 22 l 578 132 q 643 338 643 216 m 182 338 q 254 521 182 458 q 357 560 298 560 q 505 457 458 560 q 528 338 528 403 q 453 152 528 213 q 354 118 410 118 q 203 222 250 118 q 182 338 182 274 z "},"d":{"ha":671,"x_min":46,"x_max":633,"o":"m 313 76 q 190 171 232 76 q 161 321 161 235 q 256 574 161 507 q 346 601 296 601 q 464 574 408 601 l 464 278 q 373 88 464 132 q 313 76 345 76 m 464 983 l 464 673 q 342 693 404 693 q 99 544 179 693 q 46 313 46 446 q 148 37 46 126 q 288 -15 209 -15 q 472 91 406 -14 q 633 -9 490 -35 l 629 73 q 578 104 586 69 q 575 137 575 118 l 575 983 l 464 983 z "},"†":{"ha":614,"x_min":38,"x_max":576,"o":"m 354 -75 l 368 351 l 355 602 l 576 597 l 576 690 l 355 685 l 368 944 l 247 944 l 259 685 l 38 690 l 38 597 l 259 602 l 247 351 l 260 -75 l 354 -75 z "},"‡":{"ha":614,"x_min":38,"x_max":576,"o":"m 576 179 l 576 273 l 355 267 l 368 438 l 355 602 l 576 597 l 576 690 l 355 685 l 368 944 l 247 944 l 259 685 l 38 690 l 38 597 l 259 602 l 247 438 l 259 267 l 38 273 l 38 179 l 259 184 l 247 -75 l 368 -75 l 355 184 l 576 179 z "},"ď":{"ha":746,"x_min":46,"x_max":781,"o":"m 313 76 q 190 171 232 76 q 161 321 161 235 q 256 574 161 507 q 346 601 296 601 q 464 574 408 601 l 464 278 q 373 88 464 132 q 313 76 345 76 m 464 983 l 464 673 q 342 693 404 693 q 99 544 179 693 q 46 313 46 446 q 148 37 46 126 q 288 -15 209 -15 q 472 91 406 -14 q 633 -9 490 -35 l 629 73 q 578 104 586 69 q 575 137 575 118 l 575 983 l 464 983 m 781 873 q 731 954 781 937 q 708 956 719 956 q 644 916 662 956 q 637 880 637 899 q 682 812 637 830 q 689 811 686 811 q 631 684 681 760 l 670 655 q 776 836 754 738 q 781 873 780 856 z "},"đ":{"ha":665,"x_min":46,"x_max":662,"o":"m 264 860 l 264 781 l 464 781 l 464 673 q 342 693 404 693 q 99 544 179 693 q 46 313 46 446 q 148 37 46 126 q 288 -15 209 -15 q 472 91 406 -14 q 633 -9 490 -35 l 629 73 q 578 104 586 69 q 575 137 575 118 l 575 781 l 662 781 l 662 860 l 575 860 l 575 983 l 464 983 l 464 860 l 264 860 m 313 76 q 190 171 232 76 q 161 321 161 235 q 256 574 161 507 q 346 601 296 601 q 464 574 408 601 l 464 278 q 373 88 464 132 q 313 76 345 76 z "},"°":{"ha":491,"x_min":62,"x_max":429,"o":"m 247 1006 q 98 935 152 1006 q 62 817 62 884 q 155 656 62 704 q 241 636 195 636 q 392 707 338 636 q 429 821 429 755 q 336 985 429 936 q 247 1006 294 1006 m 244 716 q 159 769 184 716 q 148 823 148 792 q 210 920 148 897 q 245 926 228 926 q 331 872 305 926 q 343 817 343 848 q 283 723 343 747 q 244 716 263 716 z "},"¨":{"ha":591,"x_min":103,"x_max":488,"o":"m 236 875 q 190 944 236 930 q 171 947 180 947 q 106 899 119 947 q 103 875 103 887 q 151 803 103 817 q 170 800 160 800 q 231 845 216 800 q 236 875 236 860 m 488 875 q 441 944 488 930 q 420 947 430 947 q 359 901 373 947 q 355 875 355 888 q 400 803 355 818 q 420 800 411 800 q 483 845 468 800 q 488 875 488 860 z "},"÷":{"ha":727,"x_min":54,"x_max":673,"o":"m 673 308 l 673 404 l 54 404 l 54 308 l 673 308 m 437 132 q 387 206 437 191 q 363 210 374 210 q 294 161 311 210 q 290 132 290 148 q 342 52 290 66 q 362 49 353 49 q 431 99 415 49 q 437 132 437 115 m 437 581 q 387 656 437 642 q 363 661 374 661 q 294 612 311 661 q 290 581 290 597 q 340 502 290 517 q 362 498 351 498 q 431 548 415 498 q 437 581 437 564 z "},"$":{"ha":715,"x_min":96,"x_max":621,"o":"m 410 -125 l 410 -9 q 595 121 543 14 q 621 239 621 175 q 496 448 621 373 q 363 513 477 460 q 241 610 264 560 q 231 661 231 633 q 313 788 231 754 q 378 800 345 800 q 534 711 487 799 l 621 757 q 439 892 574 871 q 410 897 425 895 l 410 1008 l 328 1008 l 328 892 q 146 776 202 872 q 115 656 115 722 q 236 449 115 524 q 368 385 256 437 q 492 286 467 338 q 505 228 505 259 q 418 96 505 129 q 353 85 388 85 q 145 153 247 87 l 96 71 q 328 -15 205 -5 l 328 -125 l 410 -125 z "},"˙":{"ha":334,"x_min":98,"x_max":231,"o":"m 190 822 q 222 887 231 844 q 218 903 221 897 q 156 935 198 947 q 144 930 149 933 q 113 856 98 905 q 115 849 114 852 q 175 815 136 804 q 190 822 183 818 z "},"ı":{"ha":307,"x_min":98,"x_max":209,"o":"m 209 0 l 209 678 l 98 678 l 98 0 l 209 0 z "},"◌":{"ha":914,"x_min":38,"x_max":876,"o":"m 85 225 q 123 283 85 267 q 149 289 137 289 q 206 252 189 289 q 213 225 213 239 q 174 167 213 183 q 149 161 161 161 q 91 199 107 161 q 85 225 85 213 m 216 95 q 254 153 216 137 q 279 159 267 159 q 338 121 321 159 q 343 95 343 107 q 305 37 343 53 q 279 31 292 31 q 221 69 237 31 q 216 95 216 83 m 701 225 q 739 283 701 267 q 765 289 753 289 q 823 251 807 289 q 829 225 829 237 q 791 167 829 183 q 765 161 777 161 q 707 199 723 161 q 701 225 701 213 m 571 95 q 609 153 571 137 q 635 159 623 159 q 692 121 675 159 q 697 95 697 109 q 659 37 697 53 q 635 31 647 31 q 576 69 593 31 q 571 95 571 83 m 85 581 q 123 639 85 623 q 149 644 137 644 q 206 608 189 644 q 213 581 213 594 q 174 522 213 538 q 149 517 161 517 q 91 555 107 517 q 85 581 85 568 m 216 711 q 254 769 216 753 q 279 774 267 774 q 338 736 321 774 q 343 711 343 723 q 305 652 343 669 q 279 647 292 647 q 221 685 237 647 q 216 711 216 699 m 701 581 q 739 639 701 623 q 765 644 753 644 q 823 606 807 644 q 829 581 829 593 q 791 522 829 538 q 765 517 777 517 q 707 555 723 517 q 701 581 701 568 m 571 711 q 609 769 571 753 q 635 774 623 774 q 692 736 675 774 q 697 711 697 724 q 659 652 697 669 q 635 647 647 647 q 576 685 593 647 q 571 711 571 699 m 38 403 q 76 461 38 445 q 102 467 90 467 q 160 429 144 467 q 165 403 165 415 q 127 345 165 361 q 102 339 114 339 q 43 377 60 339 q 38 403 38 391 m 749 403 q 787 461 749 445 q 812 467 800 467 q 871 429 854 467 q 876 403 876 415 q 838 345 876 361 q 812 339 825 339 q 754 377 770 339 q 749 403 749 391 m 393 758 q 431 817 393 800 q 457 822 445 822 q 515 784 499 822 q 521 758 521 770 q 483 700 521 716 q 457 694 469 694 q 399 732 415 694 q 393 758 393 746 m 393 47 q 431 106 393 90 q 457 111 445 111 q 515 73 499 111 q 521 47 521 60 q 483 -11 521 5 q 457 -16 469 -16 q 399 22 415 -16 q 393 47 393 35 z "},"e":{"ha":617,"x_min":49,"x_max":582,"o":"m 567 47 l 534 125 q 362 79 444 79 q 187 202 235 79 q 165 316 168 252 l 582 316 l 582 354 q 327 693 579 692 q 106 571 183 693 q 49 343 49 479 q 183 33 49 123 q 350 -15 255 -15 q 567 47 458 -14 m 327 604 q 461 477 434 604 q 468 403 468 442 l 168 401 q 286 597 187 566 q 327 604 307 604 z "},"é":{"ha":617,"x_min":49,"x_max":582,"o":"m 567 47 l 534 125 q 362 79 444 79 q 187 202 235 79 q 165 316 168 252 l 582 316 l 582 354 q 327 693 579 692 q 106 571 183 693 q 49 343 49 479 q 183 33 49 123 q 350 -15 255 -15 q 567 47 458 -14 m 327 604 q 461 477 434 604 q 468 403 468 442 l 168 401 q 286 597 187 566 q 327 604 307 604 m 521 914 l 458 1000 l 239 838 l 286 769 l 521 914 z "},"ě":{"ha":617,"x_min":49,"x_max":582,"o":"m 567 47 l 534 125 q 362 79 444 79 q 187 202 235 79 q 165 316 168 252 l 582 316 l 582 354 q 327 693 579 692 q 106 571 183 693 q 49 343 49 479 q 183 33 49 123 q 350 -15 255 -15 q 567 47 458 -14 m 327 604 q 461 477 434 604 q 468 403 468 442 l 168 401 q 286 597 187 566 q 327 604 307 604 m 331 765 l 528 925 l 480 983 l 336 876 l 190 986 l 138 924 l 331 765 z "},"ê":{"ha":617,"x_min":49,"x_max":582,"o":"m 567 47 l 534 125 q 362 79 444 79 q 187 202 235 79 q 165 316 168 252 l 582 316 l 582 354 q 327 693 579 692 q 106 571 183 693 q 49 343 49 479 q 183 33 49 123 q 350 -15 255 -15 q 567 47 458 -14 m 327 604 q 461 477 434 604 q 468 403 468 442 l 168 401 q 286 597 187 566 q 327 604 307 604 m 339 983 l 145 829 l 193 769 l 335 873 l 480 766 l 532 830 l 339 983 z "},"ë":{"ha":617,"x_min":49,"x_max":582,"o":"m 567 47 l 534 125 q 362 79 444 79 q 187 202 235 79 q 165 316 168 252 l 582 316 l 582 354 q 327 693 579 692 q 106 571 183 693 q 49 343 49 479 q 183 33 49 123 q 350 -15 255 -15 q 567 47 458 -14 m 327 604 q 461 477 434 604 q 468 403 468 442 l 168 401 q 286 597 187 566 q 327 604 307 604 m 274 875 q 228 944 274 930 q 209 947 218 947 q 144 899 157 947 q 141 875 141 887 q 189 803 141 817 q 208 800 198 800 q 269 845 254 800 q 274 875 274 860 m 526 875 q 479 944 526 930 q 458 947 468 947 q 397 901 411 947 q 393 875 393 888 q 438 803 393 818 q 458 800 449 800 q 521 845 506 800 q 526 875 526 860 z "},"ė":{"ha":617,"x_min":49,"x_max":582,"o":"m 567 47 l 534 125 q 362 79 444 79 q 187 202 235 79 q 165 316 168 252 l 582 316 l 582 354 q 327 693 579 692 q 106 571 183 693 q 49 343 49 479 q 183 33 49 123 q 350 -15 255 -15 q 567 47 458 -14 m 327 604 q 461 477 434 604 q 468 403 468 442 l 168 401 q 286 597 187 566 q 327 604 307 604 m 357 822 q 389 887 397 844 q 385 903 388 895 q 323 935 365 947 q 311 930 316 933 q 279 856 264 905 q 282 849 281 852 q 342 815 302 804 q 357 822 350 818 z "},"è":{"ha":617,"x_min":49,"x_max":582,"o":"m 567 47 l 534 125 q 362 79 444 79 q 187 202 235 79 q 165 316 168 252 l 582 316 l 582 354 q 327 693 579 692 q 106 571 183 693 q 49 343 49 479 q 183 33 49 123 q 350 -15 255 -15 q 567 47 458 -14 m 327 604 q 461 477 434 604 q 468 403 468 442 l 168 401 q 286 597 187 566 q 327 604 307 604 m 182 914 l 244 1000 l 464 838 l 416 769 l 182 914 z "},"…":{"ha":849,"x_min":69,"x_max":772,"o":"m 496 72 q 445 151 496 134 q 420 153 433 153 q 350 103 366 153 q 346 72 346 88 q 399 -11 346 5 q 420 -14 410 -14 q 491 37 473 -14 q 496 72 496 53 m 772 72 q 720 151 772 134 q 696 153 708 153 q 625 103 642 153 q 621 72 621 88 q 674 -11 621 5 q 696 -14 685 -14 q 766 37 749 -14 q 772 72 772 53 m 220 72 q 168 151 220 134 q 144 153 156 153 q 73 103 90 153 q 69 72 69 88 q 122 -11 69 5 q 144 -14 133 -14 q 214 37 197 -14 q 220 72 220 53 z "},"ē":{"ha":617,"x_min":49,"x_max":582,"o":"m 567 47 l 534 125 q 362 79 444 79 q 187 202 235 79 q 165 316 168 252 l 582 316 l 582 354 q 327 693 579 692 q 106 571 183 693 q 49 343 49 479 q 183 33 49 123 q 350 -15 255 -15 q 567 47 458 -14 m 327 604 q 461 477 434 604 q 468 403 468 442 l 168 401 q 286 597 187 566 q 327 604 307 604 m 156 918 l 156 829 l 510 829 l 510 918 l 156 918 z "},"—":{"ha":1356,"x_min":-1,"x_max":1358,"o":"m -1 454 l -1 355 l 1358 355 l 1358 454 l -1 454 z "},"–":{"ha":678,"x_min":-1,"x_max":680,"o":"m -1 454 l -1 355 l 680 355 l 680 454 l -1 454 z "},"ę":{"ha":614,"x_min":49,"x_max":582,"o":"m 560 -264 l 555 -189 q 507 -195 528 -195 q 425 -138 435 -195 q 423 -122 423 -130 q 513 15 423 -52 q 533 30 524 23 q 567 47 562 45 l 534 125 q 362 79 444 79 q 187 202 235 79 q 165 316 168 252 l 582 316 l 582 354 q 327 693 579 692 q 106 571 183 693 q 49 343 49 479 q 183 33 49 123 q 350 -15 255 -15 q 403 -11 376 -15 q 326 -152 327 -73 q 400 -262 326 -229 q 477 -275 434 -275 q 560 -264 518 -275 m 327 604 q 461 477 434 604 q 468 403 468 442 l 168 401 q 286 597 187 566 q 327 604 307 604 z "},"=":{"ha":757,"x_min":92,"x_max":665,"o":"m 665 404 l 665 498 l 92 498 l 92 404 l 665 404 m 665 198 l 665 292 l 92 292 l 92 198 l 665 198 z "},"℮":{"ha":968,"x_min":61,"x_max":920,"o":"m 248 132 l 248 483 l 920 483 q 760 848 920 723 q 503 933 648 933 q 155 761 278 933 q 61 457 61 631 q 197 103 61 236 q 491 -14 316 -14 q 807 98 669 -14 q 859 146 836 121 l 826 180 q 568 41 726 68 q 495 34 530 34 q 248 132 347 35 m 734 804 l 734 530 l 248 530 l 248 787 q 505 886 349 886 q 734 804 643 884 z "},"ð":{"ha":671,"x_min":45,"x_max":625,"o":"m 625 431 q 480 890 625 739 q 472 898 476 894 l 566 964 l 519 1025 l 408 948 q 227 996 328 996 q 98 975 163 996 l 122 894 q 217 906 170 906 q 321 887 274 906 l 206 806 l 251 742 l 393 842 q 509 557 492 753 q 350 650 458 642 q 330 651 339 651 q 104 533 186 651 q 45 319 45 444 q 157 42 45 132 q 332 -15 231 -15 q 625 431 624 -12 m 161 317 q 241 525 161 460 q 338 559 283 559 q 494 438 453 559 q 511 323 511 387 q 426 107 511 170 q 335 79 385 79 q 183 190 228 79 q 161 317 161 245 z "},"!":{"ha":332,"x_min":90,"x_max":240,"o":"m 229 955 l 98 955 l 117 243 l 210 243 l 229 955 m 240 72 q 189 151 240 134 q 164 153 176 153 q 94 103 110 153 q 90 72 90 88 q 142 -11 90 5 q 164 -14 153 -14 q 235 37 217 -14 q 240 72 240 53 z "},"¡":{"ha":332,"x_min":92,"x_max":243,"o":"m 103 -275 l 235 -275 l 216 437 l 122 437 l 103 -275 m 92 608 q 144 529 92 545 q 168 526 156 526 q 239 576 222 526 q 243 608 243 591 q 190 690 243 674 q 168 693 179 693 q 98 643 115 693 q 92 608 92 627 z "},"f":{"ha":423,"x_min":41,"x_max":450,"o":"m 408 593 l 408 678 l 244 678 l 244 784 q 316 903 244 894 q 328 905 323 905 q 412 879 369 903 l 450 956 q 308 998 377 998 q 153 903 197 998 q 133 799 133 859 l 133 678 l 41 678 l 41 593 l 133 593 l 133 0 l 244 0 l 244 593 l 408 593 z "},"ﬁ":{"ha":700,"x_min":39,"x_max":623,"o":"m 241 0 l 241 593 l 490 593 l 490 0 l 601 0 l 601 678 l 241 678 l 241 784 q 327 905 252 897 q 385 891 353 905 l 422 967 q 302 998 359 998 q 151 905 194 998 q 130 799 130 860 l 130 678 l 39 678 l 39 593 l 130 593 l 130 0 l 241 0 m 623 875 q 572 952 623 936 q 547 956 560 956 q 476 905 492 956 q 472 875 472 890 q 521 796 472 814 q 547 792 534 792 q 616 838 597 792 q 623 875 623 856 z "},"ﬂ":{"ha":745,"x_min":39,"x_max":730,"o":"m 393 593 l 393 678 l 241 678 l 241 784 q 327 905 252 897 q 385 891 353 905 l 422 967 q 302 998 359 998 q 151 905 194 998 q 130 799 130 860 l 130 678 l 39 678 l 39 593 l 130 593 l 130 0 l 241 0 l 241 593 l 393 593 m 730 3 l 707 87 q 661 77 681 77 q 604 155 605 80 l 604 983 l 492 983 l 492 144 q 601 -11 492 9 q 636 -14 618 -14 q 730 3 681 -14 z "},"ƒ":{"ha":586,"x_min":-75,"x_max":579,"o":"m 236 -91 l 311 481 l 488 481 l 488 567 l 323 567 l 350 779 q 464 905 369 903 q 547 886 499 905 l 579 970 q 454 998 514 998 q 274 895 332 998 q 241 795 250 850 l 212 567 l 68 567 l 68 481 l 199 481 l 126 -73 q 28 -195 107 -194 q -37 -178 -3 -194 l -75 -259 q 42 -289 -9 -289 q 206 -187 152 -289 q 236 -91 228 -145 z "},"⁄":{"ha":747,"x_min":34,"x_max":703,"o":"m 140 -15 l 34 -14 l 600 997 l 703 997 l 140 -15 z "},"g":{"ha":643,"x_min":45,"x_max":620,"o":"m 316 289 q 203 357 240 289 q 184 442 184 393 q 260 589 184 553 q 313 601 286 601 q 425 530 389 601 q 444 442 444 492 q 366 300 444 334 q 316 289 343 289 m 316 689 q 119 594 187 689 q 75 441 75 530 q 159 252 76 319 q 85 134 85 209 q 146 33 87 68 q 45 -119 46 -37 q 159 -266 45 -221 q 300 -289 221 -289 q 572 -186 491 -289 q 612 -71 612 -134 q 511 80 612 34 q 374 104 454 106 l 250 103 q 179 141 191 102 q 178 155 178 148 q 227 216 180 194 q 315 201 270 201 q 507 292 439 201 q 553 442 553 354 q 500 604 552 536 l 620 600 l 620 688 l 385 680 q 316 689 354 689 m 311 -199 q 157 -133 187 -199 q 149 -98 149 -115 q 227 11 151 -35 l 243 11 l 363 14 q 496 -46 471 15 q 502 -77 502 -61 q 404 -187 502 -157 q 311 -199 362 -199 z "},"ğ":{"ha":643,"x_min":45,"x_max":620,"o":"m 316 289 q 203 357 240 289 q 184 442 184 393 q 260 589 184 553 q 313 601 286 601 q 425 530 389 601 q 444 442 444 492 q 366 300 444 334 q 316 289 343 289 m 316 689 q 119 594 187 689 q 75 441 75 530 q 159 252 76 319 q 85 134 85 209 q 146 33 87 68 q 45 -119 46 -37 q 159 -266 45 -221 q 300 -289 221 -289 q 572 -186 491 -289 q 612 -71 612 -134 q 511 80 612 34 q 374 104 454 106 l 250 103 q 179 141 191 102 q 178 155 178 148 q 227 216 180 194 q 315 201 270 201 q 507 292 439 201 q 553 442 553 354 q 500 604 552 536 l 620 600 l 620 688 l 385 680 q 316 689 354 689 m 311 -199 q 157 -133 187 -199 q 149 -98 149 -115 q 227 11 151 -35 l 243 11 l 363 14 q 496 -46 471 15 q 502 -77 502 -61 q 404 -187 502 -157 q 311 -199 362 -199 m 140 962 q 232 806 140 850 q 316 787 271 787 q 461 857 410 787 q 494 962 492 902 l 418 966 q 350 878 410 897 q 317 872 334 872 q 232 924 259 872 q 218 970 221 945 l 140 962 z "},"ß":{"ha":773,"x_min":39,"x_max":724,"o":"m 724 193 q 617 389 724 301 q 568 426 601 401 q 479 510 495 480 q 471 544 471 528 q 528 632 471 585 q 606 704 591 685 q 647 817 647 754 q 536 971 647 921 q 400 998 475 998 q 182 909 256 998 q 130 758 130 848 l 130 678 l 39 678 l 39 593 l 130 593 l 130 0 l 241 0 l 241 751 q 335 906 241 875 q 389 914 361 914 q 519 861 480 914 q 537 810 537 838 q 476 703 537 751 q 454 686 469 697 q 373 601 392 637 q 359 534 359 570 q 449 380 359 450 q 494 346 463 368 q 595 251 572 288 q 613 186 613 220 q 552 83 613 110 q 514 75 533 75 q 385 118 458 76 l 350 39 q 517 -15 435 -15 q 675 56 614 -15 q 724 193 724 111 z "},"`":{"ha":456,"x_min":100,"x_max":382,"o":"m 100 914 l 163 1000 l 382 838 l 335 769 l 100 914 z "},">":{"ha":589,"x_min":83,"x_max":526,"o":"m 526 345 l 161 709 l 83 636 l 388 343 l 84 39 l 164 -30 l 526 345 z "},"≥":{"ha":575,"x_min":76,"x_max":510,"o":"m 510 444 l 141 723 l 76 646 l 361 444 l 76 235 l 136 159 l 510 444 m 502 15 l 502 113 l 84 113 l 84 15 l 502 15 z "},"«":{"ha":666,"x_min":56,"x_max":586,"o":"m 328 560 l 251 618 l 56 358 l 247 96 l 326 156 l 175 359 l 328 560 m 586 559 l 510 618 l 305 358 l 506 96 l 583 157 l 425 359 l 586 559 z "},"»":{"ha":663,"x_min":57,"x_max":587,"o":"m 315 155 l 392 96 l 587 357 l 396 618 l 317 559 l 468 355 l 315 155 m 57 156 l 133 96 l 338 357 l 137 618 l 60 557 l 218 355 l 57 156 z "},"‹":{"ha":373,"x_min":38,"x_max":319,"o":"m 319 557 l 239 618 l 38 358 l 235 96 l 316 159 l 160 359 l 319 557 z "},"›":{"ha":373,"x_min":54,"x_max":335,"o":"m 54 156 l 134 95 l 335 355 l 138 617 l 57 555 l 213 354 l 54 156 z "},"h":{"ha":694,"x_min":98,"x_max":652,"o":"m 648 73 q 594 109 601 69 q 591 138 591 121 l 591 461 q 479 677 591 627 q 395 693 441 693 q 209 585 277 692 l 210 983 l 98 983 l 98 0 l 210 0 l 210 376 q 297 585 210 530 q 363 604 328 604 q 473 511 450 604 q 480 452 480 483 l 480 130 q 652 -9 483 -38 l 648 73 z "},"˝":{"ha":665,"x_min":88,"x_max":608,"o":"m 353 928 l 288 1002 l 88 829 l 138 769 l 353 928 m 608 928 l 541 1002 l 342 829 l 393 769 l 608 928 z "},"-":{"ha":445,"x_min":60,"x_max":385,"o":"m 60 408 l 60 320 l 385 320 l 385 408 l 60 408 z "},"i":{"ha":307,"x_min":79,"x_max":229,"o":"m 209 0 l 209 678 l 98 678 l 98 0 l 209 0 m 229 875 q 179 952 229 936 q 153 956 167 956 q 84 907 100 956 q 79 875 79 891 q 127 796 79 814 q 153 792 141 792 q 224 841 206 792 q 229 875 229 857 z "},"í":{"ha":307,"x_min":56,"x_max":338,"o":"m 209 0 l 209 678 l 98 678 l 98 0 l 209 0 m 338 914 l 275 1000 l 56 838 l 103 769 l 338 914 z "},"î":{"ha":307,"x_min":-19,"x_max":332,"o":"m 160 983 l -19 826 l 33 769 l 155 872 l 278 766 l 332 827 l 160 983 m 209 0 l 209 678 l 98 678 l 98 0 l 209 0 z "},"ï":{"ha":307,"x_min":-22,"x_max":328,"o":"m 111 875 q 65 944 111 930 q 46 947 56 947 q -19 899 -5 947 q -22 875 -22 887 q 26 803 -22 817 q 45 800 35 800 q 106 845 91 800 q 111 875 111 860 m 328 875 q 282 944 328 930 q 262 947 271 947 q 199 903 216 947 q 195 875 195 890 q 240 803 195 818 q 260 800 251 800 q 324 849 311 800 q 328 875 328 861 m 209 0 l 209 678 l 98 678 l 98 0 l 209 0 z "},"ì":{"ha":307,"x_min":-15,"x_max":267,"o":"m 209 0 l 209 678 l 98 678 l 98 0 l 209 0 m -15 914 l 47 1000 l 267 838 l 220 769 l -15 914 z "},"ī":{"ha":307,"x_min":1,"x_max":305,"o":"m 1 918 l 1 829 l 305 829 l 305 918 l 1 918 m 209 0 l 209 678 l 98 678 l 98 0 l 209 0 z "},"∞":{"ha":1156,"x_min":62,"x_max":1093,"o":"m 857 141 q 1055 243 990 141 q 1093 374 1093 301 q 1010 555 1093 491 q 869 598 952 598 q 648 496 773 598 q 583 441 633 483 q 342 594 446 574 q 297 598 319 598 q 99 495 164 598 q 62 365 62 437 q 148 184 62 247 q 292 141 206 141 q 526 254 391 141 q 575 296 544 269 q 829 142 722 156 q 857 141 844 141 m 856 239 q 684 340 791 239 q 648 376 669 355 q 803 488 754 468 q 859 500 833 500 q 967 429 935 500 q 979 368 979 399 q 920 255 979 289 q 856 239 891 239 m 302 239 q 190 313 221 239 q 178 373 178 342 q 235 483 178 449 q 298 500 263 500 q 467 401 359 500 q 507 362 483 387 q 353 250 400 269 q 302 239 326 239 z "},"∫":{"ha":422,"x_min":18,"x_max":389,"o":"m 271 -39 q 247 681 271 60 q 244 770 245 732 q 304 924 240 899 q 331 929 317 929 q 369 922 353 929 l 389 1013 q 312 1025 346 1025 q 149 903 194 1025 q 130 776 130 848 q 155 56 130 677 q 157 -34 156 3 q 75 -195 160 -194 q 33 -187 54 -195 l 18 -278 q 90 -290 52 -290 q 247 -179 199 -290 q 271 -39 271 -118 z "},"į":{"ha":307,"x_min":-7,"x_max":227,"o":"m 176 822 q 209 887 217 844 q 205 903 208 897 q 142 935 184 947 q 130 930 136 933 q 99 856 84 905 q 102 849 100 852 q 161 815 122 804 q 176 822 170 818 m 227 -264 l 221 -189 q 175 -195 197 -195 q 94 -146 109 -195 q 91 -126 91 -136 q 208 0 94 -52 l 209 0 l 209 678 l 98 678 l 98 4 q -7 -151 -5 -68 q 84 -267 -7 -241 q 145 -275 113 -275 q 227 -264 186 -275 z "},"j":{"ha":315,"x_min":-92,"x_max":237,"o":"m 217 -81 l 217 678 l 104 678 l 104 -84 q 26 -198 103 -197 q -57 -171 -8 -197 l -92 -255 q 41 -289 -28 -289 q 194 -193 149 -289 q 217 -81 217 -145 m 237 878 q 187 954 237 936 q 161 958 175 958 q 92 910 110 958 q 87 878 87 894 q 137 798 87 814 q 161 793 149 793 q 232 844 214 793 q 237 878 237 860 z "},"k":{"ha":631,"x_min":99,"x_max":627,"o":"m 581 -15 q 585 -15 583 -15 q 591 -15 587 -15 q 595 -14 594 -15 q 600 -14 597 -14 q 605 -13 604 -14 q 610 -12 606 -12 q 616 -11 614 -11 q 621 -11 617 -11 l 627 -9 l 621 73 q 605 72 613 72 q 559 110 579 75 l 404 382 l 600 678 l 486 678 l 331 439 l 212 438 l 212 983 l 99 983 l 99 0 l 212 0 l 212 349 l 311 349 l 468 68 q 555 -12 507 -1 q 581 -15 567 -15 z "},"l":{"ha":343,"x_min":98,"x_max":335,"o":"m 241 -14 q 335 3 286 -14 l 312 87 q 266 77 286 77 q 209 155 210 80 l 209 983 l 98 983 l 98 144 q 206 -11 98 9 q 241 -14 224 -14 z "},"ĺ":{"ha":343,"x_min":57,"x_max":339,"o":"m 241 -14 q 335 3 286 -14 l 312 87 q 266 77 286 77 q 209 155 210 80 l 209 983 l 98 983 l 98 144 q 206 -11 98 9 q 241 -14 224 -14 m 339 1181 l 277 1267 l 57 1105 l 104 1036 l 339 1181 z "},"ľ":{"ha":380,"x_min":98,"x_max":415,"o":"m 241 -14 q 335 3 286 -14 l 312 87 q 266 77 286 77 q 209 155 210 80 l 209 983 l 98 983 l 98 144 q 206 -11 98 9 q 241 -14 224 -14 m 415 873 q 365 954 415 937 q 342 956 353 956 q 278 916 296 956 q 271 880 271 899 q 316 812 271 830 q 323 811 320 811 q 264 684 315 760 l 304 655 q 410 836 388 738 q 415 873 414 856 z "},"<":{"ha":576,"x_min":50,"x_max":494,"o":"m 50 334 l 415 -31 l 494 42 l 189 335 l 492 639 l 412 708 l 50 334 z "},"≤":{"ha":575,"x_min":66,"x_max":500,"o":"m 494 15 l 494 113 l 75 113 l 75 15 l 494 15 m 66 437 l 434 159 l 499 235 l 214 438 l 500 647 l 439 723 l 66 437 z "},"¬":{"ha":662,"x_min":45,"x_max":604,"o":"m 604 149 l 604 406 l 45 406 l 45 312 l 495 312 l 495 149 l 604 149 z "},"◊":{"ha":718,"x_min":26,"x_max":692,"o":"m 400 -4 l 692 457 l 395 920 l 319 920 l 26 456 l 324 -4 l 400 -4 m 236 331 l 141 465 l 270 662 l 355 804 l 480 586 l 576 449 l 449 248 l 363 110 l 236 331 z "},"ł":{"ha":349,"x_min":98,"x_max":335,"o":"m 241 -14 q 335 3 286 -14 l 312 87 q 266 77 286 77 q 209 155 210 80 l 209 983 l 98 983 l 98 144 q 206 -11 98 9 q 241 -14 224 -14 z "},"m":{"ha":1058,"x_min":96,"x_max":1015,"o":"m 952 464 q 848 674 952 621 q 762 693 808 693 q 590 591 654 693 q 571 557 579 575 q 430 689 534 670 q 391 693 410 693 q 210 587 278 693 q 205 578 208 582 l 202 678 l 96 678 l 96 0 l 208 0 l 208 373 q 296 585 208 532 q 361 604 327 604 q 467 513 444 604 q 473 452 473 484 l 473 0 l 585 0 l 585 373 q 671 586 585 533 q 734 604 701 604 q 831 521 807 604 q 841 452 841 490 l 841 130 q 1015 -9 844 -38 l 1009 73 q 955 109 962 69 q 952 138 952 121 l 952 464 z "},"¯":{"ha":498,"x_min":72,"x_max":426,"o":"m 72 918 l 72 829 l 426 829 l 426 918 l 72 918 z "},"−":{"ha":720,"x_min":88,"x_max":631,"o":"m 88 305 l 631 305 l 631 406 l 88 406 l 88 305 z "},"×":{"ha":637,"x_min":85,"x_max":552,"o":"m 85 522 l 251 355 l 87 191 l 153 125 l 317 289 l 483 123 l 552 193 l 387 358 l 551 524 l 484 590 l 320 425 l 153 591 l 85 522 z "},"n":{"ha":692,"x_min":98,"x_max":652,"o":"m 648 73 q 594 103 602 69 q 591 138 591 118 l 591 464 q 481 674 591 624 q 393 693 442 693 q 206 575 270 692 l 203 678 l 98 678 l 98 0 l 209 0 l 209 372 q 296 583 209 528 q 365 604 328 604 q 473 513 449 604 q 480 450 480 484 l 480 130 q 604 -14 483 -12 q 652 -8 629 -14 l 648 73 z "},"ń":{"ha":692,"x_min":98,"x_max":652,"o":"m 648 73 q 594 103 602 69 q 591 138 591 118 l 591 464 q 481 674 591 624 q 393 693 442 693 q 206 575 270 692 l 203 678 l 98 678 l 98 0 l 209 0 l 209 372 q 296 583 209 528 q 365 604 328 604 q 473 513 449 604 q 480 450 480 484 l 480 130 q 604 -14 483 -12 q 652 -8 629 -14 l 648 73 m 536 914 l 473 1000 l 254 838 l 301 769 l 536 914 z "},"ň":{"ha":692,"x_min":98,"x_max":652,"o":"m 648 73 q 594 103 602 69 q 591 138 591 118 l 591 464 q 481 674 591 624 q 393 693 442 693 q 206 575 270 692 l 203 678 l 98 678 l 98 0 l 209 0 l 209 372 q 296 583 209 528 q 365 604 328 604 q 473 513 449 604 q 480 450 480 484 l 480 130 q 604 -14 483 -12 q 652 -8 629 -14 l 648 73 m 346 765 l 543 925 l 495 983 l 351 876 l 205 986 l 153 924 l 346 765 z "},"≠":{"ha":757,"x_min":92,"x_max":665,"o":"m 665 198 l 665 292 l 410 292 l 449 404 l 665 404 l 665 498 l 483 498 l 537 650 l 437 650 l 382 498 l 92 498 l 92 404 l 349 404 l 308 292 l 92 292 l 92 198 l 274 198 l 217 42 l 320 42 l 376 198 l 665 198 z "},"ñ":{"ha":692,"x_min":98,"x_max":652,"o":"m 648 73 q 594 103 602 69 q 591 138 591 118 l 591 464 q 481 674 591 624 q 393 693 442 693 q 206 575 270 692 l 203 678 l 98 678 l 98 0 l 209 0 l 209 372 q 296 583 209 528 q 365 604 328 604 q 473 513 449 604 q 480 450 480 484 l 480 130 q 604 -14 483 -12 q 652 -8 629 -14 l 648 73 m 433 891 q 349 921 407 891 q 270 943 302 943 q 136 875 205 941 l 184 819 q 270 856 228 856 q 359 826 297 856 q 441 804 407 804 q 564 876 510 806 l 515 929 q 433 891 479 892 z "},"#":{"ha":887,"x_min":26,"x_max":861,"o":"m 377 916 l 307 673 l 119 673 l 119 593 l 283 593 l 212 346 l 26 346 l 26 266 l 189 266 l 111 0 l 209 0 l 286 266 l 483 267 l 406 0 l 503 0 l 581 267 l 766 267 l 766 346 l 602 346 l 674 593 l 861 593 l 861 673 l 697 673 l 766 916 l 670 916 l 600 673 l 403 673 l 473 916 l 377 916 m 506 346 l 309 346 l 380 593 l 576 593 l 506 346 z "},"o":{"ha":671,"x_min":47,"x_max":624,"o":"m 335 77 q 180 206 221 77 q 163 338 163 263 q 254 576 163 514 q 338 601 292 601 q 492 467 453 601 q 509 338 509 411 q 412 98 509 155 q 335 77 377 77 m 340 693 q 96 552 175 693 q 47 338 47 463 q 186 22 47 104 q 331 -15 248 -15 q 581 134 506 -15 q 624 338 624 220 q 491 652 624 568 q 340 693 427 693 z "},"ó":{"ha":671,"x_min":47,"x_max":624,"o":"m 335 77 q 180 206 221 77 q 163 338 163 263 q 254 576 163 514 q 338 601 292 601 q 492 467 453 601 q 509 338 509 411 q 412 98 509 155 q 335 77 377 77 m 340 693 q 96 552 175 693 q 47 338 47 463 q 186 22 47 104 q 331 -15 248 -15 q 581 134 506 -15 q 624 338 624 220 q 491 652 624 568 q 340 693 427 693 m 526 914 l 464 1000 l 244 838 l 292 769 l 526 914 z "},"ô":{"ha":671,"x_min":47,"x_max":624,"o":"m 335 77 q 180 206 221 77 q 163 338 163 263 q 254 576 163 514 q 338 601 292 601 q 492 467 453 601 q 509 338 509 411 q 412 98 509 155 q 335 77 377 77 m 340 693 q 96 552 175 693 q 47 338 47 463 q 186 22 47 104 q 331 -15 248 -15 q 581 134 506 -15 q 624 338 624 220 q 491 652 624 568 q 340 693 427 693 m 345 983 l 151 829 l 198 769 l 340 873 l 486 766 l 537 830 l 345 983 z "},"ö":{"ha":671,"x_min":47,"x_max":624,"o":"m 335 77 q 180 206 221 77 q 163 338 163 263 q 254 576 163 514 q 338 601 292 601 q 492 467 453 601 q 509 338 509 411 q 412 98 509 155 q 335 77 377 77 m 340 693 q 96 552 175 693 q 47 338 47 463 q 186 22 47 104 q 331 -15 248 -15 q 581 134 506 -15 q 624 338 624 220 q 491 652 624 568 q 340 693 427 693 m 279 875 q 233 944 279 930 q 214 947 224 947 q 149 899 163 947 q 146 875 146 887 q 194 803 146 817 q 213 800 203 800 q 274 845 259 800 q 279 875 279 860 m 532 875 q 484 944 532 930 q 464 947 473 947 q 403 901 416 947 q 399 875 399 888 q 444 803 399 818 q 464 800 454 800 q 526 845 511 800 q 532 875 532 860 z "},"œ":{"ha":1077,"x_min":47,"x_max":1040,"o":"m 1027 47 l 993 125 q 821 79 902 79 q 646 202 693 79 q 624 316 627 252 l 1040 316 l 1040 354 q 789 693 1038 692 q 578 570 650 693 q 568 552 572 560 q 340 693 498 692 q 96 552 175 693 q 47 338 47 463 q 186 22 47 104 q 331 -15 248 -15 q 567 133 496 -14 q 810 -15 644 -14 q 1027 47 917 -14 m 785 604 q 920 481 892 604 q 926 403 926 445 l 627 401 q 741 595 646 562 q 785 604 762 604 m 163 338 q 254 576 163 514 q 338 601 292 601 q 492 467 453 601 q 509 338 509 411 q 412 98 509 155 q 335 77 377 77 q 180 206 221 77 q 163 338 163 263 z "},"˛":{"ha":377,"x_min":77,"x_max":311,"o":"m 311 -264 l 305 -189 q 259 -195 281 -195 q 178 -146 193 -195 q 175 -126 175 -136 q 292 0 178 -52 l 182 4 q 77 -151 79 -68 q 168 -267 77 -241 q 229 -275 197 -275 q 311 -264 270 -275 z "},"ò":{"ha":671,"x_min":47,"x_max":624,"o":"m 335 77 q 180 206 221 77 q 163 338 163 263 q 254 576 163 514 q 338 601 292 601 q 492 467 453 601 q 509 338 509 411 q 412 98 509 155 q 335 77 377 77 m 340 693 q 96 552 175 693 q 47 338 47 463 q 186 22 47 104 q 331 -15 248 -15 q 581 134 506 -15 q 624 338 624 220 q 491 652 624 568 q 340 693 427 693 m 187 914 l 250 1000 l 469 838 l 422 769 l 187 914 z "},"ő":{"ha":671,"x_min":47,"x_max":669,"o":"m 335 77 q 180 206 221 77 q 163 338 163 263 q 254 576 163 514 q 338 601 292 601 q 492 467 453 601 q 509 338 509 411 q 412 98 509 155 q 335 77 377 77 m 340 693 q 96 552 175 693 q 47 338 47 463 q 186 22 47 104 q 331 -15 248 -15 q 581 134 506 -15 q 624 338 624 220 q 491 652 624 568 q 340 693 427 693 m 414 928 l 349 1002 l 149 829 l 199 769 l 414 928 m 669 928 l 602 1002 l 403 829 l 454 769 l 669 928 z "},"ō":{"ha":671,"x_min":47,"x_max":624,"o":"m 335 77 q 180 206 221 77 q 163 338 163 263 q 254 576 163 514 q 338 601 292 601 q 492 467 453 601 q 509 338 509 411 q 412 98 509 155 q 335 77 377 77 m 340 693 q 96 552 175 693 q 47 338 47 463 q 186 22 47 104 q 331 -15 248 -15 q 581 134 506 -15 q 624 338 624 220 q 491 652 624 568 q 340 693 427 693 m 161 918 l 161 829 l 515 829 l 515 918 l 161 918 z "},"½":{"ha":1123,"x_min":15,"x_max":1081,"o":"m 315 -15 l 878 997 l 774 997 l 209 -14 l 315 -15 m 1081 0 l 1081 85 l 857 85 l 924 161 q 963 203 936 175 q 1063 340 1044 290 q 1073 393 1073 368 q 986 538 1073 491 q 886 564 940 564 q 708 471 772 564 q 703 464 704 467 l 772 423 q 873 483 812 481 q 963 434 937 483 q 972 391 972 414 q 906 264 972 340 q 876 232 897 254 q 854 209 861 217 l 709 49 l 709 0 l 1081 0 m 46 765 l 172 817 l 172 445 l 60 445 l 60 366 l 353 366 l 353 445 l 270 445 l 270 916 l 186 916 l 15 844 l 46 765 z "},"¼":{"ha":1104,"x_min":15,"x_max":1073,"o":"m 1005 0 l 1005 119 l 1073 119 l 1073 199 l 1005 199 l 1005 552 l 887 552 l 647 183 l 656 118 l 907 119 l 907 0 l 1005 0 m 315 -15 l 878 997 l 774 997 l 209 -14 l 315 -15 m 46 765 l 172 817 l 172 445 l 60 445 l 60 366 l 353 366 l 353 445 l 270 445 l 270 916 l 186 916 l 15 844 l 46 765 m 907 199 l 750 199 l 907 448 l 907 199 z "},"¹":{"ha":438,"x_min":39,"x_max":377,"o":"m 71 765 l 197 817 l 197 445 l 84 445 l 84 366 l 377 366 l 377 445 l 294 445 l 294 916 l 210 916 l 39 844 l 71 765 z "},"ª":{"ha":456,"x_min":27,"x_max":438,"o":"m 397 411 q 438 415 425 411 l 435 487 q 420 486 429 486 q 384 544 384 488 l 384 770 q 288 920 384 884 q 220 930 256 930 q 42 880 130 929 l 75 811 q 202 850 145 850 q 286 784 277 850 q 288 766 288 776 l 288 716 q 239 718 270 718 q 43 631 91 718 q 27 563 27 600 q 110 425 27 460 q 176 411 141 411 q 301 477 256 411 q 307 486 305 483 q 397 411 323 412 m 195 488 q 126 545 137 488 q 125 567 125 556 q 195 648 125 632 q 237 652 216 652 q 288 651 271 652 l 288 597 q 227 494 288 517 q 195 488 212 488 z "},"º":{"ha":521,"x_min":45,"x_max":476,"o":"m 260 488 q 153 593 178 488 q 145 670 145 627 q 216 841 145 802 q 262 852 237 852 q 368 746 343 852 q 376 669 376 711 q 302 498 376 533 q 260 488 282 488 m 264 930 q 71 807 126 930 q 45 669 45 746 q 164 429 45 481 q 256 410 205 410 q 454 541 403 410 q 476 670 476 598 q 359 910 476 854 q 264 930 317 930 z "},"ø":{"ha":671,"x_min":47,"x_max":624,"o":"m 458 802 l 416 685 q 340 693 381 693 q 96 552 175 693 q 47 338 47 463 q 179 26 49 111 l 141 -81 l 214 -106 l 251 -5 q 331 -15 286 -15 q 581 134 506 -15 q 624 338 624 220 q 498 648 624 560 q 487 655 492 652 l 530 779 l 458 802 m 163 338 q 254 576 163 514 q 338 601 292 601 q 384 594 362 601 l 218 133 q 163 338 163 202 m 335 77 q 283 85 305 77 l 449 551 q 509 338 509 481 q 412 98 509 155 q 335 77 377 77 z "},"õ":{"ha":671,"x_min":47,"x_max":624,"o":"m 335 77 q 180 206 221 77 q 163 338 163 263 q 254 576 163 514 q 338 601 292 601 q 492 467 453 601 q 509 338 509 411 q 412 98 509 155 q 335 77 377 77 m 340 693 q 96 552 175 693 q 47 338 47 463 q 186 22 47 104 q 331 -15 248 -15 q 581 134 506 -15 q 624 338 624 220 q 491 652 624 568 q 340 693 427 693 m 422 891 q 338 921 396 891 q 259 943 292 943 q 125 875 194 941 l 174 819 q 259 856 217 856 q 349 826 286 856 q 430 804 396 804 q 553 876 499 806 l 505 929 q 422 891 468 892 z "},"p":{"ha":678,"x_min":99,"x_max":627,"o":"m 327 77 q 210 106 267 77 l 210 392 q 293 582 210 530 q 361 602 326 602 q 481 517 439 602 q 511 370 511 457 q 411 100 511 165 q 327 77 373 77 m 210 -275 l 210 4 q 331 -15 273 -15 q 568 125 487 -15 q 627 372 627 227 q 519 646 627 559 q 387 693 461 693 q 208 590 273 692 l 203 678 l 99 678 l 99 -275 l 210 -275 z "},"¶":{"ha":680,"x_min":31,"x_max":576,"o":"m 384 0 l 384 916 l 263 916 q 58 810 118 914 q 31 704 31 762 q 161 513 31 562 q 275 492 212 495 l 275 0 l 384 0 m 576 0 l 576 916 l 469 916 l 469 0 l 576 0 z "},"(":{"ha":393,"x_min":103,"x_max":373,"o":"m 212 401 q 373 994 213 728 l 283 1039 q 103 396 103 741 q 282 -243 104 54 l 373 -195 q 212 401 212 77 z "},")":{"ha":392,"x_min":22,"x_max":292,"o":"m 183 411 q 22 -182 182 84 l 111 -227 q 292 416 292 72 q 113 1055 290 758 l 22 1008 q 183 411 183 735 z "},"∂":{"ha":715,"x_min":69,"x_max":652,"o":"m 652 448 q 330 971 651 836 l 286 886 q 533 586 494 795 q 541 496 541 543 l 541 490 q 351 593 472 591 q 123 464 203 593 q 69 270 69 377 q 168 39 69 118 q 330 -15 236 -15 q 593 161 506 -15 q 652 448 652 281 m 186 278 q 285 481 186 430 q 359 499 320 499 q 494 418 450 499 q 518 305 518 370 q 422 102 518 156 q 342 81 384 81 q 209 167 250 81 q 186 278 186 214 z "},"%":{"ha":1145,"x_min":34,"x_max":1109,"o":"m 264 537 q 146 635 178 537 q 133 728 133 677 q 227 909 133 879 q 266 914 245 914 q 391 795 366 914 q 397 726 397 762 q 324 553 397 598 q 264 537 296 537 m 269 993 q 65 872 125 993 q 34 726 34 810 q 141 494 34 560 q 263 461 194 461 q 457 571 393 461 q 495 728 495 639 q 370 972 495 916 q 269 993 326 993 m 880 62 q 760 163 791 62 q 747 252 747 202 q 840 433 747 403 q 882 439 860 439 q 1006 316 983 439 q 1012 251 1012 286 q 936 77 1012 119 q 880 62 910 62 m 883 517 q 680 395 738 517 q 650 251 650 334 q 755 18 650 85 q 879 -15 810 -15 q 1072 95 1008 -15 q 1109 252 1109 163 q 985 496 1109 439 q 883 517 940 517 m 342 -15 l 236 -14 l 802 997 l 905 997 l 342 -15 z "},".":{"ha":289,"x_min":69,"x_max":220,"o":"m 220 72 q 168 151 220 134 q 144 153 156 153 q 73 103 90 153 q 69 72 69 88 q 122 -11 69 5 q 144 -14 133 -14 q 214 37 197 -14 q 220 72 220 53 z "},"·":{"ha":300,"x_min":65,"x_max":235,"o":"m 149 286 q 225 334 202 286 q 235 380 235 355 q 178 467 235 448 q 151 471 164 471 q 72 420 94 471 q 65 380 65 401 q 121 292 65 312 q 149 286 136 286 z "},"‰":{"ha":1672,"x_min":34,"x_max":1645,"o":"m 1415 62 q 1295 160 1326 62 q 1282 254 1282 201 q 1374 434 1282 404 q 1416 441 1394 441 q 1541 319 1518 441 q 1546 251 1546 286 q 1470 77 1546 119 q 1415 62 1444 62 m 1419 518 q 1215 397 1275 518 q 1184 251 1184 335 q 1291 19 1184 85 q 1413 -14 1344 -14 q 1606 95 1542 -14 q 1645 254 1645 163 q 1523 496 1645 437 q 1419 518 1477 518 m 264 537 q 146 635 178 537 q 133 728 133 677 q 227 909 133 879 q 266 914 245 914 q 391 795 366 914 q 397 726 397 762 q 324 553 397 598 q 264 537 296 537 m 269 993 q 65 872 125 993 q 34 726 34 810 q 141 494 34 560 q 263 461 194 461 q 457 571 393 461 q 495 728 495 639 q 370 972 495 916 q 269 993 326 993 m 880 62 q 760 163 791 62 q 747 252 747 202 q 840 433 747 403 q 882 439 860 439 q 1006 316 983 439 q 1012 251 1012 286 q 936 77 1012 119 q 880 62 910 62 m 883 517 q 680 395 738 517 q 650 251 650 334 q 755 18 650 85 q 879 -15 810 -15 q 1072 95 1008 -15 q 1109 252 1109 163 q 985 496 1109 439 q 883 517 940 517 m 342 -15 l 236 -14 l 802 997 l 905 997 l 342 -15 z "},"π":{"ha":754,"x_min":42,"x_max":743,"o":"m 712 593 l 712 678 l 42 678 l 42 593 l 136 593 l 136 0 l 248 0 l 247 593 l 506 593 l 506 144 q 609 -9 506 14 q 650 -14 628 -14 q 743 3 696 -14 l 722 87 q 674 77 696 77 q 617 155 618 80 l 617 593 l 712 593 z "},"+":{"ha":642,"x_min":38,"x_max":604,"o":"m 604 305 l 604 400 l 376 400 l 376 624 l 267 624 l 267 400 l 38 400 l 38 305 l 267 305 l 267 81 l 376 81 l 376 305 l 604 305 z "},"±":{"ha":663,"x_min":52,"x_max":612,"o":"m 612 15 l 612 113 l 52 113 l 52 15 l 612 15 m 612 388 l 612 484 l 387 484 l 387 684 l 278 684 l 278 484 l 52 484 l 52 388 l 278 388 l 278 189 l 387 189 l 387 388 l 612 388 z "},"∏":{"ha":875,"x_min":140,"x_max":694,"o":"m 628 822 l 519 829 l 519 830 l 510 829 l 490 830 l 490 826 l 456 822 l 395 833 l 395 834 l 389 834 l 388 834 l 208 822 l 140 830 l 140 305 l 396 305 l 472 -237 l 502 247 l 500 305 l 519 305 l 519 377 l 694 377 l 694 834 l 628 822 m 396 305 l 388 358 l 388 377 l 499 377 l 500 305 l 396 305 z "},"q":{"ha":670,"x_min":46,"x_max":574,"o":"m 46 307 q 155 30 46 115 q 288 -15 213 -15 q 460 83 397 -14 l 461 -305 l 574 -305 l 574 635 q 340 693 461 693 q 104 555 186 693 q 46 307 46 453 m 463 571 l 461 283 q 377 92 461 141 q 312 76 346 76 q 187 167 229 76 q 161 308 161 227 q 262 578 161 513 q 346 601 300 601 q 463 571 403 600 z "},"?":{"ha":614,"x_min":23,"x_max":533,"o":"m 232 229 q 227 279 227 258 q 316 442 227 366 q 370 486 334 457 q 495 604 464 556 q 533 731 533 661 q 422 944 533 871 q 267 989 351 989 q 64 897 142 989 q 23 830 39 867 l 119 793 q 243 891 155 880 q 262 892 252 892 q 389 826 343 892 q 418 727 418 783 q 336 582 418 647 q 288 545 321 570 q 164 433 197 480 q 121 281 121 368 q 129 220 121 258 l 232 229 m 269 72 q 217 151 269 134 q 193 153 205 153 q 122 103 138 153 q 118 72 118 88 q 171 -11 118 5 q 193 -14 182 -14 q 263 37 245 -14 q 269 72 269 53 z "},"¿":{"ha":614,"x_min":81,"x_max":591,"o":"m 382 452 q 388 401 388 423 q 298 239 388 315 q 244 195 281 224 q 119 77 151 125 q 81 -50 81 20 q 193 -263 81 -190 q 347 -308 263 -308 q 551 -216 472 -308 q 591 -149 575 -186 l 495 -113 q 372 -210 460 -199 q 353 -212 362 -212 q 225 -145 271 -212 q 197 -46 197 -102 q 278 99 197 34 q 327 136 293 111 q 450 248 418 201 q 494 400 494 313 q 486 461 494 423 l 382 452 m 346 609 q 397 530 346 547 q 422 528 410 528 q 492 578 476 528 q 496 609 496 593 q 444 692 496 675 q 422 694 433 694 q 351 644 369 694 q 346 609 346 628 z "},"\"":{"ha":422,"x_min":54,"x_max":368,"o":"m 168 993 l 54 993 l 72 696 l 151 696 l 168 993 m 368 993 l 254 993 l 271 696 l 350 696 l 368 993 z "},"„":{"ha":477,"x_min":45,"x_max":414,"o":"m 414 64 q 358 152 414 133 q 332 156 346 156 q 262 111 282 156 q 254 72 254 92 q 301 -1 254 18 q 311 -5 307 -4 q 247 -146 301 -62 l 292 -178 q 380 -57 346 -125 q 414 64 414 11 m 212 64 q 156 152 212 133 q 130 156 142 156 q 60 111 80 156 q 52 72 52 92 q 99 -1 52 18 q 109 -5 104 -4 q 45 -146 99 -62 l 90 -178 q 205 18 180 -88 q 212 64 210 43 z "},"“":{"ha":468,"x_min":64,"x_max":431,"o":"m 64 762 q 119 674 64 693 q 145 670 133 670 q 216 715 195 670 q 224 754 224 734 q 176 827 224 808 q 167 831 171 830 q 231 972 176 888 l 186 1004 q 71 808 95 914 q 64 762 65 783 m 264 764 q 320 675 264 694 q 346 671 334 671 q 416 716 396 671 q 425 755 425 735 q 377 829 425 810 q 368 833 372 831 q 431 974 377 890 l 387 1005 q 271 810 296 916 q 264 764 266 784 z "},"”":{"ha":492,"x_min":62,"x_max":430,"o":"m 430 892 q 374 981 430 962 q 349 985 361 985 q 278 940 298 985 q 270 901 270 921 q 317 827 270 846 q 327 823 323 825 q 263 682 317 766 l 308 651 q 423 846 399 741 q 430 892 430 871 m 229 892 q 174 981 229 962 q 148 985 160 985 q 77 940 98 985 q 69 901 69 921 q 117 827 69 846 q 126 823 122 825 q 62 682 117 766 l 107 651 q 222 846 198 741 q 229 892 229 871 z "},"‘":{"ha":260,"x_min":64,"x_max":231,"o":"m 64 762 q 119 674 64 693 q 145 670 133 670 q 216 715 195 670 q 224 754 224 734 q 176 827 224 808 q 167 831 171 830 q 231 972 176 888 l 186 1004 q 71 808 95 914 q 64 762 65 783 z "},"’":{"ha":269,"x_min":42,"x_max":209,"o":"m 209 892 q 153 981 209 962 q 127 985 140 985 q 57 940 77 985 q 49 901 49 921 q 96 827 49 846 q 106 823 102 825 q 42 682 96 766 l 87 651 q 202 846 178 741 q 209 892 209 871 z "},"‚":{"ha":274,"x_min":43,"x_max":210,"o":"m 210 64 q 155 152 210 133 q 129 156 141 156 q 58 111 79 156 q 50 72 50 92 q 98 -1 50 18 q 107 -5 103 -4 q 43 -146 98 -62 l 88 -178 q 203 18 179 -88 q 210 64 209 43 z "},"'":{"ha":217,"x_min":52,"x_max":165,"o":"m 165 993 l 52 993 l 69 696 l 148 696 l 165 993 z "},"r":{"ha":420,"x_min":98,"x_max":423,"o":"m 209 0 l 209 377 q 285 567 209 513 q 355 590 317 590 q 411 579 380 590 l 423 688 q 382 693 404 693 q 205 566 262 692 l 202 681 l 98 681 l 98 0 l 209 0 z "},"ŕ":{"ha":420,"x_min":98,"x_max":423,"o":"m 209 0 l 209 377 q 285 567 209 513 q 355 590 317 590 q 411 579 380 590 l 423 688 q 382 693 404 693 q 205 566 262 692 l 202 681 l 98 681 l 98 0 l 209 0 m 387 914 l 324 1000 l 104 838 l 152 769 l 387 914 z "},"√":{"ha":873,"x_min":0,"x_max":873,"o":"m 427 -163 l 703 911 l 873 911 l 873 1002 l 616 1002 l 376 1 l 190 534 l 0 468 l 28 380 l 118 412 l 324 -163 l 427 -163 z "},"ř":{"ha":438,"x_min":38,"x_max":427,"o":"m 209 0 l 209 377 q 285 567 209 513 q 355 590 317 590 q 411 579 380 590 l 423 688 q 382 693 404 693 q 205 566 262 692 l 202 681 l 98 681 l 98 0 l 209 0 m 231 765 l 427 925 l 380 983 l 236 876 l 90 986 l 38 924 l 231 765 z "},"®":{"ha":1042,"x_min":54,"x_max":987,"o":"m 435 163 l 435 407 l 509 407 l 521 407 l 620 206 q 697 153 648 155 q 735 157 718 153 l 732 214 l 724 214 q 694 237 707 217 l 601 420 q 716 575 708 458 q 718 593 718 585 q 507 760 715 758 q 351 757 439 760 l 351 163 l 435 163 m 505 690 q 629 585 624 680 q 538 477 629 492 q 507 475 524 475 l 435 475 l 435 689 q 473 690 448 689 q 505 690 496 690 m 987 465 q 840 818 987 684 q 524 936 708 936 q 195 808 328 936 q 54 463 54 673 q 206 106 54 240 q 519 -9 336 -9 q 846 117 712 -11 q 987 465 987 252 m 151 465 q 282 772 151 661 q 521 857 382 857 q 791 739 685 859 q 890 464 888 629 q 760 153 890 264 q 524 69 659 69 q 248 189 354 69 q 151 465 151 298 z "},"˚":{"ha":532,"x_min":123,"x_max":408,"o":"m 408 882 q 330 1015 408 978 q 269 1027 300 1027 q 146 963 187 1027 q 123 880 123 928 q 202 746 123 783 q 263 734 232 734 q 384 796 342 734 q 408 882 408 833 m 197 880 q 244 958 197 941 q 266 960 256 960 q 330 918 311 960 q 336 880 336 901 q 288 804 336 821 q 266 802 277 802 q 203 845 221 802 q 197 880 197 861 z "},"s":{"ha":529,"x_min":41,"x_max":479,"o":"m 476 186 q 369 354 476 290 q 300 389 347 366 q 190 461 213 430 q 174 511 174 484 q 236 600 174 576 q 278 606 256 606 q 397 545 355 606 q 403 537 400 541 l 479 581 q 304 692 429 680 q 277 693 290 693 q 107 625 171 693 q 62 511 62 576 q 168 342 62 404 q 236 307 190 328 q 347 233 324 264 q 365 179 365 209 q 296 81 365 106 q 250 75 274 75 q 83 130 164 76 l 41 58 q 252 -15 136 -15 q 434 64 370 -15 q 476 186 476 115 z "},"ś":{"ha":529,"x_min":41,"x_max":479,"o":"m 476 186 q 369 354 476 290 q 300 389 347 366 q 190 461 213 430 q 174 511 174 484 q 236 600 174 576 q 278 606 256 606 q 397 545 355 606 q 403 537 400 541 l 479 581 q 304 692 429 680 q 277 693 290 693 q 107 625 171 693 q 62 511 62 576 q 168 342 62 404 q 236 307 190 328 q 347 233 324 264 q 365 179 365 209 q 296 81 365 106 q 250 75 274 75 q 83 130 164 76 l 41 58 q 252 -15 136 -15 q 434 64 370 -15 q 476 186 476 115 m 441 914 l 378 1000 l 159 838 l 206 769 l 441 914 z "},"š":{"ha":551,"x_min":41,"x_max":492,"o":"m 476 186 q 369 354 476 290 q 300 389 347 366 q 190 461 213 430 q 174 511 174 484 q 236 600 174 576 q 278 606 256 606 q 397 545 355 606 q 403 537 400 541 l 479 581 q 304 692 429 680 q 277 693 290 693 q 107 625 171 693 q 62 511 62 576 q 168 342 62 404 q 236 307 190 328 q 347 233 324 264 q 365 179 365 209 q 296 81 365 106 q 250 75 274 75 q 83 130 164 76 l 41 58 q 252 -15 136 -15 q 434 64 370 -15 q 476 186 476 115 m 296 765 l 492 925 l 445 983 l 301 876 l 155 986 l 103 924 l 296 765 z "},"§":{"ha":537,"x_min":53,"x_max":484,"o":"m 161 490 q 183 556 163 526 q 244 509 203 540 q 355 403 331 442 q 374 335 374 370 q 358 271 373 300 q 292 323 336 289 q 180 426 203 388 q 161 490 161 457 m 484 354 q 374 551 484 458 q 315 597 354 567 q 206 697 228 662 q 191 750 191 723 q 259 838 191 818 q 297 844 278 844 q 389 810 350 841 l 448 875 q 293 929 380 929 q 121 857 182 929 q 80 747 80 810 q 127 613 81 674 q 53 475 54 564 q 161 282 53 370 q 220 237 180 267 q 328 140 305 175 q 345 83 345 113 q 271 -16 343 5 q 229 -22 251 -22 q 103 12 170 -20 l 71 -66 q 233 -111 151 -111 q 419 -27 358 -111 q 454 91 454 23 q 418 208 453 153 q 484 354 483 264 z "},";":{"ha":304,"x_min":66,"x_max":227,"o":"m 227 66 q 176 151 227 132 q 149 155 163 155 q 80 107 99 155 q 73 73 73 91 q 127 0 76 15 q 66 -138 118 -58 l 110 -168 q 225 39 209 -66 q 227 66 227 53 m 224 445 q 172 524 224 507 q 148 526 160 526 q 77 476 94 526 q 73 445 73 461 q 126 362 73 378 q 148 359 137 359 q 218 410 201 359 q 224 445 224 426 z "},"අ":{"ha":750,"x_min":38,"x_max":709,"o":"m 553 495 q 514 502 536 495 l 514 513 q 582 690 519 631 q 606 708 594 701 q 605 685 605 700 q 625 600 605 677 q 631 562 631 576 q 553 495 628 496 m 422 -278 l 514 -278 l 514 30 q 699 152 612 65 l 637 222 q 514 132 571 157 l 514 429 q 571 418 541 418 q 703 505 677 418 q 709 549 709 526 q 688 663 709 575 q 680 713 680 696 q 701 765 681 750 l 667 822 q 499 728 572 812 q 484 709 491 718 q 326 804 426 798 q 179 728 228 804 q 153 633 153 686 q 183 532 153 581 q 47 363 79 479 q 38 290 38 327 q 157 56 38 134 q 355 3 239 3 q 420 7 391 3 l 422 -278 m 237 629 q 292 712 237 692 q 326 718 309 718 q 415 656 391 718 q 423 605 423 633 q 418 562 423 586 q 317 564 361 564 q 260 559 283 564 q 237 629 237 589 m 355 100 q 160 195 216 100 q 136 290 136 239 q 208 437 136 382 q 317 472 256 472 l 419 472 l 420 104 q 355 100 391 100 z "},"ආ":{"ha":1072,"x_min":38,"x_max":1048,"o":"m 553 488 q 514 495 536 488 l 514 506 q 582 684 519 624 q 606 701 594 694 q 605 678 605 693 q 625 593 605 670 q 631 555 631 570 q 553 488 628 490 m 422 -285 l 514 -285 l 514 23 q 699 145 612 58 l 637 216 q 514 125 571 151 l 514 422 q 571 411 541 411 q 704 496 677 411 q 711 543 711 518 q 688 655 711 570 q 680 707 680 688 q 701 758 681 743 l 667 815 q 502 724 575 806 q 486 704 492 713 q 326 798 426 792 q 179 722 228 798 q 153 627 153 680 q 183 525 153 574 q 47 357 79 472 q 38 283 38 320 q 157 49 38 127 q 355 -4 239 -4 q 420 0 391 -4 l 422 -285 m 237 623 q 292 705 237 685 q 326 711 309 711 q 415 650 391 711 q 423 598 423 627 q 418 555 423 579 q 317 557 361 557 q 260 552 283 557 q 237 623 237 582 m 355 94 q 160 189 216 94 q 136 283 136 232 q 208 430 136 376 q 317 465 256 465 l 419 465 l 420 98 q 355 94 391 94 m 758 713 l 788 632 q 837 651 812 650 q 948 429 939 651 q 949 381 949 406 q 837 110 943 119 q 788 130 811 111 l 758 47 q 844 12 791 12 q 1009 142 955 12 q 1048 381 1048 235 q 930 722 1048 642 q 844 749 891 749 q 758 713 788 747 z "},"ඈ":{"ha":1147,"x_min":38,"x_max":1119,"o":"m 553 495 q 514 502 536 495 l 514 513 q 582 690 519 631 q 606 708 594 701 q 605 685 605 700 q 625 600 605 677 q 631 562 631 576 q 553 495 628 496 m 422 -278 l 514 -278 l 514 30 q 699 152 612 65 l 637 222 q 514 132 571 157 l 514 429 q 571 418 541 418 q 703 505 677 418 q 709 549 709 526 q 688 663 709 575 q 680 713 680 696 q 701 765 681 750 l 667 822 q 499 728 572 812 q 484 709 491 718 q 326 804 426 798 q 179 728 228 804 q 153 633 153 686 q 183 532 153 581 q 47 363 79 479 q 38 290 38 327 q 157 56 38 134 q 355 3 239 3 q 420 7 391 3 l 422 -278 m 237 629 q 292 712 237 692 q 326 718 309 718 q 415 656 391 718 q 423 605 423 633 q 418 562 423 586 q 317 564 361 564 q 260 559 283 564 q 237 629 237 589 m 355 100 q 160 195 216 100 q 136 290 136 239 q 208 437 136 382 q 317 472 256 472 l 419 472 l 420 104 q 355 100 391 100 m 735 214 q 830 24 735 73 q 926 3 872 3 q 1114 171 1084 3 q 1119 240 1119 203 l 1031 240 q 966 103 1031 132 q 925 95 947 95 q 827 191 837 95 q 826 214 826 203 q 917 378 826 311 q 1024 422 974 422 l 1039 422 l 1039 505 l 871 505 l 1039 651 l 1039 738 l 757 738 l 757 648 l 907 648 l 757 505 l 757 422 l 838 422 q 735 214 739 332 z "},"ඇ":{"ha":1131,"x_min":38,"x_max":1111,"o":"m 553 495 q 514 502 536 495 l 514 513 q 582 690 519 631 q 606 708 594 701 q 605 685 605 700 q 625 600 605 677 q 631 562 631 576 q 553 495 628 496 m 422 -278 l 514 -278 l 514 30 q 699 152 612 65 l 637 222 q 514 132 571 157 l 514 429 q 571 418 541 418 q 703 505 677 418 q 709 549 709 526 q 688 663 709 575 q 680 713 680 696 q 701 765 681 750 l 667 822 q 499 728 572 812 q 484 709 491 718 q 326 804 426 798 q 179 728 228 804 q 153 633 153 686 q 183 532 153 581 q 47 363 79 479 q 38 290 38 327 q 157 56 38 134 q 355 3 239 3 q 420 7 391 3 l 422 -278 m 237 629 q 292 712 237 692 q 326 718 309 718 q 415 656 391 718 q 423 605 423 633 q 418 562 423 586 q 317 564 361 564 q 260 559 283 564 q 237 629 237 589 m 355 100 q 160 195 216 100 q 136 290 136 239 q 208 437 136 382 q 317 472 256 472 l 419 472 l 420 104 q 355 100 391 100 m 722 220 q 808 33 722 88 q 918 3 856 3 q 1105 171 1076 3 q 1111 240 1111 203 l 1023 240 q 963 109 1023 140 q 921 99 944 99 q 819 184 836 99 q 817 220 817 201 q 890 414 817 302 q 991 556 917 454 q 1061 651 1036 617 l 1061 738 l 779 738 l 779 648 l 947 648 q 802 444 810 457 q 722 220 722 320 z "},"ඓ":{"ha":1298,"x_min":27,"x_max":1282,"o":"m 324 361 q 366 427 324 407 q 399 435 382 435 q 464 393 444 435 q 472 361 472 377 q 431 294 472 315 q 399 286 415 286 q 332 328 353 286 q 324 361 324 345 m 241 365 q 307 239 241 285 q 316 232 312 235 q 392 210 349 210 q 491 260 458 212 q 382 104 480 136 q 326 96 355 96 q 153 217 209 96 q 122 380 122 288 q 209 625 122 533 q 350 689 271 689 q 490 625 430 689 q 503 612 496 618 l 571 670 q 350 783 481 781 q 110 652 203 783 q 27 380 27 538 q 149 62 27 163 q 326 3 222 3 q 548 142 484 3 q 576 283 576 206 q 480 502 576 446 q 400 522 444 522 q 270 454 317 522 q 241 365 241 414 m 1112 732 q 1012 785 1038 732 q 1004 819 1004 803 q 1038 911 1004 854 q 1047 929 1044 922 q 1145 736 1115 854 q 1112 732 1112 732 m 913 817 q 989 685 913 738 q 1122 646 1047 646 q 1165 650 1143 646 q 1184 465 1184 541 q 1040 127 1184 203 q 926 102 990 102 q 727 218 770 102 q 715 286 715 251 q 779 433 715 391 q 836 449 804 449 l 997 449 q 1004 511 1004 483 q 907 694 1004 643 q 819 716 867 716 q 681 642 723 716 q 662 563 662 606 q 666 530 662 547 l 605 530 l 605 449 l 681 449 q 620 277 621 381 q 711 71 620 146 q 926 3 791 3 q 1241 216 1157 3 q 1282 463 1282 320 q 1171 907 1282 705 q 1006 1097 1100 1034 l 955 1036 l 959 1034 l 960 1031 q 982 990 982 1012 q 951 929 982 975 q 913 817 913 869 m 743 560 q 800 633 743 623 q 819 635 810 635 q 911 568 890 635 q 918 528 917 549 l 750 529 q 743 560 743 545 z "},"ඖ":{"ha":1208,"x_min":38,"x_max":1171,"o":"m 38 342 q 220 3 39 4 q 366 110 327 3 q 373 133 370 122 q 487 7 399 28 q 528 3 507 3 q 723 195 688 3 q 735 397 735 266 q 541 974 735 856 q 357 1020 465 1020 q 144 935 233 1020 q 79 836 99 891 l 172 803 q 286 907 201 876 q 357 920 321 920 q 605 697 547 920 q 635 397 635 581 q 593 136 635 195 q 528 102 567 103 q 419 283 430 102 q 418 320 418 301 l 332 320 q 254 107 327 134 q 222 102 239 102 q 133 330 136 102 q 133 350 133 339 q 194 616 133 570 q 221 625 208 625 q 270 581 263 625 q 271 564 271 572 q 269 530 271 551 q 267 505 267 513 q 368 376 267 385 q 385 374 377 374 q 509 547 509 376 q 431 705 509 675 q 389 712 411 712 q 313 674 338 711 q 217 712 277 712 q 47 486 83 712 q 38 342 38 419 m 349 586 q 347 605 349 600 q 387 635 359 633 q 431 547 431 633 q 389 461 430 463 q 346 522 346 464 q 347 556 346 532 q 349 586 349 578 m 777 477 q 891 327 780 328 q 953 349 933 327 q 973 397 972 370 q 983 445 974 423 q 1016 467 991 467 q 1080 301 1080 465 q 996 90 1080 102 q 985 88 989 88 q 921 122 945 88 q 918 126 920 125 l 857 77 q 911 23 886 38 q 996 3 948 3 q 1171 278 1164 3 q 1171 301 1171 290 q 1080 547 1171 496 q 1020 560 1053 560 q 948 537 972 560 q 922 486 924 514 q 916 435 921 458 q 897 412 910 412 q 856 487 856 414 q 955 617 859 616 l 955 692 q 791 587 823 692 q 777 477 777 543 z "},"බ":{"ha":765,"x_min":38,"x_max":728,"o":"m 38 298 q 221 3 39 4 q 335 66 292 4 q 488 3 385 3 q 728 377 722 3 q 728 397 728 388 q 534 974 728 856 q 350 1020 458 1020 q 137 933 227 1020 q 72 836 94 890 l 165 803 q 281 907 195 878 q 350 920 316 920 q 601 689 543 920 q 629 397 629 575 q 486 102 628 103 q 395 168 415 102 q 389 212 389 189 q 429 320 389 258 q 475 454 472 401 q 308 658 475 639 q 270 661 289 661 q 38 328 47 661 q 38 298 38 313 m 221 98 q 134 298 134 100 q 269 563 136 562 q 377 454 376 560 q 338 342 377 406 q 294 212 297 263 q 298 159 294 184 q 221 98 270 99 z "},"භ":{"ha":906,"x_min":38,"x_max":868,"o":"m 627 95 q 541 144 571 96 q 555 220 555 182 q 475 363 555 335 q 453 369 464 368 q 477 498 469 415 q 545 680 487 642 q 612 696 574 696 q 774 396 773 693 q 627 95 773 96 m 315 334 l 361 266 q 389 282 365 269 q 419 292 407 292 q 460 222 457 285 q 388 113 460 142 q 315 99 357 99 q 168 198 208 99 q 152 288 152 239 q 160 358 152 324 q 267 468 189 467 l 387 469 q 315 334 370 368 m 56 278 q 156 53 56 130 q 315 3 222 3 q 491 64 427 4 q 627 3 541 4 q 868 396 867 5 q 636 788 868 772 q 612 789 624 789 q 438 704 490 788 q 290 802 393 792 q 269 803 278 803 q 119 724 167 803 q 95 631 95 684 q 113 551 95 587 l 38 551 l 38 469 l 110 469 q 65 366 81 439 q 56 278 56 324 m 180 623 q 240 711 180 692 q 271 715 255 715 q 369 651 346 715 q 377 604 377 629 q 376 572 377 593 q 374 551 374 557 l 202 551 q 180 623 180 578 z "},"ච":{"ha":715,"x_min":38,"x_max":678,"o":"m 52 277 q 136 71 52 148 q 339 3 213 3 q 674 381 637 3 q 678 480 678 429 q 332 1020 677 1019 q 129 935 213 1020 q 66 836 88 891 l 161 803 q 277 911 193 884 q 332 920 304 920 q 575 548 557 920 q 576 480 576 514 q 339 102 575 103 q 157 217 198 102 q 146 286 146 251 q 210 431 146 389 q 269 449 237 449 l 430 449 q 437 511 437 483 q 342 694 437 642 q 252 716 300 716 q 114 642 156 716 q 95 563 95 606 q 99 530 95 547 l 38 530 l 38 449 l 114 449 q 52 277 53 380 m 175 560 q 232 633 175 621 q 252 635 243 635 q 345 564 324 635 q 350 528 349 547 l 182 529 q 175 560 175 545 z "},"ඡ":{"ha":793,"x_min":38,"x_max":784,"o":"m 511 555 l 433 555 q 431 604 431 570 q 499 712 431 692 q 529 716 514 716 q 625 636 598 716 q 636 563 636 602 q 635 524 636 536 q 511 555 582 555 m 498 343 q 437 389 448 343 q 435 406 435 397 q 472 465 437 449 l 507 465 q 608 423 570 464 q 498 343 568 345 m 133 304 q 206 450 133 412 q 273 465 236 465 l 377 465 q 354 395 354 435 q 412 285 354 323 q 494 263 448 263 q 647 332 586 264 q 648 304 648 321 q 537 121 648 179 q 391 88 473 88 q 175 179 245 88 q 133 304 133 232 m 38 304 q 175 45 38 132 q 391 -12 267 -12 q 667 98 568 -12 q 743 304 743 182 q 707 450 743 388 q 720 567 720 510 q 640 769 719 709 q 779 996 758 895 q 784 1054 784 1024 l 689 1054 q 618 880 689 971 q 549 802 591 846 q 532 803 543 803 q 391 738 444 802 q 250 803 336 803 q 103 727 152 803 q 77 632 77 685 q 123 507 79 560 q 38 304 38 437 m 160 628 q 218 711 160 692 q 252 716 235 716 q 342 655 319 716 q 350 604 350 633 q 349 576 350 594 q 349 555 349 560 l 270 555 q 194 544 231 555 q 160 628 161 581 z "},"ද":{"ha":572,"x_min":38,"x_max":617,"o":"m 38 290 q 146 61 38 144 q 245 12 193 27 q 222 -77 222 -31 q 298 -231 222 -174 q 416 -267 350 -267 q 617 -144 540 -266 l 547 -95 q 416 -175 495 -174 q 327 -117 353 -175 q 317 -69 317 -95 q 338 3 319 -28 q 540 111 461 11 q 549 125 545 118 l 473 180 q 320 104 416 106 q 171 178 225 104 q 136 290 136 227 q 208 437 136 382 q 317 472 256 472 l 487 472 q 509 601 509 543 q 412 784 509 734 q 326 804 372 804 q 179 728 228 804 q 153 633 153 686 q 183 532 153 581 q 47 363 79 479 q 38 290 38 327 m 237 629 q 293 712 237 693 q 326 718 309 718 q 414 655 392 718 q 422 605 422 632 q 418 562 422 579 q 317 564 361 564 q 260 559 283 564 q 237 629 237 589 z "},"ඩ":{"ha":776,"x_min":38,"x_max":738,"o":"m 42 252 q 148 18 42 68 q 222 3 182 3 q 369 110 330 3 q 376 133 373 122 q 490 7 401 28 q 530 3 510 3 q 726 195 690 3 q 738 397 738 266 q 544 974 738 856 q 359 1020 468 1020 q 146 935 236 1020 q 81 836 102 891 l 175 803 q 289 907 203 876 q 359 920 324 920 q 610 689 552 920 q 639 397 639 575 q 590 130 639 187 q 530 102 567 102 q 420 301 430 102 q 420 320 420 311 l 335 320 q 256 107 330 133 q 227 102 241 102 q 137 252 138 104 q 197 429 137 381 q 255 449 222 449 l 449 449 q 454 511 454 490 q 359 694 454 643 q 271 716 319 716 q 133 643 175 716 q 113 563 113 608 q 117 529 113 545 l 38 529 l 38 449 l 96 449 q 43 288 53 401 q 42 252 42 269 m 194 560 q 251 633 194 621 q 271 635 262 635 q 361 571 339 635 q 369 528 369 551 l 199 529 q 194 560 194 548 z "},"ඪ":{"ha":757,"x_min":19,"x_max":728,"o":"m 553 732 q 453 785 479 732 q 445 819 445 803 q 479 911 445 856 q 488 928 486 922 q 578 735 549 853 q 553 732 562 732 m 353 817 q 429 686 353 738 q 563 646 488 646 q 598 648 578 646 q 628 369 628 507 q 549 110 628 145 q 511 102 532 102 q 401 301 411 102 q 401 320 401 311 l 316 320 q 208 102 312 103 q 118 252 122 113 q 178 429 118 381 q 236 449 203 449 l 430 449 q 437 511 437 483 q 342 694 437 642 q 252 716 300 716 q 114 642 156 716 q 95 563 95 606 q 99 529 95 545 l 19 529 l 19 449 l 79 449 q 24 286 34 401 q 23 252 23 269 q 129 18 23 68 q 203 3 163 3 q 355 125 319 3 q 358 133 357 129 q 469 8 384 30 q 511 3 490 3 q 718 203 684 3 q 728 369 728 266 q 600 930 728 707 q 448 1097 533 1040 l 396 1036 l 401 1031 q 423 990 423 1012 q 393 930 423 974 q 353 817 353 869 m 176 560 q 233 633 176 623 q 252 635 243 635 q 342 571 320 635 q 350 528 350 551 l 182 529 q 176 560 176 543 z "},"ධ":{"ha":776,"x_min":38,"x_max":739,"o":"m 38 301 q 68 472 38 404 q 201 613 110 582 q 255 623 228 623 q 350 594 307 621 l 315 507 q 262 522 288 522 q 157 437 195 522 q 156 433 156 434 q 134 300 134 374 q 193 111 134 151 q 227 102 209 102 q 336 307 328 102 q 336 320 336 315 l 422 320 q 532 102 426 103 q 637 316 628 102 q 639 397 639 349 q 491 886 639 791 q 361 920 435 920 q 210 856 271 920 q 176 803 187 831 l 81 836 q 237 994 123 944 q 361 1020 297 1020 q 697 754 617 1020 q 739 397 739 614 q 697 103 739 187 q 532 3 646 4 q 382 115 420 3 q 377 133 380 125 q 250 4 347 19 q 224 3 236 3 q 52 175 91 3 q 38 301 38 232 z "},"එ":{"ha":730,"x_min":38,"x_max":715,"o":"m 545 732 q 445 785 471 732 q 437 819 437 803 q 471 910 437 854 q 480 928 477 921 q 578 736 548 853 q 564 735 574 736 q 545 732 551 732 m 345 817 q 420 685 345 738 q 553 646 480 646 q 597 650 575 646 q 617 465 617 533 q 480 132 617 210 q 359 102 427 102 q 159 218 202 102 q 146 286 146 252 q 210 431 146 389 q 269 449 237 449 l 430 449 q 435 511 435 490 q 340 694 435 643 q 252 716 300 716 q 114 642 156 716 q 95 563 95 606 q 99 530 95 547 l 38 530 l 38 449 l 114 449 q 52 277 53 380 q 141 71 52 146 q 359 3 222 3 q 674 216 590 3 q 715 463 715 320 q 604 907 715 707 q 438 1097 533 1034 l 387 1036 q 415 990 414 1013 q 385 930 415 974 q 345 817 345 869 m 175 560 q 232 633 175 621 q 252 635 243 635 q 345 564 324 635 q 350 528 349 547 l 182 529 q 175 560 175 545 z "},"ඒ":{"ha":730,"x_min":38,"x_max":846,"o":"m 701 932 q 680 935 692 932 l 680 1099 l 682 1099 q 768 1036 758 1099 q 769 1016 769 1025 q 701 932 764 936 m 602 1172 q 608 948 602 1169 q 609 897 608 932 q 609 849 609 863 q 560 956 597 894 q 438 1097 505 1042 l 387 1036 q 415 990 414 1013 q 385 930 415 974 q 345 817 345 869 q 420 685 345 738 q 553 646 480 646 q 597 650 576 646 q 617 465 617 559 q 480 132 617 210 q 359 102 427 102 q 159 218 202 102 q 146 286 146 252 q 210 431 146 389 q 269 449 237 449 l 430 449 q 435 511 435 490 q 340 694 435 643 q 252 716 300 716 q 114 642 156 716 q 95 563 95 606 q 99 530 95 547 l 38 530 l 38 449 l 114 449 q 52 277 53 380 q 141 71 52 146 q 359 3 222 3 q 674 216 590 3 q 715 463 715 320 q 684 703 715 583 l 684 857 q 705 856 692 856 q 830 932 793 856 q 846 1016 846 968 q 684 1172 842 1171 l 602 1172 m 545 732 q 445 785 471 732 q 437 819 437 803 q 471 910 437 854 q 480 928 477 921 q 578 736 548 853 q 564 735 574 736 q 545 732 551 732 m 175 560 q 232 633 175 621 q 252 635 243 635 q 345 564 324 635 q 350 528 349 547 l 182 529 q 175 560 175 545 z "},"ෆ":{"ha":787,"x_min":38,"x_max":750,"o":"m 38 397 q 127 762 38 681 q 240 803 174 803 q 387 696 347 803 q 393 673 391 684 q 511 799 422 780 q 548 803 529 803 q 742 557 712 803 q 750 397 750 490 q 460 3 747 4 l 460 102 q 655 397 655 103 q 548 704 654 703 q 435 494 439 704 q 435 486 435 488 l 353 486 q 266 701 347 678 q 240 704 254 704 q 133 397 133 703 q 328 102 136 103 l 328 3 q 38 397 39 5 z "},"ග":{"ha":876,"x_min":38,"x_max":840,"o":"m 598 96 q 513 145 544 98 q 529 245 529 195 q 471 389 529 339 q 442 407 457 401 q 463 496 463 448 l 463 536 q 552 693 464 671 q 582 696 567 696 q 743 396 742 693 q 598 96 742 98 m 302 389 l 340 317 q 385 343 369 331 q 438 243 434 316 q 369 111 438 146 q 301 96 339 96 q 134 385 136 99 q 279 696 136 694 q 372 635 343 696 q 378 616 376 624 q 370 551 372 586 l 370 515 q 307 392 370 429 q 302 389 304 391 m 38 385 q 301 3 39 4 q 463 64 401 4 q 598 3 513 4 q 840 396 838 5 q 616 788 840 765 q 582 789 598 789 q 426 715 486 788 q 279 789 372 788 q 38 385 39 787 z "},"ඝ":{"ha":793,"x_min":38,"x_max":755,"o":"m 567 556 l 448 556 q 446 604 446 570 q 514 712 446 692 q 544 716 529 716 q 629 662 609 716 q 635 628 635 646 q 608 551 633 585 q 567 556 590 556 m 149 269 q 208 444 149 396 q 267 464 235 464 l 555 464 q 656 328 637 464 q 661 269 661 300 q 576 100 661 113 q 563 99 568 99 q 518 148 524 109 q 533 208 518 161 q 538 243 538 227 q 426 342 538 335 q 406 342 415 342 q 273 258 281 342 q 271 243 271 251 q 286 182 271 228 q 293 148 293 163 q 256 100 293 106 q 247 99 251 99 q 152 225 165 99 q 149 269 149 247 m 54 271 q 156 26 54 87 q 247 3 197 3 q 358 69 326 3 q 372 125 372 96 q 357 201 372 146 q 353 224 353 214 q 406 263 355 262 q 458 224 457 260 q 446 171 458 218 q 439 125 439 146 q 495 22 439 57 q 563 3 526 3 q 742 156 701 3 q 755 271 755 209 q 677 511 754 442 q 719 632 719 567 q 637 780 719 734 q 547 803 595 803 q 406 738 458 802 q 264 803 351 803 q 117 726 164 803 q 94 635 94 685 q 113 556 94 594 l 38 556 l 38 469 l 110 469 q 56 304 65 420 q 54 271 54 288 m 178 628 q 235 711 178 693 q 267 716 251 716 q 357 655 334 716 q 365 604 365 633 q 363 579 365 595 q 363 556 363 563 l 199 556 q 178 628 178 590 z "},"හ":{"ha":875,"x_min":38,"x_max":838,"o":"m 597 95 q 510 144 541 96 q 524 220 524 179 q 439 365 524 339 q 422 369 430 368 q 446 498 438 415 q 514 680 456 642 q 581 696 543 696 q 743 396 742 693 q 597 95 742 96 m 283 334 l 331 266 q 358 282 350 277 q 388 292 376 292 q 430 222 429 288 q 362 110 430 142 q 289 96 330 96 q 133 228 160 96 q 127 289 127 256 q 182 449 127 404 q 239 468 208 468 l 357 468 q 283 334 340 368 m 38 283 q 142 46 38 121 q 289 3 203 3 q 461 64 397 4 q 597 3 511 4 q 838 396 837 5 q 614 788 838 765 q 581 789 597 789 q 408 705 461 788 q 264 802 365 793 q 247 803 255 803 q 100 727 149 803 q 75 632 75 685 q 117 511 76 567 q 38 283 38 442 m 159 628 q 217 711 159 693 q 250 716 233 716 q 339 655 316 716 q 347 604 347 633 q 346 556 347 571 l 227 556 q 186 551 202 556 q 159 628 159 585 z "},"්":{"ha":0,"x_min":-167,"x_max":80,"o":"m -66 932 q -90 935 -77 932 l -90 1099 l -84 1099 q 1 1016 0 1095 q -66 932 -4 936 m -167 1172 l -167 623 l -83 623 l -83 857 q -61 856 -75 856 q 64 932 27 856 q 80 1016 80 968 q -83 1172 76 1171 l -167 1172 z "},"ඉ":{"ha":703,"x_min":38,"x_max":665,"o":"m 127 -168 q 313 -274 205 -273 q 472 -191 419 -274 q 502 -83 502 -144 q 437 52 502 12 q 427 57 431 54 q 624 227 560 96 q 665 420 665 312 q 509 758 665 665 q 338 803 434 803 q 90 674 174 803 q 38 495 38 593 q 79 328 38 399 q 201 229 117 250 q 244 224 222 224 q 392 300 338 224 q 426 406 426 347 q 366 541 425 488 q 256 581 321 581 q 129 509 170 581 q 123 498 126 502 l 123 509 q 203 667 123 610 q 338 705 260 705 q 525 598 463 705 q 566 420 566 526 q 396 141 566 210 q 259 115 332 115 l 262 27 l 296 27 q 408 -80 407 19 q 354 -171 408 -144 q 307 -182 332 -182 q 197 -118 244 -180 l 127 -168 m 152 404 q 201 486 152 460 q 243 495 221 495 q 324 446 298 495 q 334 404 334 426 q 283 321 334 347 q 243 312 263 312 q 163 361 189 312 q 152 404 152 381 z "},"ඊ":{"ha":677,"x_min":46,"x_max":681,"o":"m 557 990 q 594 933 557 949 q 620 928 608 928 q 675 966 659 928 q 681 990 681 977 q 643 1047 681 1031 q 620 1051 631 1051 q 562 1013 578 1051 q 557 990 557 1001 m 191 990 q 228 933 191 949 q 254 928 241 928 q 313 970 294 928 q 320 1000 320 985 q 278 1050 320 1040 q 260 1051 269 1051 q 195 1012 209 1051 q 191 990 191 1001 m 46 362 q 165 54 46 149 q 338 -1 237 -1 q 585 151 507 -1 q 633 372 633 244 q 594 568 633 484 q 397 719 532 708 q 376 720 385 720 q 308 712 336 720 q 480 933 444 849 q 506 1051 506 991 l 410 1051 q 336 875 410 966 q 214 743 294 823 q 47 400 60 589 q 46 362 46 381 m 144 361 l 144 363 l 144 369 l 144 370 q 227 585 148 514 q 354 631 278 631 q 513 506 468 631 q 533 370 533 446 q 442 129 533 198 q 339 96 397 96 q 164 229 210 96 q 144 361 144 288 z "},"ජ":{"ha":793,"x_min":38,"x_max":784,"o":"m 511 555 l 433 555 q 431 604 431 570 q 499 712 431 692 q 529 716 514 716 q 614 662 594 716 q 620 628 620 646 q 587 544 618 579 q 511 555 549 555 m 133 304 q 206 450 133 412 q 273 465 236 465 l 507 465 q 637 372 606 465 q 648 304 648 340 q 537 121 648 179 q 391 88 473 88 q 175 179 245 88 q 133 304 133 232 m 38 304 q 175 45 38 132 q 391 -12 267 -12 q 667 98 568 -12 q 743 304 743 182 q 658 507 742 438 q 704 632 704 563 q 640 769 703 720 q 779 996 758 895 q 784 1054 784 1024 l 689 1054 q 618 880 689 971 q 549 802 591 846 q 532 803 543 803 q 391 738 444 802 q 250 803 336 803 q 103 727 152 803 q 77 632 77 685 q 123 507 79 560 q 38 304 38 437 m 160 628 q 218 711 160 692 q 252 716 235 716 q 342 655 319 716 q 350 604 350 633 q 349 576 350 594 q 349 555 349 560 l 270 555 q 194 544 231 555 q 160 628 161 581 z "},"ඣ":{"ha":1397,"x_min":38,"x_max":1360,"o":"m 659 301 q 751 33 659 103 q 845 3 792 3 q 991 110 952 3 q 998 133 996 122 q 1112 7 1024 28 q 1153 3 1133 3 q 1348 195 1313 3 q 1360 397 1360 266 q 1166 974 1360 856 q 982 1020 1090 1020 q 766 932 856 1020 q 703 836 723 888 l 798 803 q 911 907 826 876 q 982 920 947 920 q 1230 697 1172 920 q 1260 397 1260 581 q 1218 136 1260 195 q 1153 102 1192 103 q 1044 283 1055 102 q 1043 320 1043 301 l 958 320 q 863 103 952 117 q 848 102 854 102 q 760 237 776 102 q 755 300 755 269 q 779 433 755 377 q 883 522 821 515 q 936 507 910 521 l 972 594 q 876 623 926 623 q 850 621 859 623 q 593 784 762 779 q 377 688 475 783 q 247 799 343 781 q 209 803 228 803 q 61 726 109 803 q 38 635 38 685 q 137 467 38 521 q 176 449 156 456 l 38 281 l 58 191 q 71 195 66 195 q 91 161 90 193 l 91 129 q 214 3 94 4 q 319 69 290 3 q 326 90 324 80 q 388 14 335 37 q 441 3 412 3 q 600 160 563 3 q 612 275 612 214 q 441 578 612 553 q 412 579 427 579 l 403 579 q 593 686 500 681 q 762 579 708 685 q 689 472 715 537 q 659 301 659 403 m 434 98 q 366 216 369 100 l 366 267 l 283 267 l 283 216 q 216 98 279 99 q 163 175 163 99 l 163 198 q 138 269 161 260 q 313 472 193 326 q 389 498 349 498 q 506 382 477 498 q 517 275 517 336 q 434 98 515 99 m 121 629 q 174 711 121 690 q 208 716 190 716 q 296 655 273 716 q 305 605 304 632 l 225 507 q 121 629 122 536 z "},"ඥ":{"ha":1318,"x_min":38,"x_max":1371,"o":"m 978 -77 q 1054 -231 978 -174 q 1172 -267 1105 -267 q 1371 -144 1294 -266 l 1302 -95 q 1172 -175 1249 -174 q 1081 -114 1107 -175 q 1073 -69 1073 -92 q 1095 4 1074 -28 q 1305 125 1226 14 l 1229 180 q 1076 104 1172 106 q 926 178 981 104 q 891 290 891 227 q 963 437 891 382 q 1073 472 1012 472 l 1241 472 q 1264 601 1264 540 q 1166 784 1264 734 q 1080 804 1127 804 q 939 736 987 803 q 798 789 884 789 q 640 713 700 788 q 494 789 590 788 q 342 728 399 788 q 228 788 301 787 q 56 590 98 788 q 38 385 38 505 q 189 9 38 47 q 222 4 205 5 l 222 96 q 132 385 132 107 q 203 686 132 637 q 231 696 217 696 q 296 655 275 694 q 252 385 252 556 q 515 3 254 4 q 722 132 667 3 q 743 245 743 183 q 685 389 743 339 q 656 407 671 401 q 677 496 677 448 l 677 536 q 769 693 680 673 q 798 696 784 696 q 897 647 864 696 q 907 627 903 636 q 939 532 910 576 q 802 363 834 479 q 792 290 792 327 q 901 61 792 144 q 1000 12 947 27 q 978 -77 978 -28 m 991 629 q 1046 712 991 692 q 1080 718 1063 718 q 1169 656 1145 718 q 1177 605 1177 633 q 1172 562 1177 586 q 1073 564 1115 564 q 1016 559 1039 564 q 991 629 991 587 m 517 389 l 555 317 q 600 343 583 331 q 652 243 648 316 q 583 111 652 146 q 515 96 553 96 q 349 385 350 99 q 494 696 350 694 q 586 635 557 696 q 593 616 590 624 q 585 551 586 586 l 585 515 q 521 392 585 429 q 517 389 518 391 z "},"ක":{"ha":939,"x_min":41,"x_max":901,"o":"m 41 281 l 61 191 q 73 195 68 195 q 94 161 92 193 q 92 144 94 155 q 92 129 92 133 q 216 3 95 4 q 319 65 290 3 q 327 90 326 77 q 392 12 339 35 q 442 3 415 3 q 556 58 514 4 q 680 3 601 4 q 901 369 899 5 q 750 761 901 661 q 609 803 686 803 q 380 689 488 802 q 247 799 345 781 q 210 803 228 803 q 65 728 113 803 q 41 635 41 686 q 140 467 41 521 q 179 449 159 456 l 41 281 m 680 95 q 598 148 616 96 q 613 275 613 206 q 442 578 613 553 q 414 579 429 579 l 404 579 q 547 696 486 675 q 602 705 574 705 q 774 567 723 705 q 804 369 804 486 q 680 95 803 96 m 435 98 q 369 216 370 100 l 369 267 l 285 267 l 285 216 q 217 98 279 102 q 165 175 165 99 l 165 198 q 140 269 164 259 q 316 472 172 301 q 391 498 349 498 q 507 382 479 498 q 518 275 518 336 q 435 98 517 99 m 123 629 q 176 711 123 690 q 209 716 193 716 q 298 654 274 716 q 308 606 307 632 l 227 507 q 123 629 125 538 z "},"ඛ":{"ha":766,"x_min":38,"x_max":728,"o":"m 216 95 q 133 298 133 98 q 269 563 140 556 q 376 479 366 563 q 377 454 377 467 q 339 336 377 404 q 304 256 312 286 q 282 138 288 190 q 216 95 255 96 m 38 298 q 201 4 39 5 q 281 30 247 5 q 294 -88 283 -31 l 389 -85 q 374 79 374 -16 q 376 136 374 119 q 381 122 377 130 q 387 107 385 111 q 486 8 418 24 q 532 3 507 3 q 728 397 728 4 q 534 974 728 856 q 350 1020 458 1020 q 137 933 227 1020 q 72 836 94 890 l 165 803 q 279 907 194 876 q 350 920 315 920 q 601 689 543 920 q 629 397 629 575 q 564 130 629 193 q 522 111 544 111 q 438 176 464 113 q 420 227 431 191 q 408 262 412 251 l 410 264 q 429 301 416 278 q 475 435 471 377 q 475 454 475 445 q 270 661 472 659 q 38 328 47 661 q 38 298 38 313 z "},"ල":{"ha":783,"x_min":38,"x_max":745,"o":"m 38 282 q 182 -126 38 0 q 408 -205 274 -205 q 688 -65 597 -205 q 735 58 723 -8 l 637 73 q 525 -79 616 -30 q 408 -106 473 -106 q 184 46 255 -106 q 138 282 138 144 q 247 635 138 524 q 414 704 315 704 q 609 598 545 704 q 646 450 646 534 q 543 228 646 256 q 509 224 526 224 q 425 274 452 224 q 414 319 414 296 q 473 416 414 385 q 522 430 496 426 l 522 517 l 282 517 l 282 433 l 377 433 q 319 309 320 389 q 392 160 319 212 q 510 127 441 127 q 715 274 655 127 q 745 450 745 351 q 655 699 745 597 q 414 803 563 803 q 85 568 178 803 q 38 282 38 446 z "},"ළ":{"ha":749,"x_min":38,"x_max":711,"o":"m 38 180 q 152 -122 38 -15 q 384 -206 243 -206 q 661 -69 570 -206 q 711 57 699 -11 l 613 72 q 502 -79 593 -30 q 384 -107 449 -107 q 171 24 235 -107 q 137 180 137 94 q 221 420 138 350 q 216 373 216 400 q 304 217 216 267 q 430 187 357 187 q 621 285 572 187 q 640 366 640 323 l 551 366 q 476 278 551 297 q 426 273 453 273 q 302 345 328 273 q 296 382 296 363 q 320 450 297 430 l 654 450 q 675 604 675 532 q 595 789 675 746 q 540 803 570 803 q 430 726 461 802 q 315 803 399 802 q 180 693 206 803 q 175 636 175 666 q 210 517 176 559 q 62 334 107 464 q 38 180 38 263 m 590 538 l 469 538 l 469 574 l 469 614 q 536 715 473 713 q 598 613 597 712 q 590 538 598 583 m 296 538 q 259 598 270 541 q 256 627 256 614 q 300 712 256 697 q 317 715 309 715 q 391 614 384 712 q 392 574 392 602 l 392 538 l 296 538 z "},"ම":{"ha":738,"x_min":38,"x_max":700,"o":"m 363 387 q 312 463 315 396 q 317 522 312 481 q 324 590 324 567 q 323 616 324 608 q 358 632 334 632 q 414 552 404 632 q 415 519 415 536 q 363 387 414 388 m 38 401 q 161 68 38 171 q 362 3 241 3 q 693 355 651 3 q 700 480 700 414 q 355 1020 699 1019 q 149 932 232 1020 q 90 836 111 890 l 183 803 q 304 913 217 888 q 355 920 330 920 q 598 548 581 920 q 600 480 600 514 q 362 102 598 103 q 145 274 195 102 q 129 401 129 334 q 184 617 129 581 q 208 624 197 624 q 245 574 244 621 q 240 519 245 556 q 233 458 233 479 q 323 311 233 335 q 362 307 342 307 q 492 519 488 319 q 399 705 492 678 q 365 709 382 709 q 288 682 319 708 q 209 708 256 708 q 58 567 102 708 q 38 401 38 495 z "},"ා":{"ha":324,"x_min":3,"x_max":293,"o":"m 3 716 q 88 751 33 751 q 254 623 198 751 q 293 384 293 529 q 175 42 293 121 q 88 15 134 15 q 3 50 34 16 l 33 133 q 81 113 56 114 q 193 343 184 113 q 194 384 194 363 q 81 654 184 642 q 33 635 57 652 l 3 716 z "},"ෑ":{"ha":414,"x_min":0,"x_max":384,"o":"m 0 214 q 95 24 0 73 q 191 3 137 3 q 378 171 349 3 q 384 240 384 203 l 296 240 q 231 103 296 132 q 190 95 212 95 q 92 191 102 95 q 91 214 91 203 q 182 378 91 311 q 289 422 239 422 l 304 422 l 304 505 l 136 505 l 304 651 l 304 738 l 22 738 l 22 648 l 172 648 l 22 505 l 22 422 l 103 422 q 0 214 4 332 z "},"ැ":{"ha":397,"x_min":0,"x_max":389,"o":"m 0 220 q 87 33 0 88 q 197 3 134 3 q 384 171 354 3 q 389 240 389 203 l 301 240 q 244 110 301 142 q 199 99 224 99 q 98 184 114 99 q 95 220 95 201 q 168 414 95 302 q 270 556 195 454 q 339 651 315 617 l 339 738 l 57 738 l 57 648 l 225 648 q 80 444 88 457 q 0 220 0 320 z "},"ෛ":{"ha":1203,"x_min":23,"x_max":1180,"o":"m 320 361 q 361 427 320 407 q 393 435 377 435 l 395 435 q 463 389 444 434 q 468 361 468 376 q 426 294 468 315 q 393 286 410 286 q 328 328 349 286 q 320 361 320 345 m 237 365 q 302 239 237 285 q 312 232 308 235 q 388 210 345 210 q 487 260 454 212 q 378 104 476 136 q 321 96 351 96 q 149 217 203 96 q 117 380 117 288 q 203 624 117 532 q 346 689 266 688 q 490 623 427 689 q 499 612 495 617 l 567 670 q 346 783 477 781 q 106 652 199 783 q 23 380 23 538 q 145 62 23 163 q 321 3 218 3 q 543 140 479 3 q 572 283 572 206 q 476 502 572 446 q 395 522 439 522 q 264 453 312 522 q 237 365 237 412 m 926 361 q 968 427 926 407 q 1001 435 985 435 l 1002 435 q 1070 389 1051 434 q 1076 361 1076 376 q 1034 294 1076 315 q 1001 286 1017 286 q 935 328 955 286 q 926 361 926 343 m 845 365 q 909 239 845 285 q 918 232 914 235 q 994 210 952 210 q 1095 263 1063 212 q 983 104 1082 134 q 928 96 958 96 q 757 214 812 96 q 724 380 724 286 q 811 624 724 532 q 952 689 872 688 q 1096 624 1034 689 q 1107 612 1101 617 l 1173 670 q 952 783 1084 781 q 712 652 806 783 q 631 380 631 538 q 753 61 631 161 q 928 3 826 3 q 1150 140 1086 3 q 1180 283 1180 206 q 1084 502 1180 446 q 1002 522 1047 522 q 872 453 920 522 q 845 365 845 412 z "},"ෞ":{"ha":1236,"x_min":23,"x_max":1162,"o":"m 320 361 q 361 427 320 407 q 393 435 377 435 l 395 435 q 463 389 444 434 q 468 361 468 376 q 426 294 468 315 q 393 286 410 286 q 328 328 349 286 q 320 361 320 345 m 237 365 q 302 239 237 285 q 312 232 308 235 q 388 210 345 210 q 487 260 454 212 q 378 104 476 136 q 321 96 351 96 q 149 217 203 96 q 117 380 117 288 q 203 624 117 532 q 346 689 266 688 q 490 623 427 689 q 499 612 495 617 l 567 670 q 346 783 477 781 q 106 652 199 783 q 23 380 23 538 q 145 62 23 163 q 321 3 218 3 q 543 140 479 3 q 572 283 572 206 q 476 502 572 446 q 395 522 439 522 q 264 453 312 522 q 237 365 237 412 m 769 477 q 883 327 772 328 q 945 349 925 327 q 965 397 964 370 q 975 445 966 423 q 1008 467 983 467 q 1072 301 1072 465 q 987 90 1072 102 q 977 88 981 88 q 913 122 937 88 q 910 126 911 125 l 849 77 q 903 23 878 38 q 987 3 940 3 q 1162 278 1156 3 q 1162 301 1162 290 q 1072 547 1162 496 q 1012 560 1044 560 q 940 537 964 560 q 914 486 916 514 q 907 435 913 458 q 888 412 902 412 q 848 487 848 414 q 947 617 850 616 l 947 692 q 783 587 815 692 q 769 477 769 543 z "},"ෙ":{"ha":595,"x_min":23,"x_max":572,"o":"m 320 361 q 361 427 320 407 q 393 435 377 435 l 395 435 q 463 389 444 434 q 468 361 468 376 q 426 294 468 315 q 393 286 410 286 q 328 328 349 286 q 320 361 320 345 m 237 365 q 302 239 237 285 q 312 232 308 235 q 388 210 345 210 q 487 260 454 212 q 378 104 476 136 q 321 96 351 96 q 149 217 203 96 q 117 380 117 288 q 203 624 117 532 q 346 689 266 688 q 490 623 427 689 q 499 612 495 617 l 567 670 q 346 783 477 781 q 106 652 199 783 q 23 380 23 538 q 145 62 23 163 q 321 3 218 3 q 543 140 479 3 q 572 283 572 206 q 476 502 572 446 q 395 522 439 522 q 264 453 312 522 q 237 365 237 412 z "},"ේ":{"ha":949,"x_min":23,"x_max":795,"o":"m 320 361 q 361 427 320 407 q 393 435 377 435 l 395 435 q 463 389 444 434 q 468 361 468 376 q 426 294 468 315 q 393 286 410 286 q 328 328 349 286 q 320 361 320 345 m 237 365 q 302 239 237 285 q 312 232 308 235 q 388 210 345 210 q 487 260 454 212 q 378 104 476 136 q 321 96 351 96 q 149 217 203 96 q 117 380 117 288 q 203 624 117 532 q 346 689 266 688 q 490 623 427 689 q 499 612 495 617 l 548 654 l 548 623 l 632 623 l 632 856 q 654 854 640 854 q 779 932 743 854 q 795 1016 795 968 q 632 1172 791 1171 l 548 1172 l 548 692 q 346 783 465 783 q 106 652 199 783 q 23 380 23 538 q 145 62 23 163 q 321 3 218 3 q 543 140 479 3 q 572 283 572 206 q 476 502 572 446 q 395 522 439 522 q 264 453 312 522 q 237 365 237 412 m 648 932 q 636 933 644 932 q 625 933 628 933 l 625 1097 l 631 1097 q 716 1016 715 1093 q 648 932 715 933 z "},"ි":{"ha":0,"x_min":-705,"x_max":-37,"o":"m -705 914 q -563 1133 -705 1065 q -372 1172 -480 1172 q -94 1070 -184 1172 q -37 914 -37 1005 q -100 761 -37 826 q -159 720 -127 734 l -227 724 l -227 773 q -136 892 -146 806 q -134 914 -134 905 q -237 1051 -134 1008 q -372 1074 -296 1074 q -583 993 -524 1074 q -608 914 -608 956 q -536 783 -608 826 q -515 773 -525 777 l -515 724 l -583 720 q -692 841 -659 751 q -705 914 -705 879 z "},"ී":{"ha":0,"x_min":-705,"x_max":-37,"o":"m -269 869 q -228 933 -269 916 q -201 939 -216 939 q -138 897 -156 939 q -133 869 -133 883 q -174 807 -133 825 q -201 802 -187 802 q -263 842 -245 802 q -269 869 -269 856 m -354 869 q -288 743 -354 788 q -202 718 -248 718 q -138 731 -170 718 q -39 875 -56 764 q -37 914 -37 895 q -180 1134 -37 1066 q -372 1172 -263 1172 q -647 1072 -556 1172 q -705 914 -705 1006 q -642 761 -705 826 q -583 720 -614 734 l -515 724 l -515 773 q -606 892 -595 806 q -608 914 -608 905 q -511 1050 -608 1004 q -372 1078 -453 1078 q -148 986 -193 1077 q -214 1010 -178 1010 q -331 949 -290 1010 q -354 869 -354 914 z "},"ෳ":{"ha":425,"x_min":8,"x_max":401,"o":"m 8 477 q 100 678 8 640 q 186 692 136 692 l 186 617 q 87 487 88 614 q 127 412 88 414 q 148 452 144 412 q 180 538 156 517 q 251 560 206 560 q 397 370 376 560 q 401 301 401 336 q 227 3 393 9 q 200 5 213 3 q 178 9 187 7 q 158 16 168 11 q 141 24 148 20 q 127 33 134 27 q 115 43 119 39 q 106 53 111 46 q 98 62 100 60 q 92 71 96 65 l 88 77 l 149 126 q 155 119 151 125 q 216 88 180 90 q 309 262 300 88 q 311 301 311 281 q 247 467 309 465 q 209 427 217 467 q 195 366 198 372 q 122 327 176 328 q 8 477 9 328 z "},"ෟ":{"ha":425,"x_min":8,"x_max":401,"o":"m 8 477 q 100 678 8 640 q 186 692 136 692 l 186 617 q 87 487 88 614 q 127 412 88 414 q 148 452 144 412 q 180 538 156 517 q 251 560 206 560 q 397 370 376 560 q 401 301 401 336 q 227 3 393 9 q 200 5 213 3 q 178 9 187 7 q 158 16 168 11 q 141 24 148 20 q 127 33 134 27 q 115 43 119 39 q 106 53 111 46 q 98 62 100 60 q 92 71 96 65 l 88 77 l 149 126 q 155 119 151 125 q 216 88 180 90 q 309 262 300 88 q 311 301 311 281 q 247 467 309 465 q 209 427 217 467 q 195 366 198 372 q 122 327 176 328 q 8 477 9 328 z "},"ො":{"ha":1370,"x_min":23,"x_max":1317,"o":"m 320 361 q 361 427 320 407 q 393 435 377 435 l 395 435 q 463 389 444 434 q 468 361 468 376 q 426 294 468 315 q 393 286 410 286 q 328 328 349 286 q 320 361 320 345 m 237 365 q 302 239 237 285 q 312 232 308 235 q 388 210 345 210 q 487 260 454 212 q 378 104 476 136 q 321 96 351 96 q 149 217 203 96 q 117 380 117 288 q 203 624 117 532 q 346 689 266 688 q 490 623 427 689 q 499 612 495 617 l 567 670 q 346 783 477 781 q 106 652 199 783 q 23 380 23 538 q 145 62 23 163 q 321 3 218 3 q 543 140 479 3 q 572 283 572 206 q 476 502 572 446 q 395 522 439 522 q 264 453 312 522 q 237 365 237 412 m 1027 719 l 1057 637 q 1105 656 1081 655 q 1217 434 1207 656 q 1218 387 1218 411 q 1105 115 1211 125 q 1057 136 1080 117 l 1027 53 q 1112 18 1059 18 q 1278 148 1223 18 q 1317 387 1317 240 q 1199 727 1317 647 q 1112 754 1160 754 q 1027 719 1057 753 z "},"ෝ":{"ha":1321,"x_min":23,"x_max":1265,"o":"m 320 361 q 361 427 320 407 q 393 435 377 435 l 395 435 q 463 389 444 434 q 468 361 468 376 q 426 294 468 315 q 393 286 410 286 q 328 328 349 286 q 320 361 320 345 m 237 365 q 302 239 237 285 q 312 232 308 235 q 388 210 345 210 q 487 260 454 212 q 378 104 476 136 q 321 96 351 96 q 149 217 203 96 q 117 380 117 288 q 203 624 117 532 q 346 689 266 688 q 490 623 427 689 q 499 612 495 617 l 567 670 q 346 783 477 781 q 106 652 199 783 q 23 380 23 538 q 145 62 23 163 q 321 3 218 3 q 543 140 479 3 q 572 283 572 206 q 476 502 572 446 q 395 522 439 522 q 264 453 312 522 q 237 365 237 412 m 1119 932 q 1095 935 1107 932 l 1095 1099 l 1101 1099 q 1187 1016 1185 1095 q 1119 932 1181 936 m 1017 1172 l 1017 754 q 970 727 987 746 l 1001 647 q 1042 665 1017 663 q 1150 541 1119 665 q 1165 389 1165 477 q 1076 122 1165 163 q 1042 114 1059 114 q 1001 132 1016 115 l 970 52 q 1046 22 998 22 q 1222 152 1164 22 q 1264 389 1264 245 q 1143 727 1264 644 q 1103 747 1123 741 l 1103 857 q 1123 856 1111 856 q 1249 932 1213 856 q 1265 1016 1265 968 q 1103 1172 1261 1171 l 1017 1172 z "},"ෘ":{"ha":385,"x_min":0,"x_max":358,"o":"m 0 195 q 52 41 0 95 q 132 7 85 7 q 217 24 152 7 q 247 30 236 30 q 289 4 271 28 l 358 49 q 311 221 311 118 q 326 414 311 239 q 331 543 331 486 q 193 746 331 734 q 171 747 182 747 q 8 549 9 745 q 11 500 8 534 l 96 500 q 95 549 95 518 q 171 659 98 658 q 243 545 241 656 q 231 368 243 464 q 148 391 197 391 q 26 312 66 391 q 0 195 0 262 m 157 92 q 87 199 88 95 q 137 298 87 277 q 164 304 151 304 q 221 283 195 302 q 217 213 217 244 q 233 104 217 151 l 227 104 q 190 98 216 104 q 157 92 167 92 z "},"ෲ":{"ha":829,"x_min":0,"x_max":739,"o":"m 381 195 q 433 41 381 95 q 514 7 467 7 q 598 24 536 7 q 628 30 616 30 q 670 4 652 28 l 739 49 q 693 221 693 119 q 708 414 693 239 q 713 543 713 486 q 581 746 713 730 q 552 747 566 747 q 389 549 391 745 q 392 500 389 534 l 479 500 q 476 549 476 518 q 552 659 479 658 q 624 545 623 656 q 612 368 624 464 q 530 391 579 391 q 406 309 446 391 q 381 195 381 260 m 538 92 q 469 199 471 95 q 519 298 469 279 q 545 304 533 304 q 602 283 576 302 q 598 213 598 244 q 614 104 598 151 l 608 104 q 571 98 597 104 q 538 92 548 92 m 0 195 q 52 41 0 95 q 132 7 85 7 q 217 24 152 7 q 247 30 236 30 q 289 4 271 28 l 358 49 q 311 221 311 118 q 326 414 311 239 q 331 543 331 486 q 193 746 331 734 q 171 747 182 747 q 8 549 9 745 q 11 500 8 534 l 96 500 q 95 549 95 518 q 171 659 98 658 q 243 545 241 656 q 231 368 243 464 q 148 391 197 391 q 26 312 66 391 q 0 195 0 262 m 157 92 q 87 199 88 95 q 137 298 87 277 q 164 304 151 304 q 221 283 195 302 q 217 213 217 244 q 233 104 217 151 l 227 104 q 190 98 216 104 q 157 92 167 92 z "},"ු":{"ha":0,"x_min":-674,"x_max":-69,"o":"m -674 -155 q -556 -275 -671 -274 l -69 -275 l -69 305 l -142 255 l -164 156 l -164 -182 l -534 -182 q -576 -132 -575 -179 q -571 -83 -576 -106 l -665 -73 q -674 -155 -674 -123 z "},"ූ":{"ha":0,"x_min":-674,"x_max":-71,"o":"m -674 -155 q -589 -271 -674 -251 q -549 -275 -570 -275 q -410 -232 -506 -275 q -289 -195 -330 -195 q -165 -275 -214 -197 l -71 -275 l -71 305 l -121 255 l -165 156 l -165 -152 q -279 -102 -217 -102 q -430 -146 -335 -102 q -532 -179 -498 -179 q -579 -132 -575 -172 q -579 -127 -579 -129 q -579 -121 -579 -125 q -578 -117 -579 -118 q -578 -112 -578 -115 q -577 -107 -578 -109 q -576 -102 -576 -106 q -575 -96 -575 -98 q -575 -90 -575 -95 l -574 -85 l -666 -73 q -674 -155 -674 -118 z "},"ඹ":{"ha":772,"x_min":38,"x_max":735,"o":"m 38 342 q 172 9 38 49 q 221 3 195 3 q 332 69 300 3 q 346 125 346 96 q 331 201 346 146 q 327 224 327 214 q 380 263 330 262 q 433 224 431 260 q 420 171 433 218 q 414 125 414 146 q 469 22 414 57 q 537 3 500 3 q 727 236 699 3 q 735 397 735 300 q 541 974 735 856 q 357 1020 465 1020 q 144 935 233 1020 q 79 836 99 891 l 172 803 q 286 907 201 876 q 357 920 321 920 q 605 697 547 920 q 635 397 635 581 q 583 122 635 174 q 537 102 563 102 q 494 137 502 102 q 492 151 492 145 q 507 212 492 165 q 514 247 514 231 q 404 343 514 336 q 380 345 392 345 q 247 267 259 345 q 245 247 245 258 q 260 186 245 232 q 267 151 267 167 q 235 103 267 113 q 221 102 228 102 q 133 331 136 102 q 133 350 133 340 q 191 614 133 567 q 220 625 205 625 q 270 578 264 625 q 271 564 271 571 q 269 530 271 551 q 267 505 267 513 q 368 376 267 385 q 385 374 377 374 q 509 547 509 376 q 431 705 509 675 q 389 712 411 712 q 313 674 338 711 q 217 712 277 712 q 47 486 83 712 q 38 342 38 419 m 349 586 q 347 605 349 600 q 387 635 359 633 q 431 547 431 633 q 389 461 430 463 q 346 522 346 464 q 347 556 346 532 q 349 586 349 578 z "},"න":{"ha":914,"x_min":39,"x_max":884,"o":"m 637 95 q 547 140 575 96 q 574 283 574 201 q 456 529 574 491 q 438 533 446 532 q 404 538 425 536 q 420 572 410 552 q 532 693 475 670 q 597 705 560 705 q 758 579 708 705 q 791 370 791 496 q 637 95 781 104 m 39 302 q 151 47 39 125 q 301 3 214 3 q 494 66 422 4 q 637 3 544 4 q 884 350 878 3 q 884 370 884 361 q 705 781 884 700 q 597 803 655 803 q 393 701 472 802 q 251 802 350 791 q 229 803 240 803 q 84 728 132 803 q 60 635 60 686 q 174 457 60 515 q 228 435 199 444 q 267 427 250 429 q 168 334 224 335 q 129 345 141 335 q 130 358 130 350 q 132 373 132 369 l 45 378 q 39 302 39 342 m 301 98 q 136 232 165 98 q 130 263 132 247 q 182 255 157 255 q 339 380 279 255 q 373 460 354 410 q 479 283 477 448 q 363 106 479 138 q 301 98 334 98 m 252 506 q 142 628 146 540 q 195 711 142 690 q 228 716 212 716 q 316 658 292 716 q 327 602 327 632 l 327 586 q 294 498 316 556 q 252 506 273 500 z "},"ඳ":{"ha":799,"x_min":38,"x_max":808,"o":"m 414 -77 q 490 -231 414 -174 q 608 -267 541 -267 q 808 -144 730 -266 l 738 -95 q 608 -175 685 -174 q 517 -114 543 -175 q 509 -69 509 -92 q 530 4 510 -28 q 736 119 661 12 q 741 125 739 122 l 665 180 q 511 104 608 106 q 362 178 416 104 q 327 290 327 227 q 399 437 327 382 q 509 472 448 472 l 678 472 q 700 601 700 543 q 602 784 700 734 q 515 804 563 804 q 373 735 423 803 q 258 788 331 787 q 60 590 109 788 q 38 385 38 505 q 189 9 38 47 q 222 4 205 5 l 222 96 q 132 385 132 107 q 213 681 132 621 q 258 696 235 696 q 342 633 323 696 q 343 628 343 629 q 374 532 345 578 q 237 363 270 479 q 228 290 228 327 q 336 61 228 144 q 435 12 382 27 q 414 -77 414 -28 m 427 629 q 481 712 427 692 q 515 718 499 718 q 605 656 581 718 q 613 605 613 633 q 609 562 613 595 q 509 564 552 564 q 452 559 475 564 q 427 629 427 587 z "},"ඦ":{"ha":1006,"x_min":38,"x_max":998,"o":"m 726 555 l 646 555 l 646 604 q 713 712 646 692 q 743 716 728 716 q 829 662 808 716 q 834 628 834 646 q 802 544 833 579 q 726 555 764 555 m 346 304 q 422 452 346 414 q 487 465 452 465 l 720 465 q 850 372 819 465 q 861 304 861 340 q 750 121 861 179 q 604 88 686 88 q 389 176 460 88 q 346 304 346 232 m 252 304 q 389 45 252 132 q 605 -12 481 -12 q 882 98 783 -12 q 958 304 958 182 q 872 507 956 438 q 918 632 918 563 q 854 769 917 720 q 993 996 972 895 q 998 1054 998 1024 l 902 1054 q 833 880 902 970 q 764 802 804 845 q 746 803 757 803 q 605 736 655 802 q 463 803 552 803 q 330 743 378 802 q 228 788 290 788 q 56 590 98 788 q 38 385 38 505 q 189 9 38 47 q 222 4 205 5 l 222 96 q 132 385 132 107 q 203 686 132 637 q 231 696 217 696 q 293 659 273 694 q 292 632 292 650 q 338 507 293 562 q 252 304 252 437 m 374 628 q 433 711 374 693 q 465 716 449 716 q 556 651 534 716 q 563 604 563 629 l 563 555 l 483 555 q 407 544 444 555 q 374 628 374 582 z "},"ඞ":{"ha":803,"x_min":39,"x_max":738,"o":"m 361 484 q 311 490 342 484 q 321 544 321 517 q 296 627 320 590 l 305 627 q 418 544 416 624 q 372 486 418 492 q 361 484 366 484 m 42 252 q 148 18 42 68 q 222 3 182 3 q 369 110 330 3 q 376 133 373 122 q 490 7 401 28 q 530 3 510 3 q 726 195 690 3 q 738 397 738 266 q 544 974 738 856 q 359 1020 468 1020 q 146 935 236 1020 q 81 836 102 891 l 175 803 q 289 907 203 876 q 359 920 324 920 q 608 697 549 920 q 637 397 637 581 q 595 136 637 195 q 530 102 570 103 q 422 283 433 102 q 420 320 420 301 l 335 320 q 256 107 330 134 q 225 102 241 102 q 136 252 140 113 q 224 408 136 380 q 266 415 244 415 q 317 411 288 415 q 372 407 350 407 q 495 488 468 407 q 503 545 503 514 q 361 694 503 666 q 278 703 321 703 q 77 643 130 701 q 39 544 39 602 q 102 427 41 469 q 42 252 42 362 m 117 544 q 156 605 117 589 q 182 610 170 610 q 241 570 225 610 q 247 544 247 556 q 208 483 247 499 q 182 477 194 477 q 122 518 138 477 q 117 544 117 532 z "},"ණ":{"ha":1172,"x_min":49,"x_max":1135,"o":"m 894 103 q 769 170 812 103 q 753 194 764 178 q 696 258 723 245 q 663 266 681 264 q 675 387 675 321 l 675 397 l 675 407 q 675 439 675 418 q 674 473 674 463 q 716 602 674 586 q 736 605 727 605 q 802 453 802 600 l 802 343 l 888 343 l 888 453 q 958 605 890 604 q 1035 396 1034 605 q 1035 377 1035 387 q 998 157 1035 214 q 894 103 962 104 m 57 23 l 148 5 q 205 34 171 34 q 293 18 217 34 q 369 9 334 9 q 608 133 522 9 q 636 183 624 157 l 637 183 q 688 140 665 183 q 742 57 722 77 q 895 5 796 5 q 1124 209 1086 5 q 1135 377 1135 271 q 1057 675 1135 613 q 968 704 1020 704 q 859 647 895 704 q 845 616 848 631 q 784 693 834 669 q 734 704 760 704 q 620 631 656 703 q 515 742 579 703 q 661 970 637 871 q 669 1036 669 1002 l 572 1036 q 502 861 572 951 q 426 777 472 825 q 347 785 388 785 q 100 656 183 785 q 49 477 49 576 q 100 290 50 368 q 142 244 115 267 q 75 122 94 202 q 57 23 65 83 m 357 102 q 256 115 343 102 q 214 119 231 119 q 164 109 183 119 q 229 205 182 174 q 233 208 232 206 q 255 206 241 206 q 403 282 349 206 q 437 388 437 330 q 376 524 435 467 q 266 566 328 566 q 142 503 186 566 q 138 496 140 499 l 138 505 q 225 654 144 602 q 347 686 278 686 q 536 571 476 686 q 575 387 575 496 q 442 118 575 172 q 357 102 403 102 m 159 388 q 209 472 159 446 q 252 483 231 483 q 336 431 311 483 q 347 388 347 411 q 296 304 347 330 q 252 293 275 293 q 170 342 197 293 q 159 388 159 365 z "},"ඬ":{"ha":983,"x_min":37,"x_max":945,"o":"m 250 252 q 355 18 250 68 q 430 3 389 3 q 581 118 541 3 q 585 133 583 126 q 696 8 610 30 q 738 3 716 3 q 933 195 898 3 q 945 397 945 266 q 751 974 945 856 q 567 1020 675 1020 q 354 933 444 1020 q 289 836 311 890 l 382 803 q 498 907 412 878 q 567 920 533 920 q 818 689 760 920 q 846 397 846 575 q 798 130 846 187 q 738 102 774 102 q 628 301 637 102 q 628 320 628 311 l 543 320 q 434 102 538 103 q 345 252 346 104 q 404 429 345 381 q 463 449 430 449 l 656 449 q 663 511 663 483 q 568 694 663 642 q 479 716 526 716 q 363 671 408 715 q 241 734 320 732 q 52 545 94 734 q 37 385 37 476 q 182 11 37 53 q 221 4 201 5 l 221 96 q 132 363 136 104 q 132 385 132 376 q 206 631 132 586 q 241 640 224 640 q 317 581 300 640 q 321 557 320 568 q 326 529 321 543 l 245 529 l 245 449 l 305 449 q 251 286 260 401 q 250 252 250 269 m 401 560 q 458 633 401 621 q 479 635 469 635 q 568 571 547 635 q 576 528 576 551 l 407 529 q 401 560 401 548 z "},"ඟ":{"ha":1095,"x_min":37,"x_max":1057,"o":"m 815 96 q 730 144 760 98 q 747 245 747 191 q 689 388 747 338 q 659 407 674 401 q 680 496 680 445 l 680 536 q 772 693 682 673 q 800 696 787 696 q 960 396 959 693 q 815 96 959 98 m 521 389 l 559 317 q 604 343 587 331 q 655 243 650 313 q 589 113 655 149 q 519 96 559 96 q 351 385 353 99 q 496 696 353 694 q 590 632 562 696 q 597 614 594 623 q 589 551 589 583 q 589 515 589 548 q 521 389 587 427 m 255 385 q 519 3 256 4 q 680 62 617 4 q 815 3 728 4 q 1057 396 1055 5 q 825 788 1057 772 q 800 789 812 789 q 643 715 703 788 q 496 789 591 788 q 354 738 410 788 q 250 787 313 785 q 61 601 110 787 q 37 382 37 511 q 190 7 37 41 q 221 3 205 4 l 221 94 q 132 382 132 106 q 229 690 132 659 q 250 693 240 693 q 305 669 283 692 q 255 385 255 567 z "},"ඤ":{"ha":1417,"x_min":38,"x_max":1470,"o":"m 1077 -77 q 1153 -231 1077 -174 q 1271 -267 1204 -267 q 1470 -144 1393 -266 l 1401 -95 q 1271 -175 1348 -174 q 1180 -114 1206 -175 q 1172 -69 1172 -92 q 1194 4 1173 -28 q 1404 125 1325 14 l 1328 180 q 1175 104 1271 106 q 1025 178 1080 104 q 990 290 990 227 q 1062 437 990 382 q 1172 472 1111 472 l 1340 472 q 1363 601 1363 540 q 1265 784 1363 734 q 1179 804 1226 804 q 1034 730 1082 804 q 1024 715 1028 722 q 848 784 952 784 q 625 688 730 783 q 492 800 590 781 q 456 803 473 803 q 326 747 374 802 q 228 788 288 788 q 56 590 98 788 q 38 385 38 505 q 189 9 38 47 q 222 4 205 5 l 222 96 q 132 385 132 107 q 203 686 132 637 q 231 696 217 696 q 289 666 266 694 q 286 635 286 647 q 385 467 286 521 q 425 449 404 456 l 286 281 l 307 191 q 319 195 312 195 q 339 161 338 193 q 338 144 339 155 q 338 129 338 133 q 461 3 340 4 q 564 65 536 3 q 572 90 571 77 q 637 12 585 35 q 688 3 661 3 q 848 167 812 3 q 859 275 859 217 q 675 579 859 566 q 659 579 667 579 l 651 579 q 848 686 742 685 q 997 617 945 686 q 1012 591 1005 605 q 1038 532 1020 559 q 901 363 933 479 q 891 290 891 327 q 1000 61 891 144 q 1099 12 1046 27 q 1077 -77 1077 -28 m 1090 629 q 1145 712 1090 692 q 1179 718 1162 718 q 1268 656 1244 718 q 1276 605 1276 633 q 1271 562 1276 586 q 1172 564 1214 564 q 1115 559 1138 564 q 1090 629 1090 587 m 682 98 q 614 216 616 100 l 614 267 l 530 267 l 530 216 q 464 98 524 104 q 411 175 411 99 l 411 198 q 385 269 410 262 q 563 475 427 311 q 637 498 598 498 q 751 387 722 498 q 764 275 764 339 q 682 98 762 99 m 369 629 q 422 711 369 690 q 456 716 438 716 q 544 655 521 716 q 553 605 552 632 l 473 507 q 369 629 370 536 z "},"ඕ":{"ha":772,"x_min":37,"x_max":735,"o":"m 332 935 q 227 920 278 935 q 182 998 183 960 q 258 1073 182 1050 q 370 1086 302 1086 q 574 1016 518 1086 q 595 959 595 989 q 549 879 594 905 q 332 935 461 935 m 87 1010 q 149 890 88 943 q 81 841 113 868 l 138 768 q 323 838 228 838 q 632 480 604 838 q 635 397 635 441 q 586 129 635 186 q 528 102 562 102 q 418 320 420 103 l 332 320 q 237 103 327 117 q 222 102 229 102 q 132 350 133 109 q 194 617 132 572 q 221 625 208 625 q 270 581 263 625 q 271 564 271 572 q 269 530 271 551 q 267 505 267 513 q 368 376 267 385 q 385 374 377 374 q 507 547 505 385 q 433 704 507 674 q 389 712 412 712 q 313 674 338 711 q 217 712 277 712 q 46 484 80 712 q 37 342 37 419 q 220 3 38 4 q 370 123 334 3 q 373 133 372 129 q 487 7 399 28 q 528 3 507 3 q 723 202 689 3 q 735 397 735 271 q 617 822 734 686 q 696 959 694 872 q 587 1124 696 1061 q 370 1176 498 1176 q 100 1067 153 1176 q 87 1010 87 1040 m 349 586 q 346 608 349 593 q 385 635 359 633 q 430 547 430 633 q 388 461 429 463 q 346 522 346 464 q 347 556 346 532 q 349 586 349 578 z "},"ඔ":{"ha":772,"x_min":38,"x_max":735,"o":"m 38 342 q 220 3 39 4 q 366 110 327 3 q 373 133 370 122 q 487 7 399 28 q 528 3 507 3 q 723 195 688 3 q 735 397 735 266 q 541 974 735 856 q 357 1020 465 1020 q 144 935 233 1020 q 79 836 99 891 l 172 803 q 286 907 201 876 q 357 920 321 920 q 605 697 547 920 q 635 397 635 581 q 593 136 635 195 q 528 102 567 103 q 419 283 430 102 q 418 320 418 301 l 332 320 q 254 107 327 134 q 222 102 239 102 q 133 330 136 102 q 133 350 133 339 q 194 616 133 570 q 221 625 208 625 q 270 581 263 625 q 271 564 271 572 q 269 530 271 551 q 267 505 267 513 q 368 376 267 385 q 385 374 377 374 q 509 547 509 376 q 431 705 509 675 q 389 712 411 712 q 313 674 338 711 q 217 712 277 712 q 47 486 83 712 q 38 342 38 419 m 349 586 q 347 605 349 600 q 387 635 359 633 q 431 547 431 633 q 389 461 430 463 q 346 522 346 464 q 347 556 346 532 q 349 586 349 578 z "},"ප":{"ha":780,"x_min":38,"x_max":743,"o":"m 511 555 l 431 555 l 431 604 q 499 712 431 692 q 529 716 514 716 q 614 662 594 716 q 620 628 620 646 q 587 544 618 579 q 511 555 549 555 m 133 304 q 206 450 133 412 q 273 465 236 465 l 507 465 q 637 374 605 465 q 648 304 648 340 q 537 121 648 179 q 391 88 473 88 q 175 179 245 88 q 133 304 133 232 m 38 304 q 175 45 38 132 q 391 -12 267 -12 q 667 98 568 -12 q 743 304 743 182 q 658 507 742 438 q 704 632 704 563 q 623 780 704 734 q 532 803 581 803 q 391 736 441 802 q 248 803 338 803 q 104 728 152 803 q 77 632 77 686 q 123 507 79 562 q 38 304 38 437 m 160 628 q 218 711 160 693 q 251 716 235 716 q 342 654 320 716 q 350 604 350 631 q 349 576 350 594 q 349 555 349 560 l 269 555 q 193 544 229 555 q 160 628 160 582 z "},"ඵ":{"ha":734,"x_min":38,"x_max":711,"o":"m 541 732 q 441 785 467 732 q 433 819 433 803 q 467 911 433 854 q 476 929 473 922 q 574 736 547 852 q 541 732 541 732 m 342 817 q 418 685 342 738 q 551 646 476 646 q 594 650 572 646 q 613 465 613 541 q 472 129 613 205 q 357 102 422 102 q 145 231 189 102 q 134 302 134 266 q 232 448 134 437 q 250 449 241 449 l 426 449 q 433 511 433 483 q 336 694 433 643 q 248 716 296 716 q 110 642 152 716 q 91 563 91 606 q 109 490 91 526 q 38 297 42 423 q 118 91 38 174 q 357 3 203 3 q 669 214 585 3 q 711 463 711 319 q 600 907 711 705 q 435 1097 529 1034 l 384 1036 l 388 1034 l 391 1031 q 412 990 412 1010 q 382 930 412 974 q 342 817 342 869 m 172 560 q 228 632 172 621 q 248 635 239 635 q 340 570 319 635 q 347 528 347 549 l 221 528 q 180 524 198 528 q 172 560 172 540 z "},"ර":{"ha":663,"x_min":38,"x_max":625,"o":"m 38 365 q 159 57 38 152 q 330 3 229 3 q 579 157 502 3 q 625 374 625 250 q 587 571 625 486 q 389 722 524 711 q 369 723 378 723 q 297 713 334 723 q 473 937 435 852 q 498 1054 498 996 l 401 1054 q 328 878 401 968 q 206 746 286 826 q 39 403 52 591 q 38 365 38 384 m 136 365 l 136 366 l 136 372 l 136 373 q 217 586 140 514 q 346 633 270 633 q 503 511 458 633 q 526 373 526 450 q 438 136 526 206 q 331 100 392 100 q 157 231 205 100 q 136 365 136 289 z "},"ස":{"ha":793,"x_min":38,"x_max":755,"o":"m 567 556 l 448 556 q 446 604 446 570 q 514 712 446 692 q 544 716 529 716 q 629 662 609 716 q 635 628 635 646 q 608 551 633 585 q 567 556 590 556 m 149 271 q 209 448 149 400 q 267 468 235 468 l 555 468 q 656 334 636 468 q 661 271 661 302 q 593 109 661 138 q 559 102 576 102 q 448 296 457 102 q 446 320 446 308 l 363 320 q 251 102 351 110 q 156 199 179 102 q 149 271 149 233 m 54 271 q 149 33 54 98 q 251 3 194 3 q 403 125 366 3 q 406 133 404 129 q 509 11 429 35 q 559 3 533 3 q 738 145 693 3 q 755 271 755 202 q 677 511 754 442 q 719 632 719 567 q 637 780 719 734 q 547 803 595 803 q 406 738 458 802 q 264 803 351 803 q 117 726 164 803 q 94 635 94 685 q 113 556 94 594 l 38 556 l 38 469 l 110 469 q 56 304 65 420 q 54 271 54 288 m 178 628 q 235 711 178 693 q 267 716 251 716 q 357 655 334 716 q 365 604 365 633 q 363 579 365 595 q 363 556 363 563 l 199 556 q 178 628 178 590 z "},"ශ":{"ha":921,"x_min":38,"x_max":894,"o":"m 572 197 q 646 20 572 62 q 707 5 673 5 q 774 19 723 5 q 788 22 783 22 q 836 -3 804 20 l 894 47 q 859 160 859 95 q 865 247 859 186 q 875 407 875 345 q 662 785 875 754 q 613 789 637 789 q 429 708 502 788 q 279 789 380 788 q 38 385 39 787 q 301 3 39 4 q 507 132 453 3 q 529 245 529 183 q 471 389 529 339 q 442 407 457 401 q 463 496 463 448 l 463 536 q 532 674 463 631 q 613 696 567 696 q 780 407 779 693 l 780 381 q 718 395 751 395 q 597 311 639 395 q 572 197 572 260 m 722 84 q 652 198 654 87 q 699 309 652 282 q 730 317 713 317 q 773 307 754 316 q 769 250 772 285 q 765 183 765 203 q 776 96 765 138 q 755 91 769 95 q 722 84 732 84 m 302 389 l 340 317 q 385 343 369 331 q 438 243 434 316 q 369 111 438 146 q 301 96 339 96 q 134 385 136 99 q 279 696 136 694 q 373 632 346 696 q 380 613 377 623 q 370 551 373 587 l 370 515 q 307 392 370 429 q 302 389 304 391 z "},"ෂ":{"ha":780,"x_min":38,"x_max":743,"o":"m 511 555 l 433 555 q 431 604 431 570 q 499 712 431 692 q 529 716 514 716 q 614 662 594 716 q 620 628 620 646 q 587 544 618 579 q 511 555 549 555 m 133 304 q 206 450 133 412 q 273 465 236 465 l 502 465 q 349 331 391 382 q 281 151 281 247 q 286 104 281 125 q 141 244 170 140 q 133 304 133 274 m 391 88 l 377 88 q 370 144 370 119 q 488 355 370 252 q 551 407 509 373 q 591 439 578 429 q 648 304 648 395 q 537 121 648 179 q 391 88 473 88 m 38 304 q 175 45 38 132 q 391 -12 267 -12 q 667 98 568 -12 q 743 304 743 182 q 658 507 742 438 q 704 632 704 563 q 623 780 704 734 q 532 803 581 803 q 391 738 444 802 q 250 803 336 803 q 103 727 152 803 q 77 632 77 685 q 123 507 79 560 q 38 304 38 437 m 160 628 q 218 711 160 692 q 252 716 235 716 q 342 655 319 716 q 350 604 350 633 q 349 576 350 594 q 349 555 349 560 l 270 555 q 194 544 231 555 q 160 628 161 581 z "},"ත":{"ha":913,"x_min":41,"x_max":883,"o":"m 46 286 l 65 208 l 83 208 q 107 157 107 203 q 199 26 107 68 q 317 3 251 3 q 495 61 434 4 q 640 1 551 3 q 883 370 882 4 q 735 760 883 658 q 594 803 671 803 q 372 681 483 802 q 258 796 345 773 q 210 803 233 803 q 65 728 113 803 q 41 635 41 686 q 138 469 41 524 q 180 452 159 458 l 46 286 m 632 94 q 544 136 572 95 q 567 278 567 194 q 467 532 567 465 q 395 553 431 553 l 382 553 q 401 576 401 576 q 513 684 473 661 q 594 705 552 705 q 753 582 701 705 q 788 370 788 498 q 632 94 785 96 m 317 96 q 193 161 217 96 q 187 194 187 178 q 152 279 186 262 q 315 471 184 316 q 353 476 338 476 q 458 385 429 476 q 473 278 473 340 q 317 96 463 103 m 121 629 q 174 712 121 690 q 209 719 190 719 q 298 656 274 719 q 308 606 307 633 l 227 507 q 121 629 122 536 z "},"ථ":{"ha":727,"x_min":38,"x_max":711,"o":"m 541 732 q 441 785 467 732 q 433 819 433 803 q 467 910 433 854 q 476 928 473 921 q 574 736 544 853 q 560 735 570 736 q 541 732 547 732 m 340 817 q 416 685 340 738 q 549 646 476 646 q 594 650 570 646 q 613 465 613 524 q 456 119 613 184 q 361 102 412 102 q 159 221 216 102 q 134 330 134 271 q 199 505 134 456 q 254 522 225 522 q 308 507 281 521 l 343 594 q 248 623 297 623 q 83 518 142 623 q 38 330 38 439 q 132 87 38 179 q 361 3 218 3 q 677 232 598 3 q 711 463 711 331 q 600 907 711 707 q 434 1097 529 1034 l 382 1036 q 387 1034 384 1035 q 391 1029 389 1031 q 411 990 411 1010 q 381 930 411 974 q 340 817 340 869 z "},"ට":{"ha":711,"x_min":38,"x_max":673,"o":"m 38 330 q 133 579 38 499 q 248 623 184 623 q 343 594 298 621 l 308 507 q 254 522 279 522 q 153 439 186 522 q 134 330 134 392 q 209 144 134 208 q 335 102 260 102 q 571 480 570 104 q 346 920 571 903 q 328 920 336 920 q 178 841 232 920 q 156 803 164 823 l 62 836 q 241 1006 113 964 q 328 1020 285 1020 q 673 480 671 1017 q 387 5 673 42 q 335 3 361 3 q 71 165 144 3 q 38 330 38 240 z "},"ඨ":{"ha":777,"x_min":38,"x_max":747,"o":"m 572 732 q 473 784 500 732 q 464 819 464 802 q 499 910 464 854 q 509 928 506 922 q 597 735 570 852 q 572 732 581 732 m 373 817 q 449 685 373 738 q 582 646 507 646 q 617 648 594 646 q 647 369 647 507 q 581 115 647 159 q 532 102 559 102 q 423 283 434 102 q 422 320 422 301 l 336 320 q 258 107 331 134 q 227 102 243 102 q 138 247 152 102 q 136 300 136 273 q 157 433 136 381 q 262 522 199 515 q 315 507 289 521 l 351 594 q 255 623 305 623 q 90 517 152 623 q 68 472 77 495 q 38 301 38 397 q 130 33 38 103 q 224 3 171 3 q 370 110 331 3 q 377 133 374 122 q 491 7 403 28 q 532 3 511 3 q 736 203 703 3 q 747 369 747 266 q 618 930 747 707 q 467 1097 552 1040 l 415 1036 q 444 990 442 1013 q 414 930 444 974 q 373 817 373 869 z "},"උ":{"ha":741,"x_min":43,"x_max":716,"o":"m 43 182 q 157 -121 43 -14 q 389 -205 248 -205 q 669 -64 578 -205 q 716 58 704 -8 l 617 73 q 507 -76 597 -28 q 389 -104 454 -104 q 175 33 236 -104 q 146 182 146 99 q 270 439 146 368 q 404 473 330 473 l 574 473 q 597 602 597 541 q 500 784 597 734 q 412 806 460 806 q 266 730 315 806 q 240 635 240 688 q 264 543 240 583 q 57 301 99 484 q 43 182 43 245 m 324 631 q 378 713 324 693 q 412 719 396 719 q 502 658 477 719 q 510 606 510 635 q 505 563 510 587 q 404 566 448 566 q 346 562 374 566 q 324 631 324 597 z "},"ඌ":{"ha":1100,"x_min":43,"x_max":1034,"o":"m 43 182 q 157 -121 43 -14 q 389 -205 248 -205 q 669 -64 578 -205 q 716 58 704 -8 l 617 73 q 507 -76 597 -28 q 389 -104 454 -104 q 175 33 236 -104 q 146 182 146 99 q 270 439 146 368 q 404 473 330 473 l 574 473 q 597 602 597 541 q 500 784 597 734 q 412 806 460 806 q 266 730 315 806 q 240 635 240 688 q 264 543 240 583 q 57 301 99 484 q 43 182 43 245 m 324 631 q 378 713 324 693 q 412 719 396 719 q 502 658 477 719 q 510 606 510 635 q 505 563 510 587 q 404 566 448 566 q 346 562 374 566 q 324 631 324 597 m 640 477 q 754 327 643 328 q 816 349 796 327 q 836 397 836 370 q 846 445 837 423 q 879 467 854 467 q 943 301 943 465 q 859 90 943 102 q 848 88 852 88 q 784 122 808 88 q 781 126 783 125 l 720 77 q 774 23 749 38 q 859 3 811 3 q 1034 278 1027 3 q 1034 301 1034 290 q 943 547 1034 496 q 883 560 916 560 q 811 537 836 560 q 785 486 787 514 q 779 435 784 458 q 760 412 773 412 q 719 487 719 414 q 818 617 722 616 l 818 692 q 654 587 686 692 q 640 477 640 543 z "},"ව":{"ha":718,"x_min":38,"x_max":680,"o":"m 38 297 q 117 87 38 170 q 340 3 198 3 q 675 380 640 3 q 680 480 680 427 q 335 1020 678 1019 q 132 935 216 1020 q 69 836 91 891 l 163 803 q 283 913 197 888 q 335 920 309 920 q 578 548 560 920 q 579 480 579 514 q 340 102 578 103 q 144 233 183 102 q 134 302 134 267 q 227 448 134 433 q 248 449 237 449 l 426 449 q 433 511 433 483 q 336 694 433 643 q 248 716 296 716 q 110 642 152 716 q 91 563 91 606 q 109 490 91 526 q 38 297 42 423 m 172 560 q 229 633 172 623 q 248 635 239 635 q 340 570 319 635 q 347 528 347 549 l 221 528 q 180 524 198 528 q 172 560 172 540 z "},"ය":{"ha":781,"x_min":38,"x_max":745,"o":"m 555 556 l 442 556 q 435 604 435 581 q 505 712 435 693 q 533 716 519 716 q 618 662 598 716 q 624 628 624 646 q 597 551 623 585 q 555 556 578 556 m 38 335 q 133 31 38 96 q 240 3 178 3 q 387 110 347 3 q 393 133 391 122 q 511 7 422 26 q 548 3 529 3 q 726 141 680 3 q 745 271 745 199 q 665 513 743 442 q 708 632 708 566 q 625 780 708 734 q 536 803 585 803 q 382 722 434 803 q 358 659 366 693 q 355 647 358 656 q 274 662 315 662 q 88 552 153 662 q 38 335 38 467 m 548 102 q 437 281 449 102 q 435 320 435 298 l 353 320 q 266 104 347 127 q 240 102 254 102 q 133 335 134 110 q 209 544 133 484 q 281 570 241 570 q 355 549 317 570 q 374 468 359 517 l 543 468 q 646 334 625 468 q 650 271 650 302 q 585 110 650 144 q 548 102 567 102 z "},"෴":{"ha":2752,"x_min":38,"x_max":2707,"o":"m 2083 156 q 2151 33 2083 73 q 2222 12 2185 12 l 2589 12 q 2707 133 2706 15 q 2698 216 2707 164 l 2604 205 q 2610 161 2610 175 q 2563 104 2607 106 l 2260 104 q 2189 174 2190 107 q 2193 209 2189 191 l 2234 420 l 2134 420 l 2132 412 q 2039 338 2123 369 q 1942 300 1956 308 q 1938 296 1940 297 l 2010 623 l 1911 623 l 1910 617 q 1811 543 1900 572 q 1712 503 1725 513 q 1709 502 1710 502 l 1784 846 l 1685 846 l 1675 804 q 1576 731 1666 761 q 1482 696 1496 704 l 1538 949 l 1438 949 l 1369 632 q 1303 678 1362 642 q 1244 739 1245 715 q 1249 777 1244 758 l 1253 799 l 1154 799 l 1073 433 q 1006 476 1067 441 q 945 537 945 511 q 947 552 945 548 l 955 591 l 856 591 l 780 244 q 712 289 773 254 q 651 351 652 327 l 651 357 l 662 410 l 562 410 l 536 275 q 456 117 510 152 q 369 95 420 95 l 182 95 q 136 151 137 98 q 141 195 136 167 l 47 205 q 38 123 38 155 q 156 3 41 4 l 393 3 q 581 104 526 3 q 628 245 608 155 q 697 203 636 237 q 754 137 753 171 q 754 129 754 134 q 753 121 753 123 l 743 79 l 842 79 l 921 434 q 989 392 930 423 q 1047 324 1046 358 l 1047 311 l 1044 302 l 1044 301 l 1035 258 l 1135 258 l 1218 637 q 1286 593 1227 627 q 1343 525 1343 560 q 1341 514 1343 517 l 1312 376 l 1412 376 l 1455 575 q 1572 647 1474 616 q 1648 678 1634 667 l 1560 279 l 1660 279 l 1682 380 q 1800 457 1701 423 q 1883 492 1869 481 l 1807 153 l 1907 153 l 1908 159 q 2010 247 1918 212 q 2098 281 2090 277 q 2106 288 2104 285 l 2087 197 q 2083 156 2083 174 z "},"ඏ":{"ha":1218,"x_min":37,"x_max":1171,"o":"m 922 151 q 962 212 922 195 q 987 217 975 217 q 1047 176 1031 217 q 1053 151 1053 163 q 1013 90 1053 106 q 987 84 1000 84 q 928 125 944 84 q 922 151 922 138 m 1080 382 q 1076 260 1080 313 q 983 300 1039 300 q 956 297 971 300 l 956 304 q 871 507 955 438 q 917 632 917 563 q 916 661 917 651 q 978 696 939 694 q 1069 547 1043 696 q 1080 382 1080 476 m 724 555 l 646 555 q 646 576 646 562 q 644 604 644 594 q 712 712 644 692 q 742 716 727 716 q 827 663 807 716 q 834 628 834 647 q 800 544 833 581 q 724 555 762 555 m 346 304 q 422 452 346 414 q 487 465 452 465 l 722 465 q 852 370 821 465 q 861 304 861 339 q 751 122 861 180 q 604 88 686 88 q 389 176 460 88 q 346 304 346 232 m 251 304 l 251 297 q 225 300 235 300 q 132 260 168 298 q 127 382 127 315 q 199 685 127 632 q 231 696 214 696 q 293 662 270 694 q 290 632 290 643 q 336 507 292 560 q 251 304 251 437 m 374 628 q 433 711 374 693 q 465 716 449 716 q 555 655 532 716 q 563 604 563 633 q 562 555 563 568 l 483 555 q 407 544 444 555 q 374 628 374 579 m 37 385 q 180 7 37 42 q 220 3 199 3 q 346 72 300 3 q 349 76 347 75 q 604 -12 446 -12 q 860 76 764 -11 q 989 3 909 7 q 1156 197 1120 3 q 1171 385 1171 275 q 1020 784 1171 741 q 981 789 1001 789 q 879 745 917 788 q 745 803 829 803 q 604 738 656 802 q 463 803 549 803 q 330 745 380 802 q 228 789 290 789 q 62 620 109 789 q 37 385 37 526 m 155 151 q 193 212 155 193 q 220 217 206 217 q 281 178 263 217 q 286 151 286 164 q 247 90 286 107 q 220 84 233 84 q 160 123 178 84 q 155 151 155 137 z "},"ඐ":{"ha":1636,"x_min":37,"x_max":1603,"o":"m 922 159 q 962 220 922 203 q 987 225 975 225 q 1047 184 1031 225 q 1053 159 1053 171 q 1013 98 1053 114 q 987 92 1000 92 q 928 133 944 92 q 922 159 922 146 m 1080 391 q 1076 269 1080 321 q 982 308 1035 308 q 956 305 971 308 l 956 312 q 871 514 955 446 q 917 640 917 570 q 916 669 917 659 q 977 704 939 703 q 1069 548 1044 704 q 1080 391 1080 480 m 724 562 l 646 562 q 644 612 644 578 q 712 720 644 700 q 742 724 727 724 q 827 671 807 724 q 834 636 834 655 q 800 551 833 587 q 724 562 762 562 m 346 312 q 419 457 346 419 q 487 473 448 473 l 720 473 q 850 380 819 473 q 861 312 861 349 q 750 129 861 187 q 604 96 686 96 q 388 186 458 96 q 346 312 346 240 m 251 312 l 251 305 q 225 308 235 308 q 132 269 168 307 q 127 391 127 323 q 199 693 127 640 q 231 704 214 704 q 293 670 270 703 q 290 640 290 651 q 336 514 292 568 q 251 312 251 446 m 374 636 q 433 719 374 701 q 465 724 449 724 q 555 663 532 724 q 563 612 563 642 q 562 562 563 576 l 483 562 q 407 551 444 562 q 374 636 376 589 m 37 393 q 184 14 37 45 q 220 9 202 9 q 343 76 298 9 q 347 83 346 80 q 604 -5 449 -5 q 860 83 761 -4 q 987 9 910 15 q 1157 205 1120 9 q 1171 393 1171 283 q 1017 792 1171 751 q 981 796 1000 796 q 879 751 917 795 q 745 811 829 810 q 604 745 656 810 q 463 811 551 811 q 328 753 378 810 q 228 796 288 796 q 52 582 91 796 q 37 393 37 500 m 155 159 q 193 220 155 201 q 220 225 206 225 q 281 186 263 225 q 286 159 286 172 q 247 98 286 115 q 220 92 233 92 q 160 132 178 92 q 155 159 155 145 m 1208 477 q 1322 327 1211 328 q 1384 349 1364 327 q 1404 397 1404 370 q 1414 445 1405 423 q 1447 467 1423 467 q 1511 301 1510 460 q 1417 88 1508 91 q 1354 121 1379 88 q 1350 126 1351 125 l 1289 77 q 1333 28 1317 41 q 1427 3 1373 3 q 1600 239 1583 3 q 1603 301 1603 269 q 1519 541 1603 486 q 1451 560 1489 560 q 1380 537 1404 560 q 1354 486 1356 514 q 1348 435 1352 458 q 1328 412 1343 412 q 1287 487 1287 414 q 1386 617 1290 616 l 1386 692 q 1222 587 1255 692 q 1208 477 1208 543 z "},"ඍ":{"ha":1185,"x_min":45,"x_max":1149,"o":"m 791 195 q 842 41 791 95 q 922 7 876 7 q 1008 24 944 7 q 1038 30 1027 30 q 1080 4 1062 28 l 1149 49 q 1103 221 1103 117 q 1116 415 1103 237 q 1122 543 1122 486 q 983 746 1122 734 q 962 747 972 747 q 799 549 800 745 q 802 500 799 534 l 887 500 q 886 549 886 518 q 962 659 888 658 q 1034 545 1032 656 q 1021 368 1034 464 q 939 391 989 391 q 817 312 857 391 q 791 195 791 262 m 948 92 q 878 199 879 95 q 928 298 878 277 q 955 304 941 304 q 1012 283 986 302 q 1008 213 1008 244 q 1024 104 1008 151 l 1017 104 q 981 98 1006 104 q 948 92 958 92 m 556 556 l 437 556 q 437 575 437 562 q 435 604 435 594 q 503 712 435 692 q 533 716 518 716 q 618 663 598 716 q 625 628 625 647 q 598 551 624 586 q 556 556 579 556 m 140 271 q 194 449 140 401 q 245 468 217 468 l 544 468 q 647 334 627 468 q 651 271 651 302 q 586 110 651 144 q 549 102 568 102 q 437 312 441 102 q 437 320 437 317 l 354 320 q 267 104 349 127 q 241 102 255 102 q 145 208 165 102 q 140 271 140 237 m 45 271 q 144 30 45 92 q 241 3 186 3 q 388 110 349 3 q 395 133 392 122 q 524 4 425 19 q 549 3 537 3 q 727 141 681 3 q 746 271 746 199 q 666 513 745 439 q 708 632 708 564 q 627 780 708 734 q 536 803 585 803 q 395 738 448 802 q 254 803 340 803 q 107 727 156 803 q 81 632 81 685 q 123 511 83 567 q 45 271 45 441 m 165 629 q 224 712 165 694 q 256 718 240 718 q 346 655 323 718 q 354 604 354 633 q 353 556 354 570 l 233 556 q 193 551 209 556 q 165 629 165 587 z "},"ඎ":{"ha":1568,"x_min":45,"x_max":1531,"o":"m 1172 195 q 1223 41 1172 95 q 1305 7 1257 7 q 1389 24 1326 7 q 1419 30 1407 30 q 1462 4 1443 28 l 1531 49 q 1484 221 1484 118 q 1499 414 1484 239 q 1504 543 1504 486 q 1371 746 1504 730 q 1343 747 1358 747 q 1181 549 1183 745 q 1183 500 1181 518 l 1270 500 q 1267 549 1267 533 q 1343 659 1270 658 q 1416 545 1415 656 q 1404 368 1416 488 q 1321 391 1370 391 q 1196 309 1237 391 q 1172 195 1172 262 m 1329 92 q 1260 199 1261 95 q 1310 298 1260 279 q 1336 304 1324 304 q 1393 282 1369 302 q 1389 213 1389 245 q 1405 104 1389 151 l 1398 104 q 1362 98 1388 104 q 1329 92 1339 92 m 791 195 q 842 41 791 95 q 922 7 876 7 q 1008 24 944 7 q 1038 30 1027 30 q 1080 4 1062 28 l 1149 49 q 1103 221 1103 117 q 1116 415 1103 237 q 1122 543 1122 486 q 983 746 1122 734 q 962 747 972 747 q 799 549 800 745 q 802 500 799 534 l 887 500 q 886 549 886 518 q 962 659 888 658 q 1034 545 1032 656 q 1021 368 1034 464 q 939 391 989 391 q 817 312 857 391 q 791 195 791 262 m 948 92 q 878 199 879 95 q 928 298 878 277 q 955 304 941 304 q 1012 283 986 302 q 1008 213 1008 244 q 1024 104 1008 151 l 1017 104 q 981 98 1006 104 q 948 92 958 92 m 556 556 l 437 556 q 437 575 437 562 q 435 604 435 594 q 503 712 435 692 q 533 716 518 716 q 618 663 598 716 q 625 628 625 647 q 598 551 624 586 q 556 556 579 556 m 140 271 q 194 449 140 401 q 245 468 217 468 l 544 468 q 647 334 627 468 q 651 271 651 302 q 586 110 651 144 q 549 102 568 102 q 437 312 441 102 q 437 320 437 317 l 354 320 q 267 104 349 127 q 241 102 255 102 q 145 208 165 102 q 140 271 140 237 m 45 271 q 144 30 45 92 q 241 3 186 3 q 388 110 349 3 q 395 133 392 122 q 524 4 425 19 q 549 3 537 3 q 727 141 681 3 q 746 271 746 199 q 666 513 745 439 q 708 632 708 564 q 627 780 708 734 q 536 803 585 803 q 395 738 448 802 q 254 803 340 803 q 107 727 156 803 q 81 632 81 685 q 123 511 83 567 q 45 271 45 441 m 165 629 q 224 712 165 694 q 256 718 240 718 q 346 655 323 718 q 354 604 354 633 q 353 556 354 570 l 233 556 q 193 551 209 556 q 165 629 165 587 z "},"/":{"ha":540,"x_min":31,"x_max":522,"o":"m 420 983 l 31 -94 l 134 -95 l 522 983 l 420 983 z "}," ":{"ha":406,"x_min":0,"x_max":0,"o":""},"£":{"ha":629,"x_min":34,"x_max":590,"o":"m 576 0 l 576 96 l 240 96 l 240 420 l 488 420 l 488 514 l 240 514 l 240 621 q 359 826 240 800 q 395 830 377 830 q 545 781 468 829 l 590 865 q 384 929 495 929 q 171 819 240 929 q 126 642 126 747 l 126 514 l 34 514 l 34 420 l 126 420 l 126 96 l 35 96 l 35 0 l 576 0 z "},"∑":{"ha":658,"x_min":30,"x_max":617,"o":"m 30 -237 l 617 -237 l 617 -141 l 171 -141 l 509 350 l 209 821 l 617 821 l 617 918 l 61 918 l 61 848 l 388 346 l 30 -168 l 30 -237 z "},"t":{"ha":444,"x_min":30,"x_max":433,"o":"m 433 30 l 401 100 q 327 77 357 77 q 245 170 256 77 q 244 198 244 184 l 244 593 l 401 593 l 401 678 l 244 678 l 244 861 l 133 861 l 133 678 l 30 678 l 30 593 l 133 593 l 133 182 q 243 -8 133 24 q 294 -15 267 -15 q 433 30 362 -14 z "},"ť":{"ha":444,"x_min":30,"x_max":458,"o":"m 433 30 l 401 100 q 327 77 357 77 q 245 170 256 77 q 244 198 244 184 l 244 593 l 401 593 l 401 678 l 244 678 l 244 861 l 133 861 l 133 678 l 30 678 l 30 593 l 133 593 l 133 182 q 243 -8 133 24 q 294 -15 267 -15 q 433 30 362 -14 m 457 907 q 408 983 457 968 q 389 986 397 986 q 328 945 345 986 q 323 914 323 930 q 365 852 323 867 q 370 849 369 850 q 317 730 363 800 l 354 704 q 453 875 434 783 q 457 907 457 892 z "},"þ":{"ha":670,"x_min":96,"x_max":624,"o":"m 324 77 q 209 106 267 77 l 209 392 q 290 582 209 530 q 358 602 323 602 q 479 517 437 602 q 509 370 509 457 q 408 100 509 165 q 324 77 370 77 m 208 -275 l 208 4 q 328 -15 270 -15 q 567 126 487 -15 q 624 372 624 227 q 517 646 624 559 q 384 693 458 693 q 208 594 274 692 l 209 983 l 96 983 l 96 -275 l 208 -275 z "},"¾":{"ha":1138,"x_min":11,"x_max":1107,"o":"m 1039 0 l 1039 119 l 1107 119 l 1107 199 l 1039 199 l 1039 552 l 921 552 l 680 183 l 690 118 l 941 119 l 941 0 l 1039 0 m 201 347 q 376 420 319 347 q 407 518 407 463 q 328 642 407 601 q 278 661 305 654 q 381 760 363 685 q 384 788 384 774 q 285 917 384 883 q 201 930 245 930 q 35 857 92 930 q 24 841 28 849 l 90 795 q 195 853 126 850 q 279 807 258 853 q 285 776 285 792 q 225 701 285 723 q 164 692 198 692 l 125 692 l 125 617 l 182 617 q 305 549 288 617 q 308 528 308 538 q 237 438 308 458 q 195 433 217 433 q 57 484 118 434 l 11 411 q 201 347 96 347 m 351 -15 l 914 997 l 811 997 l 245 -14 l 351 -15 m 941 199 l 784 199 l 941 449 l 941 199 z "},"³":{"ha":456,"x_min":12,"x_max":408,"o":"m 202 347 q 377 420 320 347 q 408 518 408 463 q 330 642 408 601 q 279 661 307 654 q 382 760 365 685 q 385 788 385 774 q 286 917 385 883 q 202 930 247 930 q 37 857 94 930 q 26 841 30 849 l 91 795 q 197 853 127 850 q 281 807 259 853 q 286 776 286 792 q 227 701 286 723 q 165 692 199 692 l 126 692 l 126 617 l 183 617 q 307 549 289 617 q 309 528 309 538 q 239 438 309 458 q 197 433 218 433 q 58 484 119 434 l 12 411 q 202 347 98 347 z "},"˜":{"ha":519,"x_min":46,"x_max":475,"o":"m 343 891 q 259 921 317 891 q 180 943 213 943 q 46 875 115 941 l 95 819 q 180 856 138 856 q 270 826 208 856 q 351 804 317 804 q 475 876 420 806 l 426 929 q 343 891 389 892 z "},"™":{"ha":1047,"x_min":31,"x_max":962,"o":"m 31 917 l 31 848 l 163 848 l 163 335 l 250 335 l 250 848 l 382 848 l 382 917 l 31 917 m 458 335 l 499 684 q 510 773 502 718 q 533 685 518 735 l 628 354 l 705 357 l 808 684 q 834 776 817 709 q 842 685 840 713 l 880 335 l 962 335 l 891 916 l 804 916 l 690 540 q 673 469 673 469 q 666 499 670 479 q 658 537 661 526 l 548 916 l 458 916 l 381 335 l 458 335 z "},"²":{"ha":479,"x_min":34,"x_max":412,"o":"m 412 366 l 412 452 l 189 452 l 255 528 q 294 570 267 541 q 395 707 376 656 q 404 760 404 734 q 317 905 404 857 q 217 930 271 930 q 39 837 103 930 q 34 830 35 833 l 103 789 q 205 849 144 848 q 294 800 269 849 q 304 757 304 780 q 237 631 304 707 q 208 598 228 620 q 186 575 193 583 l 41 415 l 41 366 l 412 366 z "},"u":{"ha":700,"x_min":95,"x_max":680,"o":"m 625 -15 q 680 -8 647 -15 l 675 75 q 655 73 667 73 q 600 122 608 73 q 597 159 597 138 l 597 678 l 484 678 l 484 304 q 399 95 484 151 q 327 75 365 75 q 213 174 233 75 q 208 227 208 199 l 208 678 l 95 678 l 95 214 q 220 1 95 45 q 302 -12 258 -12 q 486 92 418 -12 q 499 114 494 103 q 602 -14 507 -3 q 625 -15 613 -15 z "},"ú":{"ha":700,"x_min":95,"x_max":680,"o":"m 625 -15 q 680 -8 647 -15 l 675 75 q 655 73 667 73 q 600 122 608 73 q 597 159 597 138 l 597 678 l 484 678 l 484 304 q 399 95 484 151 q 327 75 365 75 q 213 174 233 75 q 208 227 208 199 l 208 678 l 95 678 l 95 214 q 220 1 95 45 q 302 -12 258 -12 q 486 92 418 -12 q 499 114 494 103 q 602 -14 507 -3 q 625 -15 613 -15 m 540 914 l 477 1000 l 258 838 l 305 769 l 540 914 z "},"û":{"ha":700,"x_min":95,"x_max":680,"o":"m 625 -15 q 680 -8 647 -15 l 675 75 q 655 73 667 73 q 600 122 608 73 q 597 159 597 138 l 597 678 l 484 678 l 484 304 q 399 95 484 151 q 327 75 365 75 q 213 174 233 75 q 208 227 208 199 l 208 678 l 95 678 l 95 214 q 220 1 95 45 q 302 -12 258 -12 q 486 92 418 -12 q 499 114 494 103 q 602 -14 507 -3 q 625 -15 613 -15 m 358 983 l 164 829 l 212 769 l 354 873 l 499 766 l 551 830 l 358 983 z "},"ü":{"ha":700,"x_min":95,"x_max":680,"o":"m 625 -15 q 680 -8 647 -15 l 675 75 q 655 73 667 73 q 600 122 608 73 q 597 159 597 138 l 597 678 l 484 678 l 484 304 q 399 95 484 151 q 327 75 365 75 q 213 174 233 75 q 208 227 208 199 l 208 678 l 95 678 l 95 214 q 220 1 95 45 q 302 -12 258 -12 q 486 92 418 -12 q 499 114 494 103 q 602 -14 507 -3 q 625 -15 613 -15 m 293 875 q 247 944 293 930 q 228 947 237 947 q 163 899 176 947 q 160 875 160 887 q 208 803 160 817 q 227 800 217 800 q 288 845 273 800 q 293 875 293 860 m 545 875 q 498 944 545 930 q 477 947 487 947 q 416 901 430 947 q 412 875 412 888 q 457 803 412 818 q 477 800 468 800 q 540 845 525 800 q 545 875 545 860 z "},"ù":{"ha":700,"x_min":95,"x_max":680,"o":"m 625 -15 q 680 -8 647 -15 l 675 75 q 655 73 667 73 q 600 122 608 73 q 597 159 597 138 l 597 678 l 484 678 l 484 304 q 399 95 484 151 q 327 75 365 75 q 213 174 233 75 q 208 227 208 199 l 208 678 l 95 678 l 95 214 q 220 1 95 45 q 302 -12 258 -12 q 486 92 418 -12 q 499 114 494 103 q 602 -14 507 -3 q 625 -15 613 -15 m 201 914 l 263 1000 l 483 838 l 435 769 l 201 914 z "},"ű":{"ha":694,"x_min":95,"x_max":680,"o":"m 625 -15 q 680 -8 647 -15 l 675 75 q 655 73 667 73 q 600 122 608 73 q 597 159 597 138 l 597 678 l 484 678 l 484 304 q 399 95 484 151 q 327 75 365 75 q 213 174 233 75 q 208 227 208 199 l 208 678 l 95 678 l 95 214 q 220 1 95 45 q 302 -12 258 -12 q 486 92 418 -12 q 499 114 494 103 q 602 -14 507 -3 q 625 -15 613 -15 m 415 928 l 350 1002 l 151 829 l 201 769 l 415 928 m 670 928 l 604 1002 l 404 829 l 456 769 l 670 928 z "},"ū":{"ha":700,"x_min":95,"x_max":680,"o":"m 625 -15 q 680 -8 647 -15 l 675 75 q 655 73 667 73 q 600 122 608 73 q 597 159 597 138 l 597 678 l 484 678 l 484 304 q 399 95 484 151 q 327 75 365 75 q 213 174 233 75 q 208 227 208 199 l 208 678 l 95 678 l 95 214 q 220 1 95 45 q 302 -12 258 -12 q 486 92 418 -12 q 499 114 494 103 q 602 -14 507 -3 q 625 -15 613 -15 m 175 918 l 175 829 l 529 829 l 529 918 l 175 918 z "},"_":{"ha":678,"x_min":-1,"x_max":680,"o":"m -1 -187 l -1 -275 l 680 -275 l 680 -187 l -1 -187 z "}," ":{"ha":258,"x_min":0,"x_max":0,"o":""},"­":{"ha":814,"x_min":60,"x_max":385,"o":"m 60 408 l 60 320 l 385 320 l 385 408 l 60 408 z "},"µ":{"ha":743,"x_min":96,"x_max":681,"o":"m 209 -275 l 205 31 q 316 -12 250 -12 q 490 95 422 -12 q 500 114 495 104 q 613 -15 510 -8 q 627 -15 620 -15 q 681 -8 650 -15 l 677 75 q 656 73 669 73 q 601 122 609 73 q 598 159 598 138 l 598 678 l 486 678 l 486 304 q 400 95 486 151 q 330 75 368 75 q 212 183 231 75 q 209 227 209 203 l 209 678 l 96 678 l 96 -275 l 209 -275 z "},"Ģ":{"ha":774,"x_min":47,"x_max":708,"o":"m 708 61 l 708 452 l 403 452 l 403 354 l 594 354 l 594 125 q 431 85 502 85 q 203 248 267 85 q 170 456 170 335 q 286 787 170 694 q 412 830 342 830 q 600 685 540 827 l 708 716 q 499 920 651 880 q 415 930 458 930 q 137 787 239 930 q 47 456 47 659 q 210 47 47 165 q 418 -15 297 -15 q 708 61 559 -14 m 467 -155 q 416 -75 467 -91 q 393 -72 404 -72 q 330 -113 347 -72 q 323 -148 323 -129 q 368 -216 323 -198 q 374 -217 372 -217 q 316 -345 366 -269 l 355 -373 q 461 -193 439 -290 q 467 -155 465 -172 z "},"ģ":{"ha":643,"x_min":45,"x_max":620,"o":"m 316 289 q 203 357 240 289 q 184 442 184 393 q 260 589 184 553 q 313 601 286 601 q 425 530 389 601 q 444 442 444 492 q 366 300 444 334 q 316 289 343 289 m 316 689 q 119 594 187 689 q 75 441 75 530 q 159 252 76 319 q 85 134 85 209 q 146 33 87 68 q 45 -119 46 -37 q 159 -266 45 -221 q 300 -289 221 -289 q 572 -186 491 -289 q 612 -71 612 -134 q 511 80 612 34 q 374 104 454 106 l 250 103 q 179 141 191 102 q 178 155 178 148 q 227 216 180 194 q 315 201 270 201 q 507 292 439 201 q 553 442 553 354 q 500 604 552 536 l 620 600 l 620 688 l 385 680 q 316 689 354 689 m 311 -199 q 157 -133 187 -199 q 149 -98 149 -115 q 227 11 151 -35 l 243 11 l 363 14 q 496 -46 471 15 q 502 -77 502 -61 q 404 -187 502 -157 q 311 -199 362 -199 m 235 860 q 285 781 235 798 q 308 777 297 777 q 373 821 355 777 q 378 853 378 836 q 332 921 378 905 q 327 922 330 921 q 385 1050 336 977 l 346 1078 q 239 897 260 994 q 235 860 235 876 z "},"Ķ":{"ha":726,"x_min":99,"x_max":722,"o":"m 716 76 q 651 117 675 73 l 449 487 l 697 916 l 581 916 l 361 529 l 214 529 l 214 916 l 99 916 l 99 0 l 214 0 l 214 434 l 358 434 l 555 71 q 671 -15 597 -14 q 722 -8 694 -15 l 716 76 m 446 -155 q 396 -75 446 -91 q 373 -72 384 -72 q 309 -113 327 -72 q 302 -148 302 -129 q 347 -216 302 -198 q 354 -217 351 -217 q 296 -345 346 -269 l 335 -373 q 441 -193 419 -290 q 446 -155 445 -172 z "},"ķ":{"ha":631,"x_min":99,"x_max":627,"o":"m 581 -15 q 585 -15 583 -15 q 591 -15 587 -15 q 595 -14 594 -15 q 600 -14 597 -14 q 605 -13 604 -14 q 610 -12 606 -12 q 616 -11 614 -11 q 621 -11 617 -11 l 627 -9 l 621 73 q 605 72 613 72 q 559 110 579 75 l 404 382 l 600 678 l 486 678 l 331 439 l 212 438 l 212 983 l 99 983 l 99 0 l 212 0 l 212 349 l 311 349 l 468 68 q 555 -12 507 -1 q 581 -15 567 -15 m 419 -155 q 369 -75 419 -91 q 346 -72 357 -72 q 282 -113 300 -72 q 275 -148 275 -129 q 320 -216 275 -198 q 327 -217 324 -217 q 269 -345 319 -269 l 308 -373 q 414 -193 392 -290 q 419 -155 418 -172 z "},"Ļ":{"ha":549,"x_min":96,"x_max":536,"o":"m 536 0 l 536 96 l 210 96 l 210 916 l 96 916 l 96 0 l 536 0 m 393 -155 q 343 -75 393 -91 q 320 -72 331 -72 q 256 -113 274 -72 q 250 -148 250 -129 q 294 -216 250 -198 q 301 -217 298 -217 q 243 -345 293 -269 l 282 -373 q 388 -193 366 -290 q 393 -155 392 -172 z "},"ļ":{"ha":343,"x_min":98,"x_max":335,"o":"m 241 -14 q 335 3 286 -14 l 312 87 q 266 77 286 77 q 209 155 210 80 l 209 983 l 98 983 l 98 144 q 206 -11 98 9 q 241 -14 224 -14 m 271 -155 q 221 -75 271 -91 q 198 -72 209 -72 q 134 -113 152 -72 q 127 -148 127 -129 q 172 -216 127 -198 q 179 -217 176 -217 q 121 -345 171 -269 l 160 -373 q 266 -193 244 -290 q 271 -155 270 -172 z "},"Ņ":{"ha":829,"x_min":99,"x_max":730,"o":"m 730 0 l 730 916 l 623 916 l 623 218 l 201 926 l 99 916 l 99 0 l 206 0 l 206 708 l 633 -11 l 730 0 m 486 -155 q 435 -75 486 -91 q 412 -72 423 -72 q 349 -113 366 -72 q 342 -148 342 -129 q 387 -216 342 -198 q 393 -217 391 -217 q 335 -345 385 -269 l 374 -373 q 480 -193 458 -290 q 486 -155 484 -172 z "},"ņ":{"ha":692,"x_min":98,"x_max":652,"o":"m 648 73 q 594 103 602 69 q 591 138 591 118 l 591 464 q 481 674 591 624 q 393 693 442 693 q 206 575 270 692 l 203 678 l 98 678 l 98 0 l 209 0 l 209 372 q 296 583 209 528 q 365 604 328 604 q 473 513 449 604 q 480 450 480 484 l 480 130 q 604 -14 483 -12 q 652 -8 629 -14 l 648 73 m 427 -155 q 377 -75 427 -91 q 354 -72 365 -72 q 290 -113 308 -72 q 283 -148 283 -129 q 328 -216 283 -198 q 335 -217 332 -217 q 277 -345 327 -269 l 316 -373 q 422 -193 400 -290 q 427 -155 426 -172 z "},"Ŗ":{"ha":703,"x_min":103,"x_max":680,"o":"m 217 0 l 217 381 l 330 381 q 358 382 349 381 l 510 71 q 628 -14 557 -9 q 680 -8 658 -14 l 674 76 l 662 76 q 609 114 627 79 l 465 401 q 639 590 606 449 q 647 665 647 625 q 328 920 644 918 q 103 916 206 920 l 103 0 l 217 0 m 326 823 q 518 724 486 823 q 528 651 528 693 q 393 483 528 511 q 330 477 365 477 l 217 477 l 217 821 q 326 823 285 823 m 434 -155 q 384 -75 434 -91 q 361 -72 372 -72 q 297 -113 315 -72 q 290 -148 290 -129 q 335 -216 290 -198 q 342 -217 339 -217 q 283 -345 334 -269 l 323 -373 q 429 -193 407 -290 q 434 -155 433 -172 z "},"ŗ":{"ha":420,"x_min":96,"x_max":423,"o":"m 209 0 l 209 377 q 285 567 209 513 q 355 590 317 590 q 411 579 380 590 l 423 688 q 382 693 404 693 q 205 566 262 692 l 202 681 l 98 681 l 98 0 l 209 0 m 247 -155 q 197 -75 247 -91 q 174 -72 184 -72 q 110 -113 127 -72 q 103 -148 103 -129 q 148 -216 103 -198 q 155 -217 152 -217 q 96 -345 146 -269 l 136 -373 q 241 -193 220 -290 q 247 -155 245 -172 z "},"Ş":{"ha":658,"x_min":54,"x_max":583,"o":"m 278 -275 q 435 -201 391 -275 q 453 -138 453 -171 q 377 -19 453 -62 q 362 -11 369 -14 q 556 122 500 12 q 583 247 583 178 q 458 464 583 385 q 323 530 437 476 q 199 629 224 578 q 187 685 187 655 q 267 817 187 779 q 339 833 301 833 q 484 758 431 833 q 495 739 490 749 l 582 785 q 411 924 538 897 q 345 930 378 930 q 138 849 218 930 q 72 681 72 780 q 194 467 72 543 q 327 400 214 454 q 453 298 427 353 q 467 237 467 270 q 384 100 467 137 q 312 85 351 85 q 102 155 205 87 l 54 71 q 282 -14 163 -7 q 366 -115 362 -58 q 296 -189 366 -175 q 263 -191 279 -191 q 220 -187 241 -191 l 217 -269 q 278 -275 243 -275 z "},"ş":{"ha":529,"x_min":41,"x_max":479,"o":"m 212 -275 q 369 -201 324 -275 q 387 -138 387 -171 q 301 -12 387 -57 q 297 -11 298 -11 q 454 94 410 7 q 476 186 476 136 q 369 354 476 290 q 300 389 347 366 q 190 461 213 430 q 174 511 174 484 q 236 600 174 576 q 278 606 256 606 q 397 545 355 606 q 403 537 400 541 l 479 581 q 304 692 429 680 q 277 693 290 693 q 107 625 171 693 q 62 511 62 576 q 168 342 62 404 q 236 307 190 328 q 347 233 324 264 q 365 179 365 209 q 296 81 365 106 q 250 75 274 75 q 83 130 164 76 l 41 58 q 212 -12 118 -1 q 300 -115 297 -56 q 229 -189 300 -175 q 197 -191 213 -191 q 153 -187 175 -191 l 151 -269 q 212 -275 176 -275 z "},"Ţ":{"ha":563,"x_min":9,"x_max":552,"o":"m 237 -275 q 396 -197 353 -275 q 412 -134 412 -167 q 336 0 411 -60 l 336 819 l 552 819 l 552 917 l 9 917 l 9 819 l 222 819 l 222 0 q 328 -115 327 -49 q 270 -184 328 -167 q 221 -191 247 -191 q 179 -187 201 -191 l 176 -269 q 237 -275 213 -275 z "},"ţ":{"ha":449,"x_min":30,"x_max":433,"o":"m 220 -275 q 374 -206 328 -275 q 395 -141 395 -176 q 316 -14 393 -62 q 433 30 373 -7 l 401 100 q 327 77 357 77 q 245 170 256 77 q 244 198 244 184 l 244 593 l 401 593 l 401 678 l 244 678 l 244 861 l 133 861 l 133 678 l 30 678 l 30 593 l 133 593 l 133 182 q 228 -3 134 37 q 308 -115 305 -54 q 232 -190 308 -179 q 205 -191 218 -191 q 160 -187 183 -191 l 157 -269 q 220 -275 186 -275 z "},"Ș":{"ha":637,"x_min":54,"x_max":583,"o":"m 583 247 q 458 464 583 385 q 323 530 437 476 q 199 629 224 578 q 187 685 187 655 q 267 817 187 779 q 339 833 301 833 q 484 758 431 833 q 495 739 490 749 l 582 785 q 411 924 538 897 q 345 930 378 930 q 138 849 218 930 q 72 681 72 780 q 194 467 72 543 q 327 400 214 454 q 453 298 427 353 q 467 237 467 270 q 384 100 467 137 q 312 85 351 85 q 102 155 205 87 l 54 71 q 308 -15 174 -15 q 532 83 454 -15 q 583 247 583 151 m 411 -155 q 361 -75 411 -91 q 338 -72 349 -72 q 274 -113 292 -72 q 267 -148 267 -129 q 312 -216 267 -198 q 319 -217 316 -217 q 260 -345 311 -269 l 300 -373 q 406 -193 384 -290 q 411 -155 410 -172 z "},"ș":{"ha":529,"x_min":41,"x_max":479,"o":"m 476 186 q 369 354 476 290 q 300 389 347 366 q 190 461 213 430 q 174 511 174 484 q 236 600 174 576 q 278 606 256 606 q 397 545 355 606 q 403 537 400 541 l 479 581 q 304 692 429 680 q 277 693 290 693 q 107 625 171 693 q 62 511 62 576 q 168 342 62 404 q 236 307 190 328 q 347 233 324 264 q 365 179 365 209 q 296 81 365 106 q 250 75 274 75 q 83 130 164 76 l 41 58 q 252 -15 136 -15 q 434 64 370 -15 q 476 186 476 115 m 363 -155 q 313 -75 363 -91 q 290 -72 301 -72 q 227 -113 244 -72 q 220 -148 220 -129 q 264 -216 220 -198 q 271 -217 269 -217 q 213 -345 263 -269 l 252 -373 q 358 -193 336 -290 q 363 -155 362 -172 z "},"Ț":{"ha":563,"x_min":9,"x_max":552,"o":"m 9 917 l 9 819 l 222 819 l 222 0 l 336 0 l 336 819 l 552 819 l 552 917 l 9 917 m 353 -155 q 302 -75 353 -91 q 279 -72 290 -72 q 216 -113 233 -72 q 209 -148 209 -129 q 254 -216 209 -198 q 260 -217 258 -217 q 202 -345 252 -269 l 241 -373 q 347 -193 326 -290 q 353 -155 351 -172 z "},"ț":{"ha":444,"x_min":30,"x_max":433,"o":"m 433 30 l 401 100 q 327 77 357 77 q 245 170 256 77 q 244 198 244 184 l 244 593 l 401 593 l 401 678 l 244 678 l 244 861 l 133 861 l 133 678 l 30 678 l 30 593 l 133 593 l 133 182 q 243 -8 133 24 q 294 -15 267 -15 q 433 30 362 -14 m 334 -155 q 283 -75 334 -91 q 260 -72 271 -72 q 197 -113 214 -72 q 190 -148 190 -129 q 235 -216 190 -198 q 241 -217 239 -217 q 183 -345 233 -269 l 222 -373 q 328 -193 307 -290 q 334 -155 332 -172 z "},"ˉ":{"ha":498,"x_min":72,"x_max":426,"o":"m 72 918 l 72 829 l 426 829 l 426 918 l 72 918 z "},"₺":{"ha":796,"x_min":31,"x_max":739,"o":"m 739 431 l 624 431 q 359 95 609 96 q 255 96 293 95 l 255 332 l 479 415 l 479 500 l 255 419 l 255 514 l 479 595 l 479 681 l 255 600 l 255 916 l 141 916 l 141 557 l 31 518 l 31 433 l 141 472 l 141 377 l 31 336 l 31 250 l 141 290 l 141 0 q 359 -4 266 -4 q 709 244 628 -7 q 739 431 735 327 z "},"₽":{"ha":715,"x_min":34,"x_max":665,"o":"m 347 823 q 544 673 529 823 q 545 642 545 658 q 416 469 545 500 q 345 461 384 461 l 239 461 l 239 821 q 347 823 307 823 m 484 202 l 484 288 l 239 288 l 239 376 l 358 376 q 624 505 544 376 q 665 658 665 572 q 509 894 665 834 q 350 920 441 920 q 123 916 229 920 l 123 461 l 34 461 l 34 376 l 123 376 l 123 288 l 34 288 l 34 202 l 123 202 l 123 0 l 239 0 l 239 202 l 484 202 z "},"ℓ":{"ha":505,"x_min":16,"x_max":500,"o":"m 471 833 q 373 1019 471 978 q 305 1031 342 1031 q 141 868 170 1031 q 134 777 134 826 l 136 343 q 16 239 83 289 l 64 165 q 137 222 90 183 l 137 180 q 228 8 137 58 q 316 -15 269 -15 q 500 77 425 -14 l 446 138 q 334 80 389 80 q 251 161 266 80 q 248 201 248 180 l 248 332 q 460 732 418 525 q 471 833 471 785 m 245 788 q 311 935 247 933 q 374 825 373 932 q 259 499 374 680 q 247 480 252 488 l 245 788 z "},"Ω":{"ha":875,"x_min":62,"x_max":812,"o":"m 369 0 l 369 95 q 213 311 256 146 q 194 464 194 384 q 293 769 194 671 q 441 829 354 829 q 648 663 589 829 q 680 465 680 578 q 585 159 680 273 q 503 94 548 115 l 506 0 l 812 0 l 812 96 l 627 96 q 792 378 757 198 q 802 483 802 431 q 680 838 802 715 q 441 930 585 930 q 148 769 251 930 q 72 479 72 648 q 194 140 72 274 q 240 96 216 115 l 62 96 l 62 0 l 369 0 z "},"∆":{"ha":822,"x_min":14,"x_max":807,"o":"m 807 0 l 481 920 l 345 920 l 14 0 l 807 0 m 658 92 l 161 92 l 410 817 l 658 92 z "},"∕":{"ha":747,"x_min":34,"x_max":703,"o":"m 140 -15 l 34 -14 l 600 997 l 703 997 l 140 -15 z "},"∙":{"ha":465,"x_min":94,"x_max":372,"o":"m 372 399 q 307 521 372 480 q 232 543 273 543 q 115 476 155 543 q 94 399 94 441 q 157 278 94 319 q 232 256 191 256 q 353 324 313 256 q 372 399 372 359 z "},"ų":{"ha":709,"x_min":96,"x_max":692,"o":"m 692 -260 l 686 -184 q 639 -191 665 -191 q 555 -142 570 -191 q 552 -122 552 -132 q 670 -11 552 -50 q 681 -7 675 -8 l 677 75 q 656 73 669 73 q 601 122 609 73 q 598 159 598 138 l 598 678 l 486 678 l 486 304 q 400 95 486 151 q 330 75 368 75 q 213 176 235 75 q 209 227 209 201 l 209 678 l 96 678 l 96 214 q 221 1 96 45 q 304 -12 259 -12 q 481 84 414 -12 q 500 114 492 99 q 575 -5 509 16 q 460 -126 479 -50 q 456 -155 456 -141 q 529 -258 456 -227 q 612 -273 566 -273 q 692 -260 652 -273 z "},"ů":{"ha":700,"x_min":95,"x_max":680,"o":"m 625 -15 q 680 -8 647 -15 l 675 75 q 655 73 667 73 q 600 122 608 73 q 597 159 597 138 l 597 678 l 484 678 l 484 304 q 399 95 484 151 q 327 75 365 75 q 213 174 233 75 q 208 227 208 199 l 208 678 l 95 678 l 95 214 q 220 1 95 45 q 302 -12 258 -12 q 486 92 418 -12 q 499 114 494 103 q 602 -14 507 -3 q 625 -15 613 -15 m 496 882 q 418 1015 496 978 q 357 1027 388 1027 q 235 963 275 1027 q 212 880 212 928 q 290 746 212 783 q 351 734 320 734 q 472 796 430 734 q 496 882 496 833 m 285 880 q 332 958 285 941 q 354 960 345 960 q 418 918 399 960 q 425 880 425 901 q 376 804 425 821 q 354 802 365 802 q 292 845 309 802 q 285 880 285 861 z "},"v":{"ha":598,"x_min":4,"x_max":594,"o":"m 349 0 l 594 678 l 484 678 l 300 155 l 119 678 l 4 678 l 244 0 l 349 0 z "},"ඃ":{"ha":330,"x_min":38,"x_max":292,"o":"m 114 199 q 145 152 114 167 q 165 148 156 148 q 212 180 199 148 q 216 199 216 191 q 184 247 216 233 q 165 251 174 251 q 118 220 133 251 q 114 199 114 209 m 38 199 q 98 308 38 270 q 165 327 130 327 q 273 267 236 327 q 292 199 292 235 q 232 91 292 129 q 165 72 201 72 q 57 132 95 72 q 38 199 38 164 m 114 557 q 145 510 114 525 q 165 506 156 506 q 212 538 199 506 q 216 557 216 549 q 184 605 216 591 q 165 609 175 609 q 118 578 133 609 q 114 557 114 567 m 38 557 q 98 666 38 628 q 165 685 130 685 q 273 625 236 685 q 292 557 292 593 q 232 449 292 487 q 165 430 201 430 q 57 490 95 430 q 38 557 38 522 z "},"w":{"ha":945,"x_min":5,"x_max":939,"o":"m 305 0 l 472 515 l 629 0 l 716 0 l 939 678 l 836 678 l 680 164 l 529 667 l 426 662 l 269 164 l 119 678 l 5 678 l 218 0 l 305 0 z "},"x":{"ha":589,"x_min":7,"x_max":582,"o":"m 576 72 l 567 72 q 515 106 537 75 l 354 351 l 574 678 l 461 678 l 301 433 l 148 678 l 20 678 l 237 345 l 7 0 l 122 0 l 293 260 l 415 69 q 534 -15 475 -9 q 582 -9 551 -15 l 576 72 z "},"y":{"ha":574,"x_min":-62,"x_max":581,"o":"m 471 678 l 293 142 l 111 678 l -4 678 l 239 5 q 140 -175 184 -138 q 75 -198 111 -198 q -27 -170 35 -197 l -62 -254 q 80 -289 14 -289 q 286 -123 208 -289 q 315 -56 301 -92 l 581 678 l 471 678 z "},"ý":{"ha":574,"x_min":-62,"x_max":581,"o":"m 471 678 l 293 142 l 111 678 l -4 678 l 239 5 q 140 -175 184 -138 q 75 -198 111 -198 q -27 -170 35 -197 l -62 -254 q 80 -289 14 -289 q 286 -123 208 -289 q 315 -56 301 -92 l 581 678 l 471 678 m 475 914 l 412 1000 l 193 838 l 240 769 l 475 914 z "},"ÿ":{"ha":574,"x_min":-62,"x_max":581,"o":"m 471 678 l 293 142 l 111 678 l -4 678 l 239 5 q 140 -175 184 -138 q 75 -198 111 -198 q -27 -170 35 -197 l -62 -254 q 80 -289 14 -289 q 286 -123 208 -289 q 315 -56 301 -92 l 581 678 l 471 678 m 227 875 q 180 944 227 930 q 161 947 171 947 q 96 899 110 947 q 94 875 94 887 q 141 803 94 817 q 160 800 151 800 q 221 845 206 800 q 227 875 227 860 m 479 875 q 431 944 479 930 q 411 947 420 947 q 350 901 363 947 q 346 875 346 888 q 391 803 346 818 q 411 800 401 800 q 473 845 458 800 q 479 875 479 860 z "},"¥":{"ha":732,"x_min":26,"x_max":692,"o":"m 617 175 l 617 258 l 412 258 l 412 345 l 617 345 l 617 427 l 453 427 l 692 916 l 571 916 l 430 613 q 358 442 404 557 q 288 614 311 563 l 149 916 l 26 916 l 259 427 l 94 427 l 94 345 l 298 345 l 298 258 l 94 258 l 94 175 l 298 175 l 298 0 l 412 0 l 412 175 l 617 175 z "},"z":{"ha":556,"x_min":43,"x_max":511,"o":"m 176 84 l 507 617 l 507 678 l 54 678 l 54 594 l 373 594 l 43 60 l 43 0 l 511 0 l 511 84 l 176 84 z "},"ź":{"ha":556,"x_min":43,"x_max":511,"o":"m 176 84 l 507 617 l 507 678 l 54 678 l 54 594 l 373 594 l 43 60 l 43 0 l 511 0 l 511 84 l 176 84 m 484 914 l 422 1000 l 202 838 l 250 769 l 484 914 z "},"ž":{"ha":556,"x_min":43,"x_max":511,"o":"m 176 84 l 507 617 l 507 678 l 54 678 l 54 594 l 373 594 l 43 60 l 43 0 l 511 0 l 511 84 l 176 84 m 294 765 l 491 925 l 444 983 l 300 876 l 153 986 l 102 924 l 294 765 z "},"ż":{"ha":556,"x_min":43,"x_max":511,"o":"m 176 84 l 507 617 l 507 678 l 54 678 l 54 594 l 373 594 l 43 60 l 43 0 l 511 0 l 511 84 l 176 84 m 320 822 q 353 887 361 844 q 349 903 351 895 q 286 935 328 947 q 274 930 279 933 q 243 856 228 905 q 245 849 244 852 q 305 815 266 804 q 320 822 313 818 z "},"‍":{"ha":0,"x_min":-244,"x_max":240,"o":"m -46 7 l 45 7 l 45 764 l 187 663 l 239 734 l 76 849 l 240 967 l 189 1035 l 0 902 l -189 1035 l -244 967 l -76 849 l -240 734 l -183 663 l -46 762 l -46 7 z "},"‌":{"ha":0,"x_min":-52,"x_max":45,"o":"m -52 1 l -52 997 l 45 997 l 45 1 l -52 1 z "}}}
